<svg width="50" height="50" viewBox="0 0 50 50" fill="none" xmlns="http://www.w3.org/2000/svg">
<g clip-path="url(#clip0_75_722)">
<path d="M48.1275 36.2817L27.8242 2.00962C27.1721 0.905305 26.0104 0.236048 24.7627 0.245694H24.7202C23.4576 0.250002 22.2919 0.948363 21.6568 2.08085L17.6582 9.18173L12.7201 1.01775C12.1182 0.0229025 10.8532 -0.277116 9.89478 0.347612C8.93635 0.972339 8.64724 2.28528 9.24914 3.28013L32.3206 41.4138L34.2504 44.671C35.3623 46.5433 37.1432 47.8825 39.2036 48.3959C39.8573 48.5634 40.5282 48.6481 41.2016 48.6481C42.634 48.6481 44.0417 48.2593 45.2846 47.52C47.15 46.4319 48.5055 44.5995 49.0363 42.4479C49.5574 40.3498 49.2293 38.1219 48.1275 36.2817ZM45.0651 41.3946C44.8056 42.4285 44.15 43.3071 43.2505 43.8266C41.3373 44.9614 38.8661 44.341 37.7418 42.4432L37.078 41.3226C37.0369 41.2249 36.9889 41.1303 36.9342 41.0399L35.8021 39.1697L20.2768 12.9622L24.7714 4.97933L44.6357 38.51C45.1526 39.3704 45.3077 40.4127 45.0651 41.3946Z" fill="#56CAF5"/>
<path d="M12.7385 26.2891C12.6812 26.1783 12.6278 26.0731 12.5765 25.9739C12.4213 25.6515 12.2482 25.339 12.0581 25.0375C12.0449 25.0175 12.0313 24.9984 12.0176 24.9791L7.43291 16.5007C6.87879 15.4765 5.62962 15.1123 4.64264 15.6873C3.65586 16.2624 3.305 17.5592 3.85913 18.5834L7.70299 25.6902C7.68841 25.7215 7.67465 25.7518 7.6625 25.7801L1.59909 36.2479L1.55172 36.3546C-0.216952 40.3473 0.93078 45.0797 4.3098 47.7275C7.68882 50.3752 12.3881 50.2244 15.6033 47.365C18.8183 44.5056 19.682 39.7087 17.6791 35.8371L12.7385 26.2891ZM13.9553 42.8797C12.6262 45.1881 9.79843 46.0285 7.49365 44.8C5.18887 43.5715 4.19926 40.6966 5.2324 38.2303L10.0031 29.9941L14.0672 37.8498C14.8931 39.4282 14.8504 41.3425 13.9553 42.8797Z" fill="#56CAF5"/>
</g>
<defs>
<clipPath id="clip0_75_722">
<rect width="50" height="50" fill="white"/>
</clipPath>
</defs>
</svg>
