<svg width="50" height="50" viewBox="0 0 50 50" fill="none" xmlns="http://www.w3.org/2000/svg">
<path d="M47.7801 16.6559C46.7691 23.5198 43.543 29.7724 38.6756 34.3018C33.8082 38.8311 27.6152 41.3433 21.1984 41.3915C19.8986 41.4456 18.5971 41.3599 17.313 41.1361C14.6273 40.6418 12.1793 39.1653 10.3772 36.9528C8.57511 34.7403 7.52788 31.9255 7.41016 28.9779C7.43611 25.6903 8.65454 22.5455 10.8025 20.2223C12.9504 17.8992 15.8556 16.5841 18.891 16.5609C21.9265 16.5376 24.8486 17.8082 27.0265 20.0981C29.2046 22.3882 30.464 25.514 30.5329 28.8008C30.5814 30.8768 29.7511 32.6977 28.0447 32.7503C26.2215 32.7503 25.3668 31.3413 25.3668 29.4424V24.1658C25.3675 23.3125 25.0566 22.4936 24.5019 21.8876C23.9473 21.2815 23.1939 20.9376 22.4061 20.9309H18.3222C17.1343 20.9219 15.9633 21.2357 14.9162 21.8433C13.8692 22.4509 12.9794 23.3331 12.3283 24.4092C11.6771 25.4853 11.2853 26.7209 11.1886 28.0032C11.0919 29.2855 11.2934 30.5736 11.7748 31.7498C12.2561 32.9261 13.002 33.9529 13.9441 34.7366C14.8863 35.5202 15.9947 36.0357 17.1682 36.2359C18.3416 36.4358 19.5426 36.3142 20.6614 35.8819C21.7803 35.4497 22.7812 34.7206 23.5729 33.7614L23.7157 33.5308L23.8586 33.7868C24.3498 34.5096 24.9983 35.0897 25.7464 35.4755C26.4945 35.8614 27.319 36.041 28.1467 35.9986C29.622 35.8824 30.997 35.1463 31.978 33.9473C32.959 32.7483 33.4684 31.1814 33.3974 29.5813C33.4117 28.2081 33.2696 26.8383 32.9743 25.5028C32.2169 21.7302 30.197 18.3947 27.3038 16.1397C24.4107 13.8846 20.8492 12.8694 17.306 13.2898C13.7627 13.7101 10.4886 15.5363 8.11483 18.4161C5.74089 21.2962 4.43531 25.0261 4.44974 28.8868C4.49529 32.9805 6.00413 36.8958 8.65923 39.81C11.3141 42.7241 14.9086 44.41 18.6874 44.5136C18.6874 44.5136 19.7569 44.6189 20.9626 44.5889C26.8235 44.5487 32.5522 42.6976 37.4752 39.2529C37.5453 39.2001 37.6153 39.3055 37.5687 39.3824C35.1719 42.1788 32.241 44.3756 28.9802 45.82C25.7194 47.2643 22.2071 47.9213 18.6878 47.7454C16.3871 47.7906 14.1018 47.3306 11.9698 46.3931C9.83773 45.4556 7.90314 44.06 6.28274 42.2906C4.66219 40.521 3.38936 38.4143 2.54102 36.0976C1.69267 33.7808 1.28639 31.3019 1.34667 28.8105C1.34778 25.8401 1.98852 22.911 3.21798 20.2559C4.44744 17.6007 6.23174 15.2927 8.42909 13.5152C11.3821 11.16 14.9507 9.88404 18.618 9.87223H24.099C26.2401 9.8705 28.3574 9.38587 30.3161 8.44922C32.2747 7.51256 34.0318 6.1444 35.4754 4.43187C35.5059 4.39525 35.5464 4.37018 35.5911 4.36035C35.6356 4.34989 35.6821 4.3549 35.7239 4.37464C35.7657 4.39439 35.8007 4.42788 35.824 4.47037C35.8474 4.51302 35.858 4.56247 35.8541 4.61209C35.6218 7.28028 34.8017 9.84913 33.4626 12.1029C33.4428 12.142 33.4339 12.1866 33.437 12.2311C33.4401 12.2756 33.4552 12.3182 33.4803 12.3536C33.5052 12.389 33.5391 12.4158 33.5778 12.4307C33.6166 12.4456 33.6585 12.4481 33.6985 12.4378C36.2286 11.8187 38.5893 10.5651 40.5905 8.77773C42.5917 6.99037 44.1776 4.7192 45.2205 2.14696C45.247 2.101 45.2835 2.06283 45.327 2.03578C45.3707 2.00908 45.42 1.99506 45.4702 1.99506C45.5204 1.99506 45.5697 2.00908 45.6134 2.03578C45.6569 2.06266 45.6935 2.10083 45.7197 2.14696C47.8679 6.60387 48.5924 11.7059 47.7801 16.6559ZM18.6733 24.0999C18.0428 24.0998 17.4201 24.2511 16.8501 24.543C16.2802 24.8349 15.7771 25.26 15.3771 25.7879C14.9771 26.3157 14.6902 26.9331 14.537 27.5954C14.3839 28.2578 14.3683 28.9487 14.4914 29.6184C14.6559 30.5142 15.0619 31.337 15.6582 31.9828C16.2544 32.6287 17.0141 33.0685 17.8411 33.2468C18.4595 33.38 19.0974 33.363 19.7089 33.197C20.3205 33.0311 20.8904 32.7203 21.3777 32.2871C21.865 31.8538 22.2575 31.3089 22.5269 30.6916C22.7964 30.0743 22.9361 29.4 22.9359 28.7172V24.4064C22.9321 24.324 22.9001 24.246 22.8462 24.1876C22.7923 24.1292 22.7203 24.0946 22.6442 24.0905L18.6733 24.0999Z" fill="#702AF7"/>
</svg>
