<svg width="50" height="50" viewBox="0 0 50 50" fill="none" xmlns="http://www.w3.org/2000/svg">
<path d="M44.494 22.0711C40.2414 17.5858 33.1016 14.653 24.9998 14.653C16.8979 14.653 9.75815 17.5858 5.50531 22.0711L1.37695 22.0711L1.37695 31.6974C1.37695 41.1168 11.9621 48.7418 24.9998 48.7418C38.0374 48.7418 48.6226 41.1168 48.6226 31.6974L48.6226 22.0711L44.494 22.0711Z" fill="#FFC010" stroke="#001E2B" stroke-width="0.75" stroke-miterlimit="10"/>
<path d="M24.9998 14.653C23.8511 14.653 22.7025 14.722 21.6162 14.8255L21.6162 48.5347C22.7337 48.6384 23.8511 48.7074 24.9998 48.7074C38.0374 48.7074 48.6226 41.0821 48.6226 31.6628L48.6226 22.0711L44.494 22.0711C40.2414 17.5858 33.1016 14.653 24.9998 14.653Z" fill="#001E2B" stroke="#001E2B" stroke-width="0.75" stroke-miterlimit="10"/>
<path d="M24.9998 39.1154C38.0463 39.1154 48.6226 31.4844 48.6226 22.0711C48.6226 12.6577 38.0463 5.02667 24.9998 5.02667C11.9532 5.02667 1.37695 12.6577 1.37695 22.0711C1.37695 31.4844 11.9532 39.1154 24.9998 39.1154Z" fill="#FFC010" stroke="#001E2B" stroke-width="0.75" stroke-miterlimit="10"/>
<path d="M25.0001 5.02667C24.2241 5.02667 23.4481 5.06119 22.6719 5.09568C34.6232 5.92375 43.9667 13.2039 43.9667 22.0366C43.9667 30.8693 34.6232 38.1495 22.6719 38.9776C23.4481 39.0463 24.1929 39.0463 25.0001 39.0463C38.0377 39.0463 48.6229 31.4213 48.6229 22.0021C48.6229 12.6518 38.0377 5.02667 25.0001 5.02667Z" fill="#001E2B" stroke="#001E2B" stroke-width="0.75" stroke-miterlimit="10"/>
<path d="M43.9976 22.0711C43.9976 29.075 35.4922 34.7682 25 34.7682C14.5079 34.7682 6.00244 29.075 6.00244 22.0711C6.00244 15.067 10.6277 2.81848 25 2.81848C39.3723 2.81848 43.9976 15.067 43.9976 22.0711Z" fill="#FFE212" stroke="#001E2B" stroke-width="0.75" stroke-miterlimit="10"/>
<path d="M25 34.7682C35.4922 34.7682 43.9976 29.0835 43.9976 22.071C43.9976 15.0587 35.4922 9.37402 25 9.37402C14.5079 9.37402 6.00244 15.0587 6.00244 22.071C6.00244 29.0835 14.5079 34.7682 25 34.7682Z" stroke="#001E2B" stroke-miterlimit="10" stroke-dasharray="2 2"/>
<path d="M25 19.7939L38.7826 22.9682L25 26.1423L11.2173 22.9682L25 19.7939Z" fill="#001E2B" stroke="#001E2B" stroke-width="0.75" stroke-miterlimit="10"/>
<path d="M36.3304 13.3764L33.9092 15.2051" stroke="#001E2B" stroke-width="0.75" stroke-miterlimit="10"/>
<path d="M16.0912 28.5923L13.6699 30.3864" stroke="#001E2B" stroke-width="0.75" stroke-miterlimit="10"/>
<path d="M36.3304 30.3864L33.9092 28.5923" stroke="#001E2B" stroke-width="0.75" stroke-miterlimit="10"/>
<path d="M16.0912 15.2051L13.6699 13.3764" stroke="#001E2B" stroke-width="0.75" stroke-miterlimit="10"/>
<path d="M25 17.5512L38.7826 20.691L25 23.8653L11.2173 20.691L25 17.5512Z" fill="#00ED64" stroke="#001E2B" stroke-width="0.75" stroke-miterlimit="10" stroke-linejoin="round"/>
<path d="M24.9998 22.0365C26.0628 22.0365 26.9244 21.4341 26.9244 20.6909C26.9244 19.9478 26.0628 19.3453 24.9998 19.3453C23.9368 19.3453 23.0752 19.9478 23.0752 20.6909C23.0752 21.4341 23.9368 22.0365 24.9998 22.0365Z" fill="#001E2B" stroke="#001E2B" stroke-width="0.75" stroke-miterlimit="10"/>
<path d="M27.5142 2.92206C33.4432 7.71797 37.2924 15.6191 37.2924 24.5554C37.2924 27.2466 36.951 29.8344 36.2992 32.2494C40.9554 29.9378 43.9665 26.246 43.9665 22.0711C43.9974 15.4811 39.9309 4.26768 27.5142 2.92206Z" stroke="#001E2B" stroke-miterlimit="10" stroke-dasharray="2 2"/>
<path d="M24.5962 31.3523L24.8756 31.3523C24.8756 31.4557 24.9377 31.5594 25.0307 31.6284C25.124 31.6974 25.217 31.7318 25.3412 31.7318C25.4655 31.7318 25.5585 31.6974 25.6206 31.6284C25.6827 31.5594 25.7448 31.4903 25.7448 31.3869C25.7448 31.2142 25.6515 31.0761 25.4343 31.0074L25.1549 30.9037C24.9998 30.8346 24.8756 30.7656 24.7825 30.6622C24.6892 30.5588 24.6583 30.4207 24.6583 30.2483C24.6583 30.0756 24.7204 29.9031 24.8446 29.7997C24.9688 29.696 25.124 29.6273 25.3101 29.6273C25.4964 29.6273 25.6515 29.696 25.7758 29.7997C25.9 29.9378 25.9621 30.0756 25.9621 30.2483L25.6827 30.2483C25.6515 30.1446 25.6206 30.0412 25.5276 30.0068C25.4655 29.9378 25.3722 29.9378 25.2791 29.9378C25.1861 29.9378 25.0928 29.9721 25.0307 30.0068C24.9688 30.0756 24.9377 30.1446 24.9377 30.2483C24.9377 30.3517 24.9688 30.4207 24.9998 30.4898C25.0619 30.5588 25.124 30.5932 25.217 30.6278L25.4964 30.7312C25.8379 30.8693 25.993 31.0761 25.993 31.4213C25.993 31.6284 25.9309 31.7662 25.8069 31.8699C25.6827 31.9733 25.5276 32.0423 25.3412 32.0423C25.124 32.0423 24.9688 31.9733 24.8134 31.8352C24.6892 31.6628 24.5962 31.5247 24.5962 31.3523Z" fill="black"/>
<path d="M26.1793 13.3419L25.9311 13.3419L24.6583 11.5477L24.6583 13.3419L24.3789 13.3419L24.3789 11.0302L24.6273 11.0302L25.9 12.8243L25.9 11.0302L26.1793 11.0302L26.1793 13.3419Z" fill="black"/>
</svg>
