<svg width="50" height="50" viewBox="0 0 50 50" fill="none" xmlns="http://www.w3.org/2000/svg">
<path d="M47.0099 14.7817C47.0099 13.9545 46.8336 13.2086 46.4674 12.5848C46.1149 11.961 45.586 11.4457 44.8808 11.0389C39.0224 7.66209 33.1504 4.28539 27.2919 0.908623C25.7053 1.06686e-05 24.1864 0.0271445 22.6133 0.949295C20.2808 2.31901 8.591 9.01821 5.11936 11.0389C3.68183 11.8661 2.99023 13.1408 2.99023 14.7953V35.1913C2.99023 36.005 3.16652 36.7237 3.50555 37.3476C3.85817 37.985 4.40062 38.5274 5.11936 38.9478C8.6046 40.9684 20.2808 47.6541 22.6133 49.0374C24.1864 49.9593 25.7188 50 27.2919 49.078C33.1504 45.6877 39.0224 42.3246 44.8808 38.9478C45.6131 38.5274 46.142 37.9985 46.4946 37.3476C46.8336 36.7237 47.0099 36.005 47.0099 35.1913V14.7817Z" fill="#9A4993"/>
<path d="M25.0544 24.9119L3.47852 37.334C3.83114 37.9714 4.37359 38.5138 5.09232 38.9342C8.57756 40.9548 20.2537 47.6405 22.5863 49.0237C24.1594 49.9459 25.6918 49.9866 27.2649 49.0644C33.1233 45.6741 38.9953 42.3109 44.8538 38.9342C45.5861 38.5138 46.115 37.985 46.4675 37.334L25.0544 24.9119Z" fill="#6A1577"/>
<path d="M18.667 28.587C19.9282 30.7839 22.2878 32.2621 24.9865 32.2621C27.7123 32.2621 30.0855 30.7704 31.3332 28.5463L25.0544 24.9119L18.667 28.587Z" fill="#6A1577"/>
<path d="M47.0098 14.7817C47.0098 13.9545 46.8335 13.2086 46.4674 12.5848L25.0542 24.9119L46.4944 37.334C46.8335 36.7102 47.0098 35.9915 47.0098 35.1778V14.7817Z" fill="#813084"/>
<path d="M31.3331 28.5463C30.0856 30.7568 27.7123 32.2621 24.9865 32.2621C22.2743 32.2621 19.9147 30.7839 18.667 28.587C18.0568 27.5157 17.7041 26.2952 17.7041 24.9797C17.7041 20.9521 20.9588 17.6974 24.9865 17.6974C27.6716 17.6974 30.0178 19.162 31.2789 21.3318L37.6391 17.6702C35.1032 13.3036 30.3839 10.3608 24.973 10.3608C16.8905 10.3608 10.354 16.9108 10.354 24.9797C10.354 27.6242 11.0591 30.1195 12.2932 32.2621C14.8156 36.6424 19.562 39.5987 24.9865 39.5987C30.4246 39.5987 35.171 36.6288 37.6934 32.2215L31.3331 28.5463ZM39.3749 21.5216H37.9239V28.5328H39.3749V21.5216ZM42.5889 21.5216H41.1379V28.5328H42.5889V21.5216Z" fill="white"/>
<path d="M43.769 22.7015H36.7578V24.1525H43.769V22.7015ZM43.769 25.9019H36.7578V27.353H43.769V25.9019Z" fill="white"/>
</svg>
