<svg width="50" height="50" viewBox="0 0 50 50" fill="none" xmlns="http://www.w3.org/2000/svg">
<g clip-path="url(#clip0_75_569)">
<path d="M14.0439 13.6517L10.8105 10.4269L10.8231 33.7095L10.8609 34.7961C10.876 35.2981 10.9869 35.8878 11.1305 36.4851L36.7465 45.4844L43.149 42.6587L43.154 42.6499L14.0577 13.6492L14.0439 13.6517Z" fill="#00C4B3"/>
<path d="M11.1216 36.4876H11.1241C11.1213 36.4764 11.1175 36.4655 11.1128 36.455C11.1178 36.4675 11.1178 36.4775 11.1216 36.4876ZM43.1401 42.6611L36.7377 45.4869L11.1241 36.4876C11.6128 38.3698 12.6986 40.4653 13.8612 41.6121L22.2185 49.8937L40.8099 49.9188L43.1401 42.6662V42.6611Z" fill="#22D3C5"/>
<path d="M10.8865 10.4281L0.927025 25.4141C0.100741 26.2949 0.511364 28.1094 1.844 29.447L7.59397 35.2215L11.209 36.4763C11.0528 35.879 10.9545 35.3018 10.9394 34.7873L10.8991 33.7007L10.8865 10.4181V10.4281Z" fill="#0075C9"/>
<path d="M36.9484 10.728C36.3476 10.5774 35.7694 10.4808 35.2505 10.4771L34.0954 10.4344L10.8008 10.4394L43.1518 42.6624L45.9934 36.278L36.9496 10.738L36.9484 10.728Z" fill="#0075C9"/>
<path d="M36.918 10.723C36.928 10.7268 36.9394 10.7293 36.9482 10.7318V10.7293C36.9381 10.7268 36.928 10.7268 36.918 10.723ZM42.0885 13.4622C40.9121 12.2827 38.83 11.2111 36.9495 10.7306L45.9932 36.2655L43.1491 42.6499L50.0768 40.4415L50.0919 21.4941L42.0759 13.4735L42.0885 13.4622Z" fill="#00A8E1"/>
<path d="M35.68 7.1506L29.8859 1.41998C28.5457 0.0986888 26.737 -0.314137 25.8402 0.50775L10.8008 10.4281L34.0954 10.4231L35.2505 10.4658C35.7707 10.4808 36.3463 10.5762 36.9484 10.7167L35.68 7.14057V7.1506Z" fill="#00C4B3"/>
</g>
<defs>
<clipPath id="clip0_75_569">
<rect width="50" height="50" fill="white"/>
</clipPath>
</defs>
</svg>
