<svg width="50" height="50" viewBox="0 0 50 50" fill="none" xmlns="http://www.w3.org/2000/svg">
<g clip-path="url(#clip0_75_699)">
<path d="M25 50C38.8071 50 50 38.8071 50 25C50 11.1929 38.8071 1.24539e-09 25 8.02292e-10C11.1929 3.59198e-10 -3.59198e-10 11.1929 -8.02292e-10 25C-1.24539e-09 38.8071 11.1929 50 25 50Z" fill="#0091E2"/>
<path d="M40.3955 22.5342C40.3174 22.4707 39.6094 21.9385 38.1152 21.9385C37.7197 21.9385 37.3242 21.9678 36.9336 22.041C36.6455 20.0537 35.0049 19.0869 34.9316 19.043L34.5312 18.8086L34.2676 19.1895C33.9355 19.7021 33.6963 20.2637 33.5547 20.8594C33.2861 21.9922 33.4473 23.0566 34.0234 23.9648C33.3301 24.3506 32.2119 24.4482 31.9873 24.4531L13.5254 24.4531C13.042 24.4531 12.6514 24.8438 12.6514 25.3271C12.6318 26.9434 12.9053 28.5498 13.457 30.0684C14.0918 31.7383 15.0391 32.9639 16.2695 33.7158C17.6465 34.5605 19.8877 35.0439 22.4316 35.0439C23.5791 35.0488 24.7266 34.9414 25.8545 34.7314C27.4219 34.4434 28.9307 33.8965 30.3174 33.1104C31.46 32.4463 32.4902 31.6064 33.3643 30.6152C34.8242 28.96 35.6982 27.1143 36.3477 25.4785L36.6064 25.4785C38.208 25.4785 39.1943 24.8389 39.7363 24.3018C40.0977 23.96 40.3809 23.5449 40.5615 23.0811L40.6738 22.7441L40.3955 22.5342V22.5342ZM15.2344 23.9209L17.71 23.9209C17.8271 23.9209 17.9248 23.8232 17.9248 23.7061L17.9248 21.5039C17.9248 21.3867 17.8271 21.2891 17.71 21.2842L15.2344 21.2842C15.1172 21.2842 15.0195 21.3818 15.0195 21.499L15.0195 23.7061C15.0195 23.8281 15.1172 23.9209 15.2344 23.9209M18.6475 23.9209L21.123 23.9209C21.2402 23.9209 21.3379 23.8232 21.3379 23.7061L21.3379 21.5039C21.3379 21.3867 21.2402 21.2891 21.123 21.2842L18.6475 21.2842C18.5254 21.2842 18.4277 21.3818 18.4277 21.5039L18.4277 23.7061C18.4277 23.8281 18.5254 23.9209 18.6475 23.9209ZM22.1045 23.9258L24.5801 23.9258C24.6973 23.9258 24.7949 23.8281 24.7949 23.7109L24.7949 21.5088C24.7949 21.3916 24.6973 21.2939 24.5801 21.2891L22.1045 21.2891C21.9873 21.2891 21.8896 21.3867 21.8896 21.5039L21.8896 23.7109C21.8896 23.8281 21.9873 23.9209 22.1045 23.9258M25.5273 23.9258L28.0029 23.9258C28.1201 23.9258 28.2178 23.8281 28.2227 23.7109L28.2227 21.5088C28.2227 21.3867 28.125 21.2891 28.0029 21.2891L25.5273 21.2891C25.4102 21.2891 25.3125 21.3867 25.3125 21.5039L25.3125 23.7109C25.3125 23.8281 25.4053 23.9258 25.5273 23.9258M18.6426 20.752L21.1182 20.752C21.2354 20.752 21.333 20.6543 21.333 20.5322L21.333 18.3301C21.333 18.2129 21.2354 18.1152 21.1182 18.1152L18.6426 18.1152C18.5205 18.1152 18.4277 18.2129 18.4229 18.3301L18.4229 20.5322C18.4277 20.6543 18.5254 20.752 18.6426 20.752ZM22.1045 20.752L24.5801 20.752C24.6973 20.752 24.7949 20.6543 24.7949 20.5322L24.7949 18.3301C24.7949 18.2129 24.6973 18.1152 24.5801 18.1152L22.1045 18.1152C21.9873 18.1152 21.8896 18.2129 21.8896 18.3301L21.8896 20.5322C21.8896 20.6543 21.9873 20.752 22.1045 20.752ZM25.5273 20.752L28.0029 20.752C28.125 20.752 28.2178 20.6543 28.2227 20.5322L28.2227 18.3301C28.2227 18.208 28.125 18.1152 28.0029 18.1152L25.5273 18.1152C25.4102 18.1152 25.3125 18.2129 25.3125 18.3301L25.3125 20.5322C25.3125 20.6543 25.4053 20.752 25.5273 20.752ZM25.5273 17.583L28.0029 17.583C28.125 17.583 28.2227 17.4854 28.2227 17.3633L28.2227 15.1562C28.2227 15.0391 28.125 14.9414 28.0029 14.9414L25.5273 14.9414C25.4102 14.9414 25.3125 15.0391 25.3125 15.1562L25.3125 17.3633C25.3125 17.4854 25.4053 17.583 25.5273 17.583ZM28.9746 23.9258L31.4502 23.9258C31.5674 23.9258 31.665 23.8281 31.665 23.7109L31.665 21.5088C31.665 21.3867 31.5674 21.2939 31.4502 21.2891L28.9746 21.2891C28.8574 21.2891 28.7598 21.3867 28.7598 21.5039L28.7598 23.7109C28.7598 23.8281 28.8574 23.9258 28.9746 23.9258" fill="white"/>
</g>
<defs>
<clipPath id="clip0_75_699">
<rect width="50" height="50" fill="white"/>
</clipPath>
</defs>
</svg>
