<svg width="35" height="35" viewBox="0 0 35 35" fill="none" xmlns="http://www.w3.org/2000/svg">
<g clip-path="url(#clip0_34_17)">
<path d="M34.9999 17.606C34.9791 14.2664 34.0031 11.0025 32.1872 8.19968C30.3713 5.39686 27.7913 3.17216 24.7519 1.78827C21.7124 0.404388 18.3405 -0.0808934 15.0342 0.389729C11.7278 0.860352 8.62519 2.26723 6.09261 4.44423C3.56003 6.62124 1.70326 9.47746 0.741546 12.6757C-0.22017 15.8738 -0.246672 19.2804 0.66517 22.4932C1.57701 25.706 3.38912 28.5907 5.88752 30.8069C8.38593 33.023 11.4663 34.478 14.7649 35V22.7H10.3199V17.61H14.7659V13.727C14.7659 9.315 17.3769 6.878 21.3759 6.878C22.6886 6.89646 23.9981 7.01144 25.2939 7.222V11.553H23.0849C22.7076 11.5041 22.3242 11.5408 21.9629 11.6602C21.6017 11.7795 21.272 11.9786 20.9981 12.2427C20.7243 12.5068 20.5133 12.8291 20.3808 13.1857C20.2484 13.5423 20.1978 13.9242 20.2329 14.303V17.603H25.0869L24.3109 22.693H20.2369V34.993C24.3629 34.323 28.1152 32.2048 30.8207 29.0185C33.5261 25.8321 35.0078 21.786 34.9999 17.606Z" fill="#7E6300"/>
</g>
<defs>
<clipPath id="clip0_34_17">
<rect width="35" height="35" fill="white"/>
</clipPath>
</defs>
</svg>
