<svg width="33" height="49" viewBox="0 0 33 49" fill="none" xmlns="http://www.w3.org/2000/svg">
<g clip-path="url(#clip0_75_676)">
<path d="M8.25177 49C12.8049 49 16.5001 45.3414 16.5001 40.8334L16.5001 32.6667L8.25177 32.6667C3.69868 32.6667 0.00341797 36.3254 0.00341797 40.8334C0.00341797 45.3414 3.69868 49 8.25177 49Z" fill="#0ACF83"/>
<path d="M0.00341797 24.5C0.00341797 19.992 3.69868 16.3333 8.25177 16.3333L16.5001 16.3333L16.5001 32.6666L8.25177 32.6666C3.69868 32.6666 0.00341797 29.008 0.00341797 24.5Z" fill="#A259FF"/>
<path d="M0.00341797 8.16667C0.00341797 3.65867 3.69868 1.18587e-10 8.25177 2.64703e-10L16.5001 5.29407e-10L16.5001 16.3333L8.25177 16.3333C3.69868 16.3333 0.00341797 12.6747 0.00341797 8.16667Z" fill="#F24E1E"/>
<path d="M16.5 0L24.7484 2.64703e-10C29.3014 4.10819e-10 32.9967 3.65867 32.9967 8.16667C32.9967 12.6747 29.3014 16.3333 24.7484 16.3333L16.5 16.3333L16.5 0Z" fill="#FF7262"/>
<path d="M32.9967 24.5C32.9967 29.008 29.3014 32.6666 24.7484 32.6666C20.1953 32.6666 16.5 29.008 16.5 24.5C16.5 19.992 20.1953 16.3333 24.7484 16.3333C29.3014 16.3333 32.9967 19.992 32.9967 24.5Z" fill="#1ABCFE"/>
</g>
<defs>
<clipPath id="clip0_75_676">
<rect width="33" height="49" fill="white"/>
</clipPath>
</defs>
</svg>
