<svg width="50" height="50" viewBox="0 0 50 50" fill="none" xmlns="http://www.w3.org/2000/svg">
<g clip-path="url(#clip0_76_783)">
<path d="M30.6563 18.0594L25.6516 22.7156L21.0078 13.3485L23.4109 7.96096C24.0359 6.86721 25.0109 6.87971 25.6203 7.96096L30.6563 18.0594Z" fill="#FFA000"/>
<path d="M21.0076 13.3484L25.6514 22.7156L6.94824 40.1141L21.0076 13.3484Z" fill="#F57F17"/>
<path d="M36.1295 10.9422C37.0232 10.0828 37.9482 10.3765 38.1842 11.5937L43.0529 39.8828L26.9154 49.5703C26.3529 49.8828 24.8529 50.0172 24.8529 50.0172C24.8529 50.0172 23.4873 49.8547 22.967 49.5484L6.94824 40.114L36.1295 10.9422Z" fill="#FFCA28"/>
<path d="M21.008 13.3486L6.9502 40.1142L13.2111 0.997012C13.4424 -0.221738 14.1361 -0.338926 14.7549 0.736074L21.008 13.3486Z" fill="#FFA000"/>
</g>
<defs>
<clipPath id="clip0_76_783">
<rect width="50" height="50" fill="white"/>
</clipPath>
</defs>
</svg>
