<svg width="50" height="50" viewBox="0 0 50 50" fill="none" xmlns="http://www.w3.org/2000/svg">
<mask id="mask0_75_583" style="mask-type:luminance" maskUnits="userSpaceOnUse" x="4" y="0" width="42" height="50">
<path d="M45.0646 23.0719L31.6056 36.5358L45.0646 49.9996H29.6849L16.2211 36.5358L29.6849 23.0719H45.0646ZM29.6849 0L4.6875 24.9974L12.3797 32.6896L45.0646 0H29.6849V0Z" fill="white"/>
</mask>
<g mask="url(#mask0_75_583)">
<path d="M16.2261 36.5357L23.9135 44.228L45.0648 23.0719H29.6851L16.2261 36.5357Z" fill="#39CEFD"/>
</g>
<mask id="mask1_75_583" style="mask-type:luminance" maskUnits="userSpaceOnUse" x="4" y="0" width="42" height="50">
<path d="M45.0646 23.0719L31.6056 36.5358L45.0646 49.9996H29.6849L16.2211 36.5358L29.6849 23.0719H45.0646ZM29.6849 0L4.6875 24.9974L12.3797 32.6896L45.0646 0H29.6849V0Z" fill="white"/>
</mask>
<g mask="url(#mask1_75_583)">
<path d="M29.6849 0H45.0646L12.3797 32.6896L4.6875 24.9974L29.6849 0Z" fill="#39CEFD"/>
</g>
<mask id="mask2_75_583" style="mask-type:luminance" maskUnits="userSpaceOnUse" x="4" y="0" width="42" height="50">
<path d="M45.0646 23.0719L31.6056 36.5358L45.0646 49.9996H29.6849L16.2211 36.5358L29.6849 23.0719H45.0646ZM29.6849 0L4.6875 24.9974L12.3797 32.6896L45.0646 0H29.6849V0Z" fill="white"/>
</mask>
<g mask="url(#mask2_75_583)">
<path d="M23.9131 44.228L29.6847 49.9948H45.0644L31.6053 36.5358L23.9131 44.228Z" fill="#03569B"/>
</g>
<mask id="mask3_75_583" style="mask-type:luminance" maskUnits="userSpaceOnUse" x="4" y="0" width="42" height="50">
<path d="M45.0646 23.0719L31.6056 36.5358L45.0646 49.9996H29.6849L16.2211 36.5358L29.6849 23.0719H45.0646ZM29.6849 0L4.6875 24.9974L12.3797 32.6896L45.0646 0H29.6849V0Z" fill="white"/>
</mask>
<g mask="url(#mask3_75_583)">
<path d="M35.3215 40.276L31.6053 36.5358L23.9131 44.228L35.3215 40.276Z" fill="url(#paint0_linear_75_583)"/>
</g>
<mask id="mask4_75_583" style="mask-type:luminance" maskUnits="userSpaceOnUse" x="4" y="0" width="42" height="50">
<path d="M45.0646 23.0719L31.6056 36.5358L45.0646 49.9996H29.6849L16.2211 36.5358L29.6849 23.0719H45.0646ZM29.6849 0L4.6875 24.9974L12.3797 32.6896L45.0646 0H29.6849V0Z" fill="white"/>
</mask>
<g mask="url(#mask4_75_583)">
<path d="M16.2251 36.5331L23.9175 28.8406L31.6105 36.5331L23.9175 44.2256L16.2251 36.5331Z" fill="#16B9FD"/>
</g>
<path d="M45.0646 23.0719L31.6056 36.5358L45.0646 49.9996H29.6849L16.2211 36.5358L29.6849 23.0719H45.0646ZM29.6849 0L4.6875 24.9974L12.3797 32.6896L45.0646 0H29.6849Z" fill="url(#paint1_radial_75_583)"/>
<defs>
<linearGradient id="paint0_linear_75_583" x1="26.1579" y1="45.7125" x2="31.8869" y2="39.9835" gradientUnits="userSpaceOnUse">
<stop stop-color="#1A237E" stop-opacity="0.4"/>
<stop offset="1" stop-color="#1A237E" stop-opacity="0"/>
</linearGradient>
<radialGradient id="paint1_radial_75_583" cx="0" cy="0" r="1" gradientUnits="userSpaceOnUse" gradientTransform="translate(5.82183 3.40783) scale(61.1684 61.1684)">
<stop stop-color="white" stop-opacity="0.1"/>
<stop offset="1" stop-color="white" stop-opacity="0"/>
</radialGradient>
</defs>
</svg>
