<svg id="Layer_1" viewBox="0 0 512 512" xmlns="http://www.w3.org/2000/svg" data-name="Layer 1"><path d="m280.948 360.548h-120.431c-1.426 0-2.5-.579-3.285-1.769s-.893-2.406-.331-3.717c6.983-16.274 10.855-39.78 3.767-55.605-4.205-9.387-13.413-15.621-23.458-15.884-8.802-.241-16.459 4.289-20.455 12.09-3.067 5.989-3.811 13.259-4.31 20.191-2.639 36.65-22.451 44.596-58.068 45.762-2.217-4.186-6.614-7.047-11.671-7.047h-24.502c-7.281 0-13.204 5.924-13.204 13.205v122.856c0 7.28 5.923 13.204 13.204 13.204h24.502c5.74 0 10.622-3.688 12.438-8.813 15.889 7.879 34.919 11.978 47.047 11.978h78.677c11.959 0 21.688-9.729 21.688-21.688 0-5.205-1.845-9.987-4.913-13.729 5.711-4.021 9.453-10.659 9.453-18.16 0-6.197-2.555-11.806-6.664-15.837 4.814-4.198 7.866-10.369 7.866-17.243 0-3.936-1-7.644-2.758-10.882h75.407c13.486 0 24.457-10.972 24.457-24.457s-10.971-24.457-24.457-24.457zm-237.038 130.083c0 .652-.551 1.204-1.204 1.204h-24.502c-.653 0-1.204-.552-1.204-1.204v-122.856c0-.653.551-1.205 1.204-1.205h24.502c.653 0 1.204.552 1.204 1.205zm237.038-93.169h-99.565c-3.313 0-6 2.687-6 6s2.687 6 6 6h4.034c6 0 10.881 4.882 10.881 10.882s-4.881 10.881-10.881 10.881h-4.718c-3.313 0-6 2.687-6 6s2.687 6 6 6h4.199c5.624 0 10.199 4.575 10.199 10.199s-4.575 10.2-10.199 10.2h-4.029c-3.313 0-6 2.687-6 6s2.687 6 6 6c5.342 0 9.688 4.347 9.688 9.688 0 5.342-4.346 9.688-9.688 9.688h-78.678c-11.601 0-31.521-4.627-46.281-13.196v-108.235c38.895-1.491 65.29-12.204 68.504-56.854.41-5.7.981-11.599 3.021-15.582 2.556-4.991 7.035-5.636 9.461-5.564 4.473.116 10.171 2.881 12.82 8.794 5.324 11.887 2.097 32.123-3.843 45.968-2.151 5.012-1.663 10.498 1.339 15.053 3.001 4.553 7.851 7.164 13.304 7.164h120.431c6.869 0 12.457 5.588 12.457 12.457s-5.588 12.457-12.457 12.457zm212.848-389.296h-24.502c-5.74 0-10.622 3.688-12.438 8.813-15.889-7.88-34.919-11.979-47.047-11.979h-78.677c-11.959 0-21.688 9.729-21.688 21.688 0 5.056 1.732 9.855 4.917 13.726-5.713 4.021-9.457 10.66-9.457 18.162 0 6.197 2.555 11.806 6.664 15.837-4.814 4.198-7.866 10.369-7.866 17.244 0 3.936 1 7.643 2.757 10.881h-75.407c-13.486 0-24.457 10.972-24.457 24.458s10.971 24.456 24.457 24.456h120.431c1.426 0 2.5.579 3.286 1.771.784 1.189.892 2.405.33 3.716-6.983 16.275-10.856 39.78-3.768 55.604 4.205 9.387 13.413 15.622 23.459 15.884.214.006.427.009.641.009 8.541 0 15.915-4.487 19.813-12.098 3.067-5.989 3.811-13.26 4.31-20.192 2.639-36.649 22.451-44.595 58.068-45.762 2.217 4.186 6.614 7.047 11.671 7.047h24.502c7.281 0 13.204-5.924 13.204-13.204v-122.858c0-7.28-5.923-13.203-13.204-13.203zm-106.21 187.118c-.41 5.701-.981 11.6-3.021 15.583-2.556 4.989-7.016 5.613-9.46 5.564-4.473-.117-10.172-2.882-12.821-8.795-5.324-11.886-2.096-32.121 3.844-45.968 2.15-5.013 1.662-10.499-1.339-15.051-3.001-4.554-7.851-7.166-13.305-7.166h-120.431c-6.869 0-12.457-5.588-12.457-12.456s5.588-12.458 12.457-12.458h99.565c3.313 0 6-2.687 6-6s-2.687-6-6-6h-4.035c-6 0-10.881-4.881-10.881-10.881s4.881-10.882 10.881-10.882h4.719c3.313 0 6-2.687 6-6s-2.687-6-6-6h-4.199c-5.624 0-10.199-4.575-10.199-10.199s4.575-10.2 10.199-10.2h4.03c3.314 0 6-2.687 6-6.001 0-3.313-2.687-5.999-6-5.999-2.57 0-4.998-1.012-6.836-2.851-1.838-1.838-2.851-4.267-2.851-6.837 0-5.342 4.346-9.688 9.688-9.688h78.677c11.6 0 31.519 4.627 46.281 13.197v108.234c-38.895 1.492-65.29 12.206-68.504 56.853zm107.415-51.058c0 .652-.551 1.204-1.204 1.204h-24.502c-.653 0-1.204-.552-1.204-1.204v-122.857c0-.652.551-1.203 1.204-1.203h24.502c.653 0 1.204.551 1.204 1.203zm-144.123 105.773h-8.143c-2.957-43.17-37.565-77.777-80.735-80.734v-8.142c0-3.313-2.687-6-6-6s-6 2.687-6 6v8.142c-43.17 2.957-77.778 37.565-80.735 80.734h-8.143c-3.313 0-6 2.687-6 6s2.687 6 6 6h8.143c2.957 43.171 37.565 77.778 80.735 80.735v8.142c0 3.313 2.687 6 6 6s6-2.687 6-6v-8.142c43.17-2.957 77.778-37.565 80.735-80.735h8.143c3.313 0 6-2.687 6-6s-2.687-6-6-6zm-20.193 0h-21.19c-2.775-24.9-22.594-44.719-47.494-47.493v-21.19c36.546 2.911 65.772 32.138 68.684 68.684zm-69.093 47.452c-.869-2.243-3.042-3.836-5.591-3.836s-4.722 1.593-5.591 3.836c-18.603-2.497-33.364-17.258-35.861-35.861 2.243-.869 3.836-3.042 3.836-5.591s-1.593-4.722-3.836-5.591c2.497-18.602 17.258-33.363 35.861-35.86.869 2.242 3.042 3.835 5.591 3.835s4.722-1.593 5.591-3.835c18.603 2.497 33.364 17.258 35.861 35.86-2.243.869-3.836 3.042-3.836 5.591s1.593 4.722 3.836 5.591c-2.497 18.603-17.258 33.364-35.861 35.861zm-11.591-116.136v21.19c-24.9 2.775-44.719 22.594-47.494 47.493h-21.19c2.912-36.546 32.138-65.772 68.684-68.684zm-68.684 80.684h21.19c2.775 24.9 22.594 44.719 47.494 47.494v21.19c-36.546-2.912-65.772-32.139-68.684-68.685zm80.684 68.685v-21.19c24.9-2.775 44.719-22.594 47.494-47.494h21.19c-2.912 36.546-32.138 65.773-68.684 68.685zm81.453 101.116c1.307 3.046-.103 6.573-3.148 7.88l-9.305 3.992c-.771.331-1.574.488-2.363.488-2.327 0-4.541-1.362-5.517-3.636-1.307-3.046.103-6.573 3.148-7.88l9.305-3.992c3.045-1.307 6.573.104 7.879 3.147zm-48.48 16.646c.474 3.279-1.801 6.322-5.081 6.796l-10.021 1.447c-.291.042-.58.062-.865.062-2.934 0-5.5-2.154-5.931-5.144-.474-3.279 1.801-6.322 5.081-6.796l10.021-1.447c3.284-.471 6.323 1.801 6.796 5.081zm-51.137 3.528c-.363 3.05-2.954 5.293-5.951 5.293-.236 0-.475-.015-.716-.043l-10.054-1.195c-3.291-.392-5.641-3.376-5.25-6.666s3.371-5.642 6.667-5.25l10.054 1.195c3.291.392 5.641 3.376 5.25 6.666zm201.659-125.705-3.756 9.401c-.938 2.347-3.192 3.775-5.574 3.775-.741 0-1.494-.139-2.224-.431-3.077-1.229-4.575-4.721-3.346-7.798l3.756-9.401c1.229-3.076 4.721-4.575 7.798-3.345 3.077 1.229 4.575 4.721 3.346 7.798zm11.73-51.439-1.195 10.054c-.363 3.05-2.954 5.293-5.951 5.293-.236 0-.475-.015-.716-.043-3.291-.392-5.641-3.376-5.25-6.666l1.195-10.054c.392-3.29 3.375-5.643 6.667-5.25 3.291.392 5.641 3.376 5.25 6.666zm-13.86-51.007c-.474-3.28 1.801-6.323 5.081-6.797 3.289-.471 6.323 1.802 6.796 5.08l1.448 10.021c.474 3.28-1.801 6.323-5.081 6.797-.291.042-.58.062-.865.062-2.934 0-5.499-2.154-5.931-5.143l-1.448-10.021zm-10.721-38.093-3.991-9.305c-1.306-3.045.104-6.573 3.149-7.879 3.045-1.308 6.573.103 7.879 3.148l3.991 9.305c1.306 3.045-.104 6.573-3.149 7.879-.771.331-1.573.488-2.362.488-2.327 0-4.542-1.362-5.517-3.637zm-11.793 187.19-6.062 8.108c-1.178 1.576-2.983 2.407-4.811 2.407-1.25 0-2.51-.389-3.588-1.194-2.654-1.984-3.197-5.744-1.213-8.398l6.062-8.108c1.984-2.653 5.744-3.196 8.398-1.213 2.654 1.984 3.197 5.744 1.213 8.398zm-34.876 30.256c2.05 2.604 1.602 6.376-1.002 8.426l-7.955 6.264c-1.1.866-2.409 1.286-3.708 1.286-1.776 0-3.534-.784-4.718-2.288-2.05-2.604-1.602-6.376 1.002-8.426l7.955-6.264c2.604-2.05 6.376-1.603 8.426 1.002zm-259.951-294.353c-2.05-2.604-1.602-6.376 1.002-8.426l7.955-6.264c2.604-2.05 6.375-1.603 8.426 1.002 2.05 2.604 1.602 6.376-1.002 8.426l-7.955 6.264c-1.1.866-2.409 1.286-3.708 1.286-1.776 0-3.534-.784-4.718-2.288zm-34.876 30.257 6.062-8.108c1.984-2.653 5.744-3.195 8.398-1.213 2.654 1.984 3.197 5.744 1.212 8.398l-6.062 8.108c-1.178 1.576-2.983 2.407-4.81 2.407-1.25 0-2.51-.389-3.588-1.194-2.654-1.984-3.197-5.744-1.212-8.398zm77.396-58.882c-1.306-3.045.104-6.573 3.149-7.879l9.305-3.991c3.044-1.307 6.573.103 7.879 3.148s-.104 6.573-3.149 7.879l-9.305 3.991c-.771.331-1.573.488-2.362.488-2.327 0-4.542-1.362-5.517-3.637zm48.481-16.645c-.474-3.279 1.801-6.322 5.081-6.796l10.021-1.447c3.278-.476 6.323 1.801 6.796 5.081.474 3.279-1.801 6.322-5.081 6.796l-10.02 1.447c-.291.042-.58.062-.865.062-2.934 0-5.5-2.154-5.931-5.144zm51.137-3.528c.392-3.291 3.378-5.633 6.667-5.25l10.053 1.195c3.291.392 5.641 3.376 5.25 6.666-.363 3.05-2.954 5.293-5.951 5.293-.236 0-.475-.015-.716-.043l-10.053-1.195c-3.291-.392-5.641-3.376-5.25-6.666zm-213.388 177.146 1.195-10.054c.391-3.29 3.376-5.643 6.667-5.25 3.291.392 5.641 3.376 5.25 6.666l-1.195 10.054c-.363 3.05-2.954 5.293-5.951 5.293-.236 0-.475-.015-.716-.043-3.291-.392-5.641-3.376-5.25-6.666zm24.581 89.1 3.991 9.305c1.306 3.045-.104 6.573-3.149 7.879-.771.331-1.573.488-2.362.488-2.327 0-4.542-1.362-5.517-3.637l-3.991-9.305c-1.306-3.045.104-6.573 3.149-7.879 3.045-1.309 6.573.103 7.879 3.148zm-12.851-140.54 3.757-9.401c1.23-3.076 4.72-4.576 7.798-3.345 3.077 1.229 4.575 4.721 3.345 7.798l-3.757 9.401c-.938 2.347-3.192 3.775-5.574 3.775-.741 0-1.494-.139-2.225-.431-3.077-1.229-4.575-4.721-3.345-7.798zm2.13 102.447c.474 3.279-1.801 6.322-5.081 6.796-.291.042-.58.062-.865.062-2.934 0-5.5-2.154-5.931-5.144l-1.447-10.021c-.474-3.279 1.801-6.322 5.081-6.796 3.281-.471 6.322 1.802 6.796 5.081l1.447 10.021zm187.365-51.678c-10.752 0-19.5 8.748-19.5 19.5s8.748 19.5 19.5 19.5 19.5-8.748 19.5-19.5-8.748-19.5-19.5-19.5zm0 27c-4.136 0-7.5-3.364-7.5-7.5s3.364-7.5 7.5-7.5 7.5 3.364 7.5 7.5-3.364 7.5-7.5 7.5z"/></svg>