<svg width="35" height="35" viewBox="0 0 35 35" fill="none" xmlns="http://www.w3.org/2000/svg">
<g clip-path="url(#clip0_34_9)">
<path d="M11.7071 28.181C11.7071 28.326 11.5451 28.442 11.3401 28.442C11.1071 28.464 10.9401 28.348 10.9401 28.181C10.9401 28.036 11.1021 27.92 11.3071 27.92C11.5231 27.899 11.7071 28.015 11.7071 28.181ZM9.51208 27.855C9.46308 28 9.60408 28.166 9.81208 28.21C9.88943 28.2487 9.97893 28.2551 10.061 28.2279C10.1431 28.2008 10.2111 28.1422 10.2501 28.065C10.2921 27.92 10.1581 27.754 9.95008 27.689C9.86919 27.6595 9.78039 27.6602 9.69995 27.6909C9.61951 27.7215 9.55281 27.7802 9.51208 27.856V27.855ZM12.6311 27.732C12.4311 27.783 12.2851 27.92 12.3061 28.087C12.3271 28.232 12.5061 28.326 12.7221 28.275C12.9381 28.224 13.0681 28.087 13.0471 27.942C13.0261 27.797 12.8361 27.711 12.6311 27.737V27.732ZM17.2741 8.80647e-06C7.48708 8.80647e-06 8.23522e-05 7.62001 8.23522e-05 17.658C-0.0564447 21.4297 1.06564 25.1249 3.20981 28.2284C5.35399 31.3318 8.41332 33.6886 11.9611 34.97C12.8611 35.136 13.1821 34.565 13.1821 34.094C13.1821 33.645 13.1611 31.17 13.1611 29.65C13.1611 29.65 8.22108 30.736 7.18408 27.493C7.18408 27.493 6.38408 25.387 5.22208 24.844C5.22208 24.844 3.60608 23.708 5.33508 23.729C5.90246 23.8087 6.44367 24.0188 6.91627 24.3427C7.38887 24.6666 7.78003 25.0956 8.05908 25.596C8.28565 26.0441 8.60156 26.441 8.98735 26.7623C9.37314 27.0837 9.82063 27.3226 10.3023 27.4645C10.7839 27.6063 11.2895 27.648 11.7878 27.5871C12.2862 27.5261 12.7668 27.3638 13.2001 27.11C13.2888 26.1925 13.6869 25.3323 14.3291 24.671C10.3841 24.222 6.40508 23.636 6.40508 16.671C6.36402 15.883 6.49126 15.0952 6.77835 14.3601C7.06544 13.6251 7.50578 12.9596 8.07008 12.408C7.53651 10.8023 7.60259 9.05773 8.25608 7.49701C9.73108 7.02701 13.1251 9.45101 13.1251 9.45101C16.0225 8.63077 19.0907 8.63077 21.9881 9.45101C21.9881 9.45101 25.3821 7.01901 26.8571 7.49701C27.5103 9.05898 27.5754 10.8048 27.0401 12.411C27.6258 12.954 28.0906 13.6142 28.4043 14.3487C28.718 15.0832 28.8737 15.8754 28.8611 16.674C28.8611 23.658 24.7051 24.215 20.7611 24.674C21.1876 25.1168 21.5151 25.6451 21.722 26.224C21.9289 26.8029 22.0104 27.4192 21.9611 28.032C21.9611 30.471 21.9401 33.489 21.9401 34.082C21.9401 34.552 22.2651 35.124 23.1611 34.958C30.2161 32.553 35.0001 25.685 35.0001 17.658C35.0194 15.328 34.5736 13.0176 33.6888 10.862C32.804 8.70645 31.4979 6.74913 29.8471 5.10467C28.1963 3.46022 26.234 2.1617 24.0751 1.28517C21.9161 0.408642 19.604 -0.0282762 17.2741 8.80647e-06ZM6.85908 24.961C6.76708 25.033 6.78808 25.2 6.90808 25.337C7.02108 25.453 7.18308 25.503 7.27508 25.409C7.36708 25.337 7.34608 25.17 7.22608 25.033C7.11308 24.917 6.95108 24.867 6.85908 24.961ZM6.10008 24.375C6.05108 24.469 6.12108 24.585 6.26208 24.657C6.28471 24.6745 6.31072 24.6871 6.33846 24.694C6.3662 24.7009 6.39507 24.702 6.42325 24.6972C6.45144 24.6924 6.47832 24.6818 6.50222 24.6661C6.52611 24.6505 6.54649 24.63 6.56208 24.606C6.61108 24.512 6.54108 24.396 6.40008 24.324C6.25908 24.281 6.14608 24.302 6.10008 24.375ZM8.38608 26.951C8.27308 27.045 8.31508 27.262 8.47808 27.4C8.64008 27.566 8.84508 27.588 8.93708 27.472C9.02908 27.378 8.98608 27.161 8.84508 27.023C8.68608 26.857 8.47508 26.837 8.38308 26.951H8.38608ZM7.58608 25.887C7.47308 25.959 7.47308 26.148 7.58608 26.314C7.69908 26.48 7.88608 26.553 7.98608 26.48C8.04146 26.4183 8.07209 26.3384 8.07209 26.2555C8.07209 26.1726 8.04146 26.0927 7.98608 26.031C7.87508 25.866 7.69208 25.793 7.57908 25.887H7.58608Z" fill="#7E6300"/>
<path d="M11.7071 28.181C11.7071 28.326 11.5451 28.442 11.3401 28.442C11.1071 28.464 10.9401 28.348 10.9401 28.181C10.9401 28.036 11.1021 27.92 11.3071 27.92C11.5231 27.899 11.7071 28.015 11.7071 28.181ZM9.51208 27.855C9.46308 28 9.60408 28.166 9.81208 28.21C9.88943 28.2487 9.97893 28.2551 10.061 28.2279C10.1431 28.2008 10.2111 28.1422 10.2501 28.065C10.2921 27.92 10.1581 27.754 9.95008 27.689C9.86919 27.6595 9.78039 27.6602 9.69995 27.6909C9.61951 27.7215 9.55281 27.7802 9.51208 27.856V27.855ZM12.6311 27.732C12.4311 27.783 12.2851 27.92 12.3061 28.087C12.3271 28.232 12.5061 28.326 12.7221 28.275C12.9381 28.224 13.0681 28.087 13.0471 27.942C13.0261 27.797 12.8361 27.711 12.6311 27.737V27.732ZM17.2741 8.80647e-06C7.48708 8.80647e-06 8.23522e-05 7.62001 8.23522e-05 17.658C-0.0564447 21.4297 1.06564 25.1249 3.20981 28.2284C5.35399 31.3318 8.41332 33.6886 11.9611 34.97C12.8611 35.136 13.1821 34.565 13.1821 34.094C13.1821 33.645 13.1611 31.17 13.1611 29.65C13.1611 29.65 8.22108 30.736 7.18408 27.493C7.18408 27.493 6.38408 25.387 5.22208 24.844C5.22208 24.844 3.60608 23.708 5.33508 23.729C5.90246 23.8087 6.44367 24.0188 6.91627 24.3427C7.38887 24.6666 7.78003 25.0956 8.05908 25.596C8.28565 26.0441 8.60156 26.441 8.98735 26.7623C9.37314 27.0837 9.82063 27.3226 10.3023 27.4645C10.7839 27.6063 11.2895 27.648 11.7878 27.5871C12.2862 27.5261 12.7668 27.3638 13.2001 27.11C13.2888 26.1925 13.6869 25.3323 14.3291 24.671C10.3841 24.222 6.40508 23.636 6.40508 16.671C6.36402 15.883 6.49126 15.0952 6.77835 14.3601C7.06544 13.6251 7.50578 12.9596 8.07008 12.408C7.53651 10.8023 7.60259 9.05773 8.25608 7.49701C9.73108 7.02701 13.1251 9.45101 13.1251 9.45101C16.0225 8.63077 19.0907 8.63077 21.9881 9.45101C21.9881 9.45101 25.3821 7.01901 26.8571 7.49701C27.5103 9.05898 27.5754 10.8048 27.0401 12.411C27.6258 12.954 28.0906 13.6142 28.4043 14.3487C28.718 15.0832 28.8737 15.8754 28.8611 16.674C28.8611 23.658 24.7051 24.215 20.7611 24.674C21.1876 25.1168 21.5151 25.6451 21.722 26.224C21.9289 26.8029 22.0104 27.4192 21.9611 28.032C21.9611 30.471 21.9401 33.489 21.9401 34.082C21.9401 34.552 22.2651 35.124 23.1611 34.958C30.2161 32.553 35.0001 25.685 35.0001 17.658C35.0194 15.328 34.5736 13.0176 33.6888 10.862C32.804 8.70645 31.4979 6.74913 29.8471 5.10467C28.1963 3.46022 26.234 2.1617 24.0751 1.28517C21.9161 0.408642 19.604 -0.0282762 17.2741 8.80647e-06ZM6.85908 24.961C6.76708 25.033 6.78808 25.2 6.90808 25.337C7.02108 25.453 7.18308 25.503 7.27508 25.409C7.36708 25.337 7.34608 25.17 7.22608 25.033C7.11308 24.917 6.95108 24.867 6.85908 24.961ZM6.10008 24.375C6.05108 24.469 6.12108 24.585 6.26208 24.657C6.28471 24.6745 6.31072 24.6871 6.33846 24.694C6.3662 24.7009 6.39507 24.702 6.42325 24.6972C6.45144 24.6924 6.47832 24.6818 6.50222 24.6661C6.52611 24.6505 6.54649 24.63 6.56208 24.606C6.61108 24.512 6.54108 24.396 6.40008 24.324C6.25908 24.281 6.14608 24.302 6.10008 24.375ZM8.38608 26.951C8.27308 27.045 8.31508 27.262 8.47808 27.4C8.64008 27.566 8.84508 27.588 8.93708 27.472C9.02908 27.378 8.98608 27.161 8.84508 27.023C8.68608 26.857 8.47508 26.837 8.38308 26.951H8.38608ZM7.58608 25.887C7.47308 25.959 7.47308 26.148 7.58608 26.314C7.69908 26.48 7.88608 26.553 7.98608 26.48C8.04146 26.4183 8.07209 26.3384 8.07209 26.2555C8.07209 26.1726 8.04146 26.0927 7.98608 26.031C7.87508 25.866 7.69208 25.793 7.57908 25.887H7.58608Z" fill="#7E6300"/>
</g>
<defs>
<clipPath id="clip0_34_9">
<rect width="35" height="35" fill="white"/>
</clipPath>
</defs>
</svg>
