<svg width="35" height="35" viewBox="0 0 35 35" fill="none" xmlns="http://www.w3.org/2000/svg">
<path d="M17.5 0C7.8277 0 0 7.82694 0 17.5C0 27.1723 7.82694 35 17.5 35C27.1723 35 35 27.1731 35 17.5C35 7.8277 27.1731 0 17.5 0ZM10.7287 3.60616C10.1992 5.04848 9.75461 6.51465 9.39579 8.00133C8.34709 7.6827 7.31548 7.30064 6.30301 6.85549C7.58502 5.5086 9.07895 4.41191 10.7287 3.60616ZM4.94498 8.49297C6.2555 9.09986 7.59671 9.60723 8.96465 10.0142C8.56775 12.1328 8.3408 14.2892 8.28693 16.4746H2.0851C2.27397 13.5734 3.26266 10.8274 4.94498 8.49297ZM4.94498 26.507C3.26266 24.1726 2.27397 21.4266 2.0851 18.5254H8.28693C8.3408 20.7108 8.56775 22.8672 8.96465 24.9858C7.59671 25.3928 6.25557 25.9001 4.94498 26.507ZM6.30301 28.1446C7.31548 27.6994 8.34702 27.3173 9.39579 26.9987C9.75468 28.4854 10.1992 29.9516 10.7287 31.3939C9.07977 30.5886 7.5857 29.4921 6.30301 28.1446ZM16.4746 32.9149C15.3977 32.8448 14.342 32.665 13.3208 32.38C12.5098 30.4577 11.8624 28.4868 11.3796 26.4763C13.0419 26.1046 14.7428 25.8873 16.4746 25.8258V32.9149ZM16.4746 23.7738C14.5983 23.8358 12.7555 24.0682 10.9545 24.4694C10.5967 22.5192 10.3906 20.5353 10.3384 18.5254H16.4746V23.7738ZM16.4746 16.4746H10.3384C10.3906 14.4647 10.5967 12.4808 10.9545 10.5306C12.7555 10.9318 14.5983 11.1642 16.4746 11.2262V16.4746ZM16.4746 9.17417C14.7428 9.11271 13.0419 8.8954 11.3796 8.52373C11.8624 6.51321 12.5098 4.54228 13.3208 2.62001C14.342 2.33495 15.3977 2.15517 16.4746 2.0851V9.17417ZM30.055 8.49297C31.7373 10.8274 32.726 13.5734 32.9149 16.4746H26.7131C26.6592 14.2892 26.4322 12.1328 26.0354 10.0142C27.4033 9.60723 28.7444 9.09986 30.055 8.49297ZM28.697 6.85542C27.6845 7.30064 26.653 7.6827 25.6042 8.00126C25.2453 6.51458 24.8008 5.04841 24.2713 3.60609C25.9202 4.41144 27.4143 5.50792 28.697 6.85542ZM18.5254 2.0851C19.6023 2.15517 20.658 2.33495 21.6792 2.62001C22.4902 4.54228 23.1376 6.51321 23.6204 8.52373C21.9581 8.8954 20.2572 9.11271 18.5254 9.17417V2.0851ZM18.5254 11.2262C20.4017 11.1642 22.2445 10.9318 24.0455 10.5306C24.4033 12.4808 24.6094 14.4647 24.6616 16.4746H18.5254V11.2262ZM21.6791 32.3799C20.658 32.665 19.6023 32.8448 18.5254 32.9149V25.8258C20.2572 25.8873 21.9581 26.1046 23.6204 26.4763C23.1375 28.4868 22.4902 30.4577 21.6791 32.3799ZM18.5254 23.7738V18.5254H24.6616C24.6094 20.5353 24.4033 22.5192 24.0455 24.4694C22.2445 24.0682 20.4017 23.8358 18.5254 23.7738ZM24.2713 31.3938C24.8008 29.9515 25.2454 28.4854 25.6042 26.9987C26.6529 27.3173 27.6845 27.6994 28.697 28.1445C27.415 29.4914 25.9211 30.5881 24.2713 31.3938ZM30.055 26.507C28.7445 25.9001 27.4033 25.3928 26.0354 24.9858C26.4322 22.8672 26.6592 20.7108 26.7131 18.5254H32.9149C32.726 21.4266 31.7373 24.1726 30.055 26.507Z" fill="#7E6300"/>
</svg>
