<svg width="50" height="50" viewBox="0 0 50 50" fill="none" xmlns="http://www.w3.org/2000/svg">
<g clip-path="url(#clip0_75_740)">
<path d="M6.80062 38.1067L4.96729 37.0467L25.414 1.63336L27.2473 2.69336L6.80062 38.1067Z" fill="#E10098"/>
<path d="M4.5459 34.2167H45.4426V36.3367H4.5459V34.2167Z" fill="#E10098"/>
<path d="M25.811 47.22L5.35596 35.41L6.41596 33.5767L26.871 45.3867L25.811 47.22ZM43.581 16.4367L23.1243 4.62832L24.1843 2.79498L44.6393 14.605L43.581 16.4367Z" fill="#E10098"/>
<path d="M6.42084 16.43L5.36084 14.5967L25.8342 2.78333L26.8942 4.61666L6.42084 16.43Z" fill="#E10098"/>
<path d="M43.2042 38.1067L22.7542 2.69L24.5875 1.63L45.0375 37.0467L43.2042 38.1067ZM6.16748 13.19H8.28748V36.81H6.16748V13.19ZM41.7141 13.19H43.8341V36.81H41.7141V13.19Z" fill="#E10098"/>
<path d="M25.4509 46.3217L24.5259 44.7183L42.3175 34.4467L43.2425 36.05L25.4509 46.3217Z" fill="#E10098"/>
<path d="M46.6423 37.5002C46.05 38.523 45.0765 39.2694 43.935 39.5758C42.7936 39.8823 41.5771 39.7239 40.5523 39.1352C39.5295 38.543 38.7831 37.5695 38.4766 36.428C38.1702 35.2865 38.3286 34.0701 38.9173 33.0452C39.5095 32.0224 40.483 31.276 41.6245 30.9696C42.766 30.6631 43.9824 30.8216 45.0073 31.4102C47.1523 32.6485 47.8806 35.3685 46.6406 37.5002M11.0706 16.9569C10.4783 17.9797 9.50484 18.726 8.36336 19.0325C7.22189 19.339 6.00548 19.1805 4.98059 18.5919C3.95734 17.9996 3.21064 17.0258 2.90416 15.8839C2.59768 14.7421 2.75642 13.5252 3.34559 12.5002C3.93785 11.4774 4.91134 10.731 6.05282 10.4246C7.1943 10.1181 8.4107 10.2766 9.43559 10.8652C10.4584 11.4575 11.2048 12.431 11.5112 13.5724C11.8177 14.7139 11.6592 15.932 11.0706 16.9569ZM3.35892 37.5002C2.77028 36.4753 2.61183 35.2589 2.91829 34.1174C3.22475 32.976 3.97112 32.0025 4.99392 31.4102C6.01881 30.8216 7.23522 30.6631 8.3767 30.9696C9.51818 31.276 10.4917 32.0224 11.0839 33.0452C11.6726 34.0701 11.831 35.2865 11.5246 36.428C11.2181 37.5695 10.4717 38.543 9.44892 39.1352C7.30392 40.3602 4.58226 39.6335 3.35892 37.5002ZM38.9306 16.9585C38.342 15.9337 38.1835 14.7172 38.49 13.5758C38.7964 12.4343 39.5428 11.4608 40.5656 10.8685C41.5905 10.2799 42.8069 10.1214 43.9484 10.4279C45.0898 10.7344 46.0633 11.4807 46.6556 12.5035C47.2442 13.5284 47.4027 14.7448 47.0962 15.8863C46.7898 17.0278 46.0434 18.0013 45.0206 18.5935C43.9957 19.1822 42.7793 19.3406 41.6378 19.0342C40.4963 18.7277 39.5229 17.9813 38.9306 16.9585ZM25.0006 50.0002C24.1191 50.0002 23.2574 49.7388 22.5244 49.249C21.7915 48.7592 21.2203 48.0631 20.883 47.2486C20.5457 46.4342 20.4576 45.538 20.6297 44.6735C20.8018 43.8089 21.2264 43.0148 21.8498 42.3916C22.4733 41.7684 23.2675 41.3441 24.1322 41.1723C24.9968 41.0005 25.8929 41.089 26.7072 41.4266C27.5216 41.7642 28.2175 42.3356 28.707 43.0688C29.1965 43.8019 29.4576 44.6637 29.4573 45.5452C29.4542 46.7261 28.9836 47.8577 28.1484 48.6926C27.3133 49.5274 26.1815 49.9976 25.0006 50.0002ZM25.0006 8.91354C24.4151 8.91442 23.8352 8.79974 23.2941 8.57608C22.753 8.35242 22.2613 8.02418 21.8473 7.61017C21.4333 7.19615 21.105 6.70451 20.8814 6.1634C20.6577 5.6223 20.543 5.04238 20.5439 4.45687C20.5439 3.27511 21.0134 2.14175 21.849 1.30612C22.6846 0.47049 23.818 0.0010376 24.9998 0.0010376C26.1815 0.0010376 27.3149 0.47049 28.1505 1.30612C28.9861 2.14175 29.4556 3.27511 29.4556 4.45687C29.4563 5.0421 29.3415 5.6217 29.1178 6.1625C28.8942 6.70331 28.566 7.19468 28.1522 7.6085C27.7384 8.02231 27.247 8.35044 26.7062 8.57409C26.1654 8.79775 25.5858 8.9142 25.0006 8.91354Z" fill="#E10098"/>
</g>
<defs>
<clipPath id="clip0_75_740">
<rect width="50" height="50" fill="white"/>
</clipPath>
</defs>
</svg>
