<svg width="35" height="35" viewBox="0 0 35 35" fill="none" xmlns="http://www.w3.org/2000/svg">
<g clip-path="url(#clip0_34_13)">
<path d="M17.505 8.526C15.73 8.5256 13.9948 9.05158 12.5188 10.0374C11.0427 11.0233 9.89221 12.4247 9.21268 14.0644C8.53315 15.7042 8.35515 17.5086 8.70119 19.2495C9.04723 20.9904 9.90176 22.5896 11.1567 23.8449C12.4117 25.1001 14.0107 25.955 15.7515 26.3014C17.4924 26.6478 19.2968 26.4702 20.9367 25.7911C22.5766 25.1119 23.9783 23.9617 24.9645 22.4859C25.9506 21.0101 26.477 19.275 26.477 17.5C26.4791 16.3211 26.2485 15.1534 25.7984 14.0638C25.3483 12.9742 24.6875 11.9841 23.854 11.1504C23.0205 10.3167 22.0306 9.65575 20.9411 9.20539C19.8516 8.75503 18.6839 8.52416 17.505 8.526ZM17.505 23.334C16.3511 23.3342 15.2231 22.9922 14.2635 22.3513C13.304 21.7104 12.5561 20.7993 12.1144 19.7333C11.6727 18.6673 11.557 17.4942 11.782 16.3625C12.007 15.2307 12.5625 14.1911 13.3784 13.3751C14.1942 12.5591 15.2338 12.0034 16.3655 11.7782C17.4972 11.553 18.6703 11.6685 19.7363 12.11C20.8024 12.5515 21.7136 13.2993 22.3547 14.2587C22.9958 15.2181 23.338 16.3461 23.338 17.5C23.3354 19.0463 22.72 20.5285 21.6267 21.622C20.5334 22.7155 19.0513 23.3311 17.505 23.334ZM28.935 8.162C28.9336 8.57566 28.8097 8.97963 28.5789 9.3229C28.348 9.66617 28.0207 9.93334 27.6381 10.0907C27.2556 10.248 26.8349 10.2885 26.4294 10.2069C26.0239 10.1254 25.6516 9.92549 25.3596 9.6325C25.0676 9.33951 24.8689 8.96657 24.7887 8.56076C24.7085 8.15495 24.7504 7.73447 24.909 7.35244C25.0676 6.9704 25.3359 6.64393 25.6799 6.41425C26.024 6.18458 26.4283 6.062 26.842 6.062C27.1176 6.06134 27.3907 6.11525 27.6454 6.22064C27.9001 6.32602 28.1314 6.48079 28.3259 6.67602C28.5205 6.87125 28.6745 7.10307 28.779 7.35811C28.8836 7.61316 28.9366 7.88637 28.935 8.162ZM34.877 10.286C34.744 7.486 34.104 4.999 32.05 2.953C29.996 0.907 27.521 0.262 24.718 0.123C21.829 -0.041 13.17 -0.041 10.281 0.123C7.486 0.255 5.005 0.896 2.949 2.942C0.893 4.988 0.263 7.472 0.123 10.276C-0.041 13.166 -0.041 21.827 0.123 24.716C0.256 27.516 0.896 30.003 2.95 32.049C5.004 34.095 7.479 34.736 10.282 34.876C13.171 35.04 21.83 35.04 24.719 34.876C27.519 34.743 30.005 34.103 32.051 32.049C34.097 29.995 34.737 27.519 34.878 24.716C35.042 21.826 35.042 13.173 34.878 10.283L34.877 10.286ZM31.144 27.817C30.8471 28.5698 30.3987 29.2536 29.8266 29.826C29.2544 30.3983 28.5707 30.8469 27.818 31.144C25.518 32.058 20.049 31.844 17.503 31.844C14.957 31.844 9.484 32.044 7.188 31.144C6.43525 30.8469 5.75159 30.3983 5.17944 29.826C4.6073 29.2536 4.15887 28.5698 3.862 27.817C2.948 25.517 3.162 20.046 3.162 17.5C3.162 14.954 2.962 9.479 3.862 7.183C4.15899 6.43007 4.60756 5.74621 5.17989 5.17389C5.75221 4.60156 6.43607 4.15298 7.189 3.856C9.489 2.942 14.958 3.156 17.504 3.156C20.05 3.156 25.523 2.956 27.819 3.856C28.5717 4.1531 29.2554 4.60173 29.8276 5.17405C30.3997 5.74637 30.8481 6.43016 31.145 7.183C32.059 9.483 31.845 14.954 31.845 17.5C31.845 20.046 32.058 25.52 31.144 27.817Z" fill="#7E6300"/>
</g>
<defs>
<clipPath id="clip0_34_13">
<rect width="35" height="35" fill="white"/>
</clipPath>
</defs>
</svg>
