<svg width="35" height="35" viewBox="0 0 35 35" fill="none" xmlns="http://www.w3.org/2000/svg">
<g clip-path="url(#clip0_34_15)">
<path d="M32.5 0H2.49203C1.82728 0.00502239 1.19166 0.273437 0.724514 0.746392C0.25737 1.21935 -0.0031668 1.85824 2.90578e-05 2.523V32.477C-0.0031668 33.1418 0.25737 33.7807 0.724514 34.2536C1.19166 34.7266 1.82728 34.995 2.49203 35H32.5C33.1657 34.9955 33.8024 34.7275 34.271 34.2547C34.7395 33.7818 35.0016 33.1427 35 32.477V2.523C35.0016 1.85735 34.7395 1.21816 34.271 0.745323C33.8024 0.272483 33.1657 0.00449396 32.5 0ZM10.578 30H5.39103V13.3H10.591V30H10.578ZM7.98403 11.016C7.3891 11.016 6.80754 10.8396 6.31287 10.5091C5.81821 10.1785 5.43267 9.70875 5.205 9.15911C4.97733 8.60947 4.91776 8.00466 5.03383 7.42117C5.14989 6.83767 5.43638 6.3017 5.85705 5.88102C6.27773 5.46035 6.8137 5.17386 7.3972 5.0578C7.98069 4.94173 8.5855 5.0013 9.13514 5.22897C9.68478 5.45664 10.1546 5.84218 10.4851 6.33684C10.8156 6.83151 10.992 7.41307 10.992 8.008C10.9918 8.80569 10.6748 9.57063 10.1107 10.1347C9.54666 10.6987 8.78172 11.0157 7.98403 11.016ZM30.023 30H24.836V21.875C24.836 19.938 24.797 17.445 22.136 17.445C19.436 17.445 19.019 19.554 19.019 21.734V30H13.836V13.3H18.813V15.581H18.883C19.3818 14.729 20.1021 14.028 20.9673 13.5526C21.8325 13.0772 22.8104 12.8451 23.797 12.881C29.047 12.881 30.024 16.342 30.024 20.842L30.023 30Z" fill="#7E6300"/>
</g>
<defs>
<clipPath id="clip0_34_15">
<rect width="35" height="35" fill="white"/>
</clipPath>
</defs>
</svg>
