<svg width="170" height="170" viewBox="0 0 170 170" fill="none" xmlns="http://www.w3.org/2000/svg">
<path d="M54.7812 55.75V84.3906H58.25C60.5625 84.3906 62.2031 84.8438 63.1719 85.75C64.1719 86.625 64.6719 87.7812 64.6719 89.2188C64.6719 90.625 64.1719 91.7812 63.1719 92.6875C62.2031 93.5625 60.5625 94 58.25 94H45.6406C43.3281 94 41.6875 93.5625 40.7188 92.6875C39.7188 91.7812 39.2188 90.6094 39.2188 89.1719C39.2188 87.7656 39.7031 86.625 40.6719 85.75C41.6406 84.8438 43.1406 84.3906 45.1719 84.3906V46.7969C43.4844 46.6406 42.2031 46.125 41.3281 45.25C40.4844 44.375 40.0625 43.2812 40.0625 41.9688C40.0625 40.5312 40.5469 39.375 41.5156 38.5C42.5156 37.5938 44.1719 37.1406 46.4844 37.1406L57.0312 37.1875L70.1094 66.1094L82.9531 37.1406L93.5938 37.1875C95.9062 37.1875 97.5469 37.625 98.5156 38.5C99.5156 39.375 100.016 40.5312 100.016 41.9688C100.016 43.2812 99.5781 44.375 98.7031 45.25C97.8281 46.125 96.5625 46.6406 94.9062 46.7969V84.3906C96.9375 84.3906 98.4375 84.8438 99.4062 85.75C100.375 86.6562 100.859 87.8125 100.859 89.2188C100.859 90.625 100.359 91.7812 99.3594 92.6875C98.3906 93.5625 96.75 94 94.4375 94H81.7812C79.5 94 77.8594 93.5625 76.8594 92.6875C75.8906 91.7812 75.4062 90.6094 75.4062 89.1719C75.4062 87.7656 75.8906 86.625 76.8594 85.75C77.8594 84.8438 79.5 84.3906 81.7812 84.3906H85.2969V55.75L74.2812 80.5H65.9375L54.7812 55.75Z" fill="#ECE4DC"/>
<path d="M91.7969 120.75V131.391H95.2656C97.5781 131.391 99.2188 131.844 100.188 132.75C101.188 133.625 101.688 134.781 101.688 136.219C101.688 137.625 101.188 138.781 100.188 139.688C99.2188 140.562 97.5781 141 95.2656 141H80.6875C78.375 141 76.7188 140.562 75.7188 139.688C74.75 138.781 74.2656 137.609 74.2656 136.172C74.2656 134.766 74.7656 133.625 75.7656 132.75C76.7656 131.844 78.4062 131.391 80.6875 131.391H82.1875V93.7969H80.6875C78.375 93.7969 76.7188 93.3594 75.7188 92.4844C74.75 91.5781 74.2656 90.4062 74.2656 88.9688C74.2656 87.5312 74.75 86.375 75.7188 85.5C76.7188 84.5938 78.375 84.1406 80.6875 84.1406L95.2656 84.1875C97.5781 84.1875 99.2188 84.625 100.188 85.5C101.188 86.375 101.688 87.5312 101.688 88.9688C101.688 90.4062 101.188 91.5781 100.188 92.4844C99.2188 93.3594 97.5781 93.7969 95.2656 93.7969H91.7969V108.047L108.859 93.375C107.859 92.6562 107.172 91.9844 106.797 91.3594C106.422 90.7344 106.234 89.9688 106.234 89.0625C106.234 87.5938 106.719 86.4062 107.688 85.5C108.688 84.5938 110.344 84.1406 112.656 84.1406L122.453 84.1875C124.766 84.1875 126.406 84.625 127.375 85.5C128.375 86.375 128.875 87.5312 128.875 88.9688C128.875 90.375 128.375 91.5312 127.375 92.4375C126.406 93.3438 124.875 93.7969 122.781 93.7969L105.531 108.891C108.75 110.734 111.766 113.547 114.578 117.328C117.422 121.109 119.938 125.797 122.125 131.391H124.703C126.984 131.391 128.609 131.844 129.578 132.75C130.578 133.625 131.078 134.781 131.078 136.219C131.078 137.625 130.594 138.781 129.625 139.688C128.656 140.562 127.016 141 124.703 141H115.984C113.984 136.219 111.797 131.656 109.422 127.312C107.484 123.781 105.641 121.219 103.891 119.625C102.172 118 100.109 116.703 97.7031 115.734L91.7969 120.75Z" fill="#ECE4DC"/>
<circle cx="85" cy="85" r="83.5" stroke="#ECE4DC" stroke-width="3"/>
</svg>
