<svg width="35" height="35" viewBox="0 0 35 35" fill="none" xmlns="http://www.w3.org/2000/svg">
<g clip-path="url(#clip0_40_38)">
<path d="M17.5 0C7.85062 0 0 7.85062 0 17.5C0 27.1494 7.85062 35 17.5 35C20.5772 35 23.6032 34.1904 26.2521 32.6576L24.0625 28.8701C22.078 30.0183 19.8082 30.625 17.5 30.625C10.2625 30.625 4.37498 24.7375 4.37498 17.5C4.37498 10.2625 10.2625 4.37498 17.5 4.37498C24.7375 4.37498 30.625 10.2625 30.625 17.5V19.4055C30.625 20.8368 29.7054 21.875 28.4375 21.875C27.2316 21.875 26.25 20.8934 26.25 19.6875V10.9375H23.2261C21.6872 9.5931 19.699 8.74996 17.5 8.74996C12.6753 8.74996 8.74996 12.6753 8.74996 17.5C8.74996 22.3247 12.6753 26.25 17.5 26.25C19.7975 26.25 21.8748 25.3415 23.4377 23.8879C24.6424 25.3196 26.4243 26.25 28.4375 26.25C32.1172 26.25 35 23.2433 35 19.4055V17.5C35 7.85062 27.1494 0 17.5 0ZM17.5 21.875C15.0871 21.875 13.125 19.9128 13.125 17.5C13.125 15.0871 15.0872 13.125 17.5 13.125C19.9129 13.125 21.875 15.0872 21.875 17.5C21.875 19.9129 19.9129 21.875 17.5 21.875Z" fill="#7E6300"/>
</g>
<defs>
<clipPath id="clip0_40_38">
<rect width="35" height="35" fill="white"/>
</clipPath>
</defs>
</svg>
