<svg width="450" height="450" viewBox="0 0 450 450" fill="none" xmlns="http://www.w3.org/2000/svg">
<path d="M449.815 224.99C449.815 358.663 333.75 463.389 199.993 448.606C87.3624 436.191 0 340.679 0 224.99C0 100.729 100.698 0 224.907 0C349.6 2.81238e-06 449.815 101.149 449.815 224.99Z" fill="#4C5C75"/>
<path opacity="0.15" d="M49.0587 122.02C65.8084 94.579 90.3949 72.7578 116.48 53.974C133.191 41.9401 150.957 30.8382 170.704 25.0035C200.888 16.0849 231.839 20.9831 252.665 45.8059C263.951 59.2578 270.364 78.2274 264.327 94.7183C252.523 126.965 204.229 132.18 196.395 165.334C192.182 183.161 202.911 203.558 194.19 225.367C189.762 236.439 178.924 245.774 167.042 244.812C148.944 243.346 138.466 220.546 120.426 218.483C111.776 217.494 103.198 221.751 96.9176 227.782C84.4599 239.744 81.4209 254.831 72.7887 259.306C68.6018 261.477 63.4629 261.108 59.0625 259.412C41.5806 252.672 37.077 230.612 32.1749 214.627C24.9848 191.181 28.6728 155.418 49.0587 122.02Z" fill="white"/>
<path opacity="0.19" d="M122.951 68.8753C103.62 85.1814 85.6917 103.865 73.5828 126.263C62.4784 146.803 56.6003 170.553 59.2386 193.912C60.3579 203.823 62.4803 230.703 77.6192 229.597C80.968 229.352 84.8259 224.709 87.4891 222.745C97.93 215.044 109.765 208.521 122.798 208.352C134.404 208.201 147.364 212.113 158.279 206.611C168.641 201.388 177.673 190.049 177.403 178.045C177.266 171.959 175.195 166.17 174.257 160.201C171.138 140.338 180.517 122.323 194.264 107.87C205.734 95.8103 218.591 81.7224 219.65 64.1929C220.721 46.4688 199.459 32.9317 183.267 36.8412C160.401 42.3618 140.498 54.0724 122.951 68.8753Z" fill="white"/>
<path d="M449.815 224.99C449.815 349.245 349.117 449.974 224.908 449.974C128.67 449.974 46.5437 389.502 14.4409 304.469C185.531 332.346 330.36 179.277 295.034 11.1588C384.905 40.6261 449.815 125.224 449.815 224.99Z" fill="#394E63"/>
<path d="M449.815 224.99C449.815 349.245 349.117 449.974 224.908 449.974C147.118 449.974 78.5469 410.463 38.1646 350.408C59.9107 356.73 82.8831 360.117 106.689 360.117C278.682 360.117 395.635 188.911 338.221 30.606C404.967 69.6178 449.815 142.065 449.815 224.99Z" fill="#31445B"/>
<path d="M449.815 224.99C449.815 349.245 349.117 449.974 224.908 449.974C167.098 449.974 114.382 428.155 74.5391 392.29C233.223 443.793 396.788 325.556 396.788 158.078C396.788 122.477 389.236 88.5837 375.634 58.0012C421.186 99.1672 449.815 158.736 449.815 224.99Z" fill="#1D2943"/>
<path d="M224.907 449.974C216.487 449.974 208.172 449.51 199.993 448.606C367.544 443.092 479.757 275.095 423.257 118.838C502.728 267.13 395.798 449.974 224.907 449.974Z" fill="#111D33"/>
<path d="M413.047 140.063C413.047 145.534 411.034 149.972 408.558 149.972C406.076 149.972 404.069 145.534 404.069 140.063C404.069 134.587 406.076 130.155 408.558 130.155C411.034 130.155 413.047 134.587 413.047 140.063Z" fill="#111D33"/>
<path d="M193.667 418.188C193.82 420.871 189.149 423.318 183.234 423.653C177.314 423.988 172.396 422.092 172.244 419.409C172.091 416.727 176.762 414.279 182.677 413.938C188.591 413.604 193.515 415.506 193.667 418.188Z" fill="#111D33"/>
<path d="M377.553 319.279C380.622 321.756 378.685 329.258 373.222 336.038C367.759 342.812 360.847 346.299 357.778 343.822C354.703 341.35 356.646 333.848 362.103 327.069C367.566 320.295 374.484 316.808 377.553 319.279Z" fill="#111D33"/>
<path d="M372.759 184.135C372.049 188.943 369.232 192.511 366.463 192.101C363.693 191.696 362.026 187.463 362.731 182.656C363.441 177.842 366.263 174.273 369.027 174.684C371.796 175.095 373.469 179.322 372.759 184.135Z" fill="#111D33"/>
<path d="M98.6147 364.519C98.286 366.421 95.5341 367.566 92.43 367.067C84.9665 365.866 85.8029 359.259 93.4569 360.234C96.5609 360.733 98.8201 362.699 98.6147 364.519Z" fill="#111D33"/>
<path d="M317.501 303.759C314.256 307.375 310.29 309.113 308.653 307.639C307.015 306.166 308.324 302.045 311.569 298.429C314.82 294.813 318.78 293.076 320.418 294.549C322.055 296.017 320.752 300.143 317.501 303.759Z" fill="#111D33"/>
<path d="M234.537 345.765C235.558 348.271 231.902 352.145 226.369 354.405C220.829 356.671 215.513 356.471 214.486 353.965C213.459 351.453 217.115 347.584 222.654 345.318C228.188 343.053 233.51 343.252 234.537 345.765Z" fill="#111D33"/>
<path d="M195.005 382.123C195.181 384.747 191.784 387.107 187.407 387.406C183.035 387.7 179.35 385.815 179.168 383.197C178.992 380.579 182.395 378.22 186.767 377.92C191.138 377.627 194.829 379.505 195.005 382.123Z" fill="#111D33"/>
<path d="M287.423 323.641C288.086 325.261 285.727 327.756 282.16 329.211C278.592 330.673 275.159 330.544 274.502 328.93C273.839 327.309 276.198 324.815 279.766 323.353C283.333 321.891 286.766 322.021 287.423 323.641Z" fill="#111D33"/>
<path d="M319.489 53.2897C319.649 49.169 318.264 45.7693 316.395 45.6963C314.525 45.6233 312.879 48.9046 312.718 53.0253C312.558 57.146 313.943 60.5456 315.812 60.6186C317.682 60.6916 319.328 57.4104 319.489 53.2897Z" fill="#1D2943"/>
<path d="M337.1 163.191C335.04 168.82 331.302 172.63 328.756 171.697C326.203 170.763 325.804 165.439 327.864 159.81C329.917 154.181 333.655 150.371 336.208 151.304C338.76 152.238 339.159 157.556 337.1 163.191Z" fill="#1D2943"/>
<path d="M40.4118 313.533C34.3473 311.803 35.5349 307.681 41.5853 309.406C44.1026 310.122 46.4639 315.254 40.4118 313.533Z" fill="#1D2943"/>
<path d="M63.3019 331.706C62.7854 333.526 59.1122 334.072 55.0985 332.933C51.085 331.788 48.2508 329.387 48.7673 327.568C49.2836 325.748 52.9568 325.196 56.9705 326.341C60.9841 327.485 63.8182 329.886 63.3019 331.706Z" fill="#1D2943"/>
<path d="M299.463 189.218C297.404 192.793 294.417 194.936 292.797 193.997C291.178 193.063 291.542 189.406 293.601 185.837C295.667 182.263 298.648 180.12 300.267 181.059C301.887 181.992 301.529 185.65 299.463 189.218Z" fill="#1D2943"/>
<path d="M218.916 277.773C220.553 279.939 218.007 284.617 213.23 288.221C208.454 291.825 203.261 292.988 201.63 290.828C199.998 288.662 202.545 283.983 207.315 280.379C212.092 276.775 217.285 275.613 218.916 277.773Z" fill="#1D2943"/>
<path d="M184.818 319.567C185.528 322.185 181.427 325.578 175.653 327.145C169.885 328.712 164.627 327.867 163.917 325.249C163.207 322.631 167.309 319.238 173.083 317.671C178.857 316.104 184.108 316.949 184.818 319.567Z" fill="#1D2943"/>
<path d="M251.242 311.83C245.214 313.465 244.056 309.36 250.127 307.704C252.638 307.023 257.242 310.207 251.242 311.83Z" fill="#1D2943"/>
<path d="M121.323 311.83C121.816 313.656 118.958 316.021 114.927 317.119C110.902 318.211 107.234 317.618 106.741 315.792C106.243 313.967 109.106 311.601 113.131 310.509C117.163 309.412 120.824 310.005 121.323 311.83Z" fill="#1D2943"/>
<path d="M181.849 21.4254C183.252 24.4308 179.443 29.1738 173.341 32.0266C167.244 34.8735 161.159 34.7502 159.757 31.7506C158.355 28.7452 162.163 23.9964 168.265 21.1495C174.368 18.2967 180.447 18.42 181.849 21.4254Z" fill="#31445B"/>
<path d="M159.152 162.774C155.784 168.609 150.726 171.996 147.857 170.335C144.987 168.679 145.392 162.604 148.76 156.769C152.129 150.94 157.181 147.553 160.05 149.209C162.919 150.87 162.52 156.939 159.152 162.774Z" fill="#31445B"/>
<path d="M236.115 187.24C238.702 189.829 236.537 196.198 231.274 201.457C226.01 206.723 219.65 208.889 217.056 206.3C214.468 203.711 216.633 197.342 221.897 192.077C227.16 186.818 233.521 184.646 236.115 187.24Z" fill="#31445B"/>
<path d="M279.378 54.2091C277.313 63.3135 272.008 69.8644 267.531 68.8488C263.06 67.8333 261.1 59.633 263.165 50.5287C265.231 41.4302 270.535 34.8735 275.012 35.889C279.49 36.9104 281.444 45.1107 279.378 54.2091Z" fill="#31445B"/>
<path d="M265.63 22.8929C264.292 28.8098 260.841 33.0714 257.931 32.4139C255.015 31.7506 253.747 26.4149 255.091 20.4979C256.429 14.5751 259.879 10.3135 262.79 10.9768C265.706 11.6402 266.973 16.9701 265.63 22.8929Z" fill="#31445B"/>
<path d="M54.7994 264.577C52.7631 270.999 48.5559 275.395 45.3991 274.398C42.2363 273.394 41.3269 267.377 43.3571 260.955C45.3874 254.534 49.6004 250.137 52.7574 251.141C55.9142 252.139 56.8296 258.155 54.7994 264.577Z" fill="#31445B"/>
<path d="M73.0074 239.09C71.8338 242.805 69.3929 245.353 67.5679 244.772C65.7373 244.191 65.2092 240.71 66.3828 236.988C67.5622 233.272 69.9973 230.725 71.8281 231.306C73.6588 231.881 74.187 235.368 73.0074 239.09Z" fill="#31445B"/>
<path d="M142.905 275.677C143.409 277.526 140.763 279.857 137.002 280.878C133.241 281.905 129.778 281.23 129.274 279.375C128.775 277.526 131.416 275.196 135.177 274.174C138.944 273.147 142.4 273.822 142.905 275.677Z" fill="#31445B"/>
<path d="M314.425 398.631C287.86 413.696 257.895 413.634 247.495 398.492C244.75 394.493 243.642 389.847 243.991 384.89C244.951 371.075 257.209 354.884 276.76 343.797C300.692 330.225 327.38 328.93 340.041 339.878C341.435 341.084 342.659 342.438 343.69 343.939C354.09 359.081 340.986 383.569 314.425 398.631Z" fill="#1D2943"/>
<path d="M314.425 398.631C287.86 413.696 257.895 413.634 247.495 398.492C244.75 394.493 243.642 389.847 243.991 384.89C271.463 403.969 334.102 374.89 340.041 339.878C341.435 341.084 342.659 342.438 343.69 343.939C354.09 359.081 340.986 383.569 314.425 398.631Z" fill="#111D33"/>
<path d="M155.66 373.005C136.364 371.408 120.687 360.67 120.643 349.022C120.633 345.946 121.711 343.116 123.663 340.643C129.098 333.748 141.3 329.644 155.501 330.82C170.623 332.071 190.466 340.912 190.517 354.805C190.561 366.453 174.954 374.602 155.66 373.005Z" fill="#1D2943"/>
<path d="M155.66 373.005C136.364 371.408 120.687 360.67 120.643 349.022C120.633 345.946 121.711 343.116 123.663 340.643C131.245 360.454 174.445 367.595 190.055 351.373C190.355 352.503 190.513 353.65 190.517 354.805C190.561 366.453 174.954 374.602 155.66 373.005Z" fill="#111D33"/>
<path d="M124.114 219.327C135.967 200.351 155.202 191.166 167.078 198.811C170.213 200.831 172.521 203.818 174.003 207.477C178.138 217.67 175.846 233.046 167.122 247.011C157.532 262.365 138.088 276.493 124.158 267.524C112.282 259.879 112.263 238.299 124.114 219.327Z" fill="#31445B"/>
<path d="M124.114 219.327C135.967 200.351 155.202 191.166 167.078 198.811C170.213 200.831 172.521 203.818 174.003 207.477C149.914 202.288 119.637 242.314 127.894 269.31C126.585 268.875 125.335 268.282 124.158 267.524C112.282 259.879 112.263 238.299 124.114 219.327Z" fill="#1D2943"/>
<path d="M214.425 89.0048C232.58 74.2817 253.509 78.074 253.411 96.8138C253.283 124.432 212.366 148.606 200.324 128.417C194.112 118.003 200.426 100.357 214.425 89.0048Z" fill="#31445B"/>
<path d="M214.425 89.0048C232.58 74.2817 253.509 78.074 253.411 96.8138C237.926 84.2394 204.513 106.031 202.46 131.187C201.656 130.373 200.94 129.45 200.324 128.417C194.112 118.003 200.426 100.357 214.425 89.0048Z" fill="#1D2943"/>
<path d="M92.1686 136.442C99.084 125.37 110.307 120.011 117.236 124.472C125.386 129.722 122.814 143.705 117.262 152.594C111.666 161.553 100.321 169.795 92.1939 164.563C85.2649 160.102 85.2537 147.511 92.1686 136.442Z" fill="#31445B"/>
<path d="M92.1686 136.442C99.084 125.37 110.307 120.011 117.236 124.472C119.065 125.65 120.412 127.393 121.276 129.528C107.221 126.501 89.556 149.854 94.3739 165.605C93.6102 165.351 92.8809 165.005 92.1939 164.563C85.2649 160.102 85.2537 147.511 92.1686 136.442Z" fill="#1D2943"/>
<path d="M293.647 274.735C278.893 289.364 259.211 294.669 249.684 286.584C247.169 284.449 245.613 281.596 244.958 278.28C243.126 269.04 248.287 256.224 259.145 245.457C270.706 233.993 291.746 223.966 303.108 233.609C312.635 241.694 308.398 260.108 293.647 274.735Z" fill="#1D2943"/>
<path d="M293.647 274.735C278.893 289.364 259.211 294.669 249.684 286.584C247.169 284.449 245.613 281.596 244.958 278.28C266.395 285.904 302.332 255.638 299.989 231.594C301.119 232.137 302.164 232.808 303.108 233.609C312.635 241.694 308.399 260.108 293.647 274.735Z" fill="#111D33"/>
<path d="M368.765 106.818C366.369 125.227 355.13 139.109 343.662 137.824C340.635 137.484 337.895 136.123 335.545 133.961C328.99 127.939 325.472 115.715 327.236 102.167C329.151 87.458 338.799 69.6437 352.34 71.1613C363.808 72.446 371.162 88.4109 368.765 106.818Z" fill="#1D2943"/>
<path d="M368.765 106.818C366.369 125.227 355.13 139.109 343.662 137.824C340.634 137.484 337.895 136.123 335.544 133.961C355.282 128.933 364.299 88.1651 348.943 71.2157C350.068 71.0552 351.203 71.0339 352.34 71.1613C363.808 72.446 371.162 88.4109 368.765 106.818Z" fill="#111D33"/>
<path d="M400.344 242.789C391.752 262.723 374.748 275.545 362.363 271.428C359.093 270.34 356.473 268.183 354.545 265.225C349.166 256.986 349.17 242.552 355.493 227.882C362.226 212.26 378.705 194.334 393.475 199.245C405.86 203.361 408.935 222.858 400.344 242.789Z" fill="#1D2943"/>
<path d="M400.344 242.789C391.752 262.723 374.747 275.545 362.363 271.428C359.093 270.34 356.473 268.183 354.545 265.225C378.291 264.247 401.313 220.895 389.667 198.509C390.974 198.594 392.247 198.836 393.475 199.245C405.86 203.361 408.935 222.858 400.344 242.789Z" fill="#111D33"/>
</svg>
