<svg width="231" height="41" viewBox="0 0 231 41" fill="none" xmlns="http://www.w3.org/2000/svg">
<path d="M17.0938 26.4062L11.4688 15.2031L11.2656 18.9688C11.2031 20.0625 11.1458 21.151 11.0938 22.2344C11.0521 23.3073 10.9688 24.3333 10.8438 25.3125C10.7188 26.2812 10.5208 27.1823 10.25 28.0156C9.98958 28.849 9.60417 29.5729 9.09375 30.1875C8.59375 30.7917 7.9375 31.2656 7.125 31.6094C6.32292 31.9531 5.31771 32.125 4.10938 32.125C3.57812 32.125 3.06771 32.0833 2.57812 32C2.08854 31.9062 1.65625 31.7812 1.28125 31.625C0.90625 31.4688 0.609375 31.2865 0.390625 31.0781C0.161458 30.8594 0.046875 30.625 0.046875 30.375C0.046875 30.1875 0.0729167 30 0.125 29.8125C0.177083 29.6146 0.255208 29.4375 0.359375 29.2812C0.463542 29.1146 0.59375 28.9844 0.75 28.8906C0.895833 28.7865 1.0625 28.7344 1.25 28.7344C1.36458 28.7344 1.46354 28.7917 1.54688 28.9062C1.64062 29.0208 1.73438 29.1667 1.82812 29.3438C1.92188 29.5104 2.02604 29.6927 2.14062 29.8906C2.26562 30.0885 2.42188 30.276 2.60938 30.4531C2.80729 30.6198 3.04167 30.7604 3.3125 30.875C3.58333 30.9896 3.92188 31.0469 4.32812 31.0469C5.13021 31.0469 5.80208 30.9115 6.34375 30.6406C6.89583 30.3594 7.34896 29.9583 7.70312 29.4375C8.05729 28.9167 8.32812 28.2865 8.51562 27.5469C8.70312 26.8073 8.84375 25.9688 8.9375 25.0312C8.97917 24.5104 9.02083 24.0104 9.0625 23.5312C9.10417 23.0417 9.14583 22.5573 9.1875 22.0781C9.22917 21.599 9.26562 21.1146 9.29688 20.625C9.33854 20.125 9.38021 19.599 9.42188 19.0469C9.47396 18.2448 9.52083 17.4844 9.5625 16.7656C9.60417 16.0365 9.63542 15.3594 9.65625 14.7344C9.6875 14.1094 9.70833 13.5469 9.71875 13.0469C9.73958 12.5469 9.75521 12.1146 9.76562 11.75C9.58854 11.3854 9.43229 11.0938 9.29688 10.875C9.16146 10.6458 9.02083 10.474 8.875 10.3594C8.72917 10.2344 8.56771 10.151 8.39062 10.1094C8.21354 10.0677 8 10.0469 7.75 10.0469C7.54167 10.0469 7.28125 10.0885 6.96875 10.1719C6.66667 10.2448 6.34896 10.3542 6.01562 10.5C5.69271 10.6458 5.36458 10.8281 5.03125 11.0469C4.70833 11.2552 4.41667 11.5 4.15625 11.7812C3.90625 12.0521 3.69792 12.3542 3.53125 12.6875C3.375 13.0208 3.29688 13.3802 3.29688 13.7656C3.29688 14.099 3.33854 14.3646 3.42188 14.5625C3.51562 14.7604 3.61979 14.9115 3.73438 15.0156C3.85938 15.1094 3.97917 15.1719 4.09375 15.2031C4.21875 15.224 4.30729 15.2344 4.35938 15.2344C4.61979 15.2344 4.83333 15.1927 5 15.1094C5.16667 15.0156 5.31771 14.9219 5.45312 14.8281C5.58854 14.724 5.71354 14.6302 5.82812 14.5469C5.95312 14.4531 6.09375 14.4062 6.25 14.4062C6.375 14.4062 6.50521 14.4375 6.64062 14.5C6.78646 14.5521 6.91667 14.6406 7.03125 14.7656C7.15625 14.8906 7.26042 15.0573 7.34375 15.2656C7.42708 15.4635 7.46875 15.7083 7.46875 16C7.46875 16.4167 7.38542 16.776 7.21875 17.0781C7.0625 17.3802 6.85417 17.6354 6.59375 17.8438C6.34375 18.0417 6.05208 18.1927 5.71875 18.2969C5.39583 18.3906 5.07292 18.4375 4.75 18.4375C4.25 18.4375 3.79688 18.3542 3.39062 18.1875C2.99479 18.0104 2.65625 17.7708 2.375 17.4688C2.09375 17.1667 1.88021 16.8125 1.73438 16.4062C1.58854 16 1.51562 15.5677 1.51562 15.1094C1.51562 14.026 1.76562 13.0833 2.26562 12.2812C2.76562 11.4688 3.42188 10.7917 4.23438 10.25C5.04688 9.70833 5.96354 9.30729 6.98438 9.04688C8.01562 8.77604 9.0625 8.64062 10.125 8.64062C10.9792 8.64062 11.6927 8.72917 12.2656 8.90625C12.8385 9.07292 13.3177 9.30208 13.7031 9.59375C14.0885 9.875 14.4062 10.2083 14.6562 10.5938C14.9062 10.9792 15.1354 11.3854 15.3438 11.8125L19.4688 20.1875C20.5417 18.0729 21.5156 16.1823 22.3906 14.5156C23.276 12.8385 24.0938 11.3646 24.8438 10.0938C25.5938 8.82292 26.2917 7.73958 26.9375 6.84375C27.5938 5.94792 28.224 5.21875 28.8281 4.65625C29.4427 4.08333 30.0469 3.66667 30.6406 3.40625C31.2448 3.14583 31.8698 3.01562 32.5156 3.01562C33.0677 3.01562 33.5156 3.13542 33.8594 3.375C34.2031 3.60417 34.375 3.95312 34.375 4.42188C34.375 4.83854 34.3073 5.18229 34.1719 5.45312C34.0365 5.72396 33.849 5.85938 33.6094 5.85938C33.4115 5.85938 33.2604 5.78646 33.1562 5.64062C33.0521 5.48438 32.9479 5.31771 32.8438 5.14062C32.75 4.96354 32.6302 4.80208 32.4844 4.65625C32.3385 4.5 32.125 4.42188 31.8438 4.42188C31.6771 4.42188 31.474 4.46875 31.2344 4.5625C30.9948 4.65625 30.7448 4.79688 30.4844 4.98438C30.2344 5.17188 29.9844 5.40625 29.7344 5.6875C29.4844 5.96875 29.2656 6.29688 29.0781 6.67188C28.8906 7.04688 28.7448 7.47396 28.6406 7.95312C28.5365 8.43229 28.5052 8.95833 28.5469 9.53125C28.5885 10.1875 28.6458 10.9583 28.7188 11.8438C28.7917 12.7188 28.8698 13.6615 28.9531 14.6719C29.0469 15.6719 29.1406 16.7083 29.2344 17.7812C29.3385 18.8542 29.4427 19.9115 29.5469 20.9531C29.651 21.9948 29.75 22.9948 29.8438 23.9531C29.9479 24.9115 30.0417 25.7812 30.125 26.5625C30.2083 27.3333 30.2865 27.9896 30.3594 28.5312C30.4323 29.0625 30.4896 29.4271 30.5312 29.625C30.5938 29.9271 30.6771 30.1719 30.7812 30.3594C30.8854 30.5365 31.0729 30.625 31.3438 30.625C31.625 30.625 31.8906 30.5781 32.1406 30.4844C32.3906 30.3802 32.6146 30.276 32.8125 30.1719L33.0625 30.75C32.875 30.8854 32.6354 31.0417 32.3438 31.2188C32.0625 31.3854 31.7344 31.5469 31.3594 31.7031C30.9948 31.8594 30.5885 31.9896 30.1406 32.0938C29.7031 32.1979 29.2292 32.25 28.7188 32.25C28 32.25 27.4323 32.1615 27.0156 31.9844C26.599 31.7969 26.276 31.5729 26.0469 31.3125C25.8281 31.0417 25.6771 30.7604 25.5938 30.4688C25.5208 30.1667 25.4635 29.8958 25.4219 29.6562C25.3281 29.125 25.2292 28.4844 25.125 27.7344C25.0208 26.9844 24.9167 26.1823 24.8125 25.3281C24.7188 24.4635 24.625 23.5781 24.5312 22.6719C24.4375 21.7552 24.349 20.8646 24.2656 20C24.1927 19.125 24.125 18.3021 24.0625 17.5312C24 16.7604 23.9479 16.0885 23.9062 15.5156C23.5938 16.026 23.3021 16.5208 23.0312 17C22.7708 17.4688 22.5156 17.9531 22.2656 18.4531C22.0156 18.9427 21.7604 19.4583 21.5 20C21.2396 20.5417 20.9635 21.1302 20.6719 21.7656C20.3906 22.401 20.0781 23.099 19.7344 23.8594C19.401 24.6198 19.0312 25.4688 18.625 26.4062H17.0938ZM42.0781 23.9062C42.0781 23.6458 41.9948 23.4479 41.8281 23.3125C41.6615 23.1771 41.4479 23.1094 41.1875 23.1094C40.8229 23.1094 40.474 23.1927 40.1406 23.3594C39.8177 23.526 39.5312 23.7708 39.2812 24.0938C39.0312 24.4167 38.8333 24.8177 38.6875 25.2969C38.5417 25.7656 38.4688 26.3125 38.4688 26.9375C38.4688 27.5417 38.5104 28.0417 38.5938 28.4375C38.6875 28.8333 38.8073 29.151 38.9531 29.3906C39.1094 29.6198 39.2865 29.7812 39.4844 29.875C39.6823 29.9688 39.8906 30.0156 40.1094 30.0156C40.3802 30.0156 40.6354 29.9479 40.875 29.8125C41.1146 29.6667 41.3229 29.4844 41.5 29.2656C41.6771 29.0469 41.8177 28.8021 41.9219 28.5312C42.026 28.2604 42.0781 27.9896 42.0781 27.7188V23.9062ZM39.5938 17.0625C39.2396 17.0625 38.9115 17.1042 38.6094 17.1875C38.3073 17.2708 38.0469 17.375 37.8281 17.5C37.6094 17.625 37.4375 17.7656 37.3125 17.9219C37.1875 18.0677 37.125 18.2083 37.125 18.3438C37.125 18.5 37.2031 18.6146 37.3594 18.6875C37.526 18.75 37.7083 18.8281 37.9062 18.9219C38.1042 19.0052 38.2812 19.1302 38.4375 19.2969C38.6042 19.4531 38.6875 19.6979 38.6875 20.0312C38.6875 20.25 38.6406 20.4531 38.5469 20.6406C38.4635 20.8177 38.3438 20.9792 38.1875 21.125C38.0417 21.2604 37.8646 21.3698 37.6562 21.4531C37.4583 21.526 37.25 21.5625 37.0312 21.5625C36.4479 21.5625 35.974 21.3646 35.6094 20.9688C35.2552 20.5729 35.0781 20.0469 35.0781 19.3906C35.0781 18.7552 35.2448 18.2135 35.5781 17.7656C35.9115 17.3073 36.3438 16.9323 36.875 16.6406C37.4167 16.349 38.026 16.1354 38.7031 16C39.3802 15.8542 40.0573 15.7812 40.7344 15.7812C41.5469 15.7812 42.3229 15.8698 43.0625 16.0469C43.8021 16.224 44.4531 16.5052 45.0156 16.8906C45.5885 17.276 46.0417 17.7656 46.375 18.3594C46.7188 18.9531 46.8906 19.6719 46.8906 20.5156V29.3438C46.8906 29.4375 46.8958 29.5417 46.9062 29.6562C46.9167 29.7708 46.9427 29.875 46.9844 29.9688C47.026 30.0625 47.0885 30.1406 47.1719 30.2031C47.2552 30.2656 47.375 30.2969 47.5312 30.2969C47.7188 30.2969 47.8906 30.2292 48.0469 30.0938C48.2135 29.9479 48.3594 29.8021 48.4844 29.6562L48.875 29.9844C48.7188 30.2031 48.5312 30.4427 48.3125 30.7031C48.0938 30.9635 47.8281 31.2083 47.5156 31.4375C47.2031 31.6667 46.8385 31.8594 46.4219 32.0156C46.0052 32.1719 45.5312 32.25 45 32.25C44.3438 32.25 43.7604 32.0573 43.25 31.6719C42.7396 31.276 42.4062 30.6719 42.25 29.8594C41.9167 30.3073 41.5677 30.6823 41.2031 30.9844C40.849 31.2865 40.4844 31.5312 40.1094 31.7188C39.7344 31.9062 39.3542 32.0417 38.9688 32.125C38.5938 32.2083 38.2135 32.25 37.8281 32.25C37.3281 32.25 36.8438 32.1719 36.375 32.0156C35.9062 31.8594 35.4844 31.6146 35.1094 31.2812C34.7448 30.9375 34.4479 30.4948 34.2188 29.9531C34 29.4115 33.8906 28.75 33.8906 27.9688C33.8906 27.0208 34.0781 26.2448 34.4531 25.6406C34.8281 25.0365 35.3177 24.5312 35.9219 24.125C36.5365 23.7083 37.2292 23.3542 38 23.0625C38.7812 22.7708 39.5781 22.4635 40.3906 22.1406C40.9948 21.901 41.4323 21.5469 41.7031 21.0781C41.9844 20.599 42.125 20.1094 42.125 19.6094C42.125 18.8385 41.8958 18.224 41.4375 17.7656C40.9896 17.2969 40.375 17.0625 39.5938 17.0625ZM55.9688 19.0781C56.3646 18.474 56.7865 17.9271 57.2344 17.4375C57.4219 17.2292 57.625 17.026 57.8438 16.8281C58.0625 16.6302 58.2865 16.4531 58.5156 16.2969C58.7552 16.1406 59 16.0156 59.25 15.9219C59.5 15.8281 59.75 15.7812 60 15.7812C60.5312 15.7812 60.9479 15.9427 61.25 16.2656C61.5521 16.5781 61.7031 17.0208 61.7031 17.5938C61.7031 17.9479 61.6719 18.2917 61.6094 18.625C61.5573 18.9479 61.4479 19.3438 61.2812 19.8125H60.8438C60.7812 19.4896 60.6354 19.224 60.4062 19.0156C60.1771 18.7969 59.8438 18.6875 59.4062 18.6875C59.0833 18.6875 58.7656 18.75 58.4531 18.875C58.1406 18.9896 57.8333 19.1354 57.5312 19.3125C57.2396 19.4896 56.9583 19.6823 56.6875 19.8906C56.4271 20.099 56.1875 20.2969 55.9688 20.4844V30.625C55.9688 30.7604 55.9479 30.9219 55.9062 31.1094C55.8646 31.2969 55.7604 31.474 55.5938 31.6406C55.4375 31.8073 55.1979 31.9479 54.875 32.0625C54.5625 32.1875 54.1302 32.25 53.5781 32.25C53.026 32.25 52.5885 32.1823 52.2656 32.0469C51.9531 31.9219 51.7135 31.7708 51.5469 31.5938C51.3802 31.4167 51.276 31.2344 51.2344 31.0469C51.1927 30.8594 51.1719 30.7083 51.1719 30.5938V18.5312C51.1719 18.2292 51.099 17.9688 50.9531 17.75C50.8177 17.5208 50.5833 17.4062 50.25 17.4062C50.0729 17.4062 49.9219 17.4375 49.7969 17.5C49.6719 17.5625 49.5365 17.651 49.3906 17.7656L49.0625 17.375C49.3021 17.1771 49.5677 16.9844 49.8594 16.7969C50.1615 16.599 50.4844 16.4271 50.8281 16.2812C51.1719 16.1354 51.5417 16.0156 51.9375 15.9219C52.3333 15.8281 52.75 15.7812 53.1875 15.7812C53.6354 15.7812 54.0156 15.8438 54.3281 15.9688C54.651 16.0833 54.9115 16.2396 55.1094 16.4375C55.3177 16.625 55.4792 16.8385 55.5938 17.0781C55.7083 17.3177 55.7917 17.5625 55.8438 17.8125C55.9062 18.0521 55.9427 18.2865 55.9531 18.5156C55.9635 18.7344 55.9688 18.9219 55.9688 19.0781ZM72.9688 21.1875C72.6458 21.1875 72.375 21.1406 72.1562 21.0469C71.9375 20.9427 71.7604 20.8073 71.625 20.6406C71.4896 20.474 71.3906 20.2917 71.3281 20.0938C71.2656 19.8854 71.2344 19.6719 71.2344 19.4531C71.2344 19.1719 71.25 18.901 71.2812 18.6406C71.3229 18.3802 71.3281 18.1458 71.2969 17.9375C71.276 17.7292 71.1979 17.5625 71.0625 17.4375C70.9271 17.3125 70.6875 17.25 70.3438 17.25C69.9792 17.25 69.5938 17.3542 69.1875 17.5625C68.7812 17.7708 68.4115 18.099 68.0781 18.5469C67.7448 18.9948 67.4688 19.5729 67.25 20.2812C67.0312 20.9792 66.9219 21.8229 66.9219 22.8125C66.9219 23.9062 67.0208 24.9062 67.2188 25.8125C67.4271 26.7083 67.7344 27.474 68.1406 28.1094C68.5469 28.7448 69.0521 29.2396 69.6562 29.5938C70.2604 29.9375 70.9688 30.1094 71.7812 30.1094C72.1458 30.1094 72.4896 30.0677 72.8125 29.9844C73.1458 29.901 73.4583 29.7865 73.75 29.6406C74.0417 29.4948 74.3177 29.3281 74.5781 29.1406C74.849 28.9427 75.1094 28.7344 75.3594 28.5156L75.75 28.8906C75.5104 29.2135 75.2031 29.5677 74.8281 29.9531C74.4531 30.3385 74 30.7031 73.4688 31.0469C72.9375 31.3802 72.3177 31.6615 71.6094 31.8906C70.901 32.1094 70.0938 32.2188 69.1875 32.2188C68.2812 32.2188 67.3958 32.0469 66.5312 31.7031C65.6771 31.349 64.9167 30.8385 64.25 30.1719C63.5833 29.5052 63.0469 28.6979 62.6406 27.75C62.2448 26.7917 62.0469 25.7031 62.0469 24.4844C62.0469 23.5365 62.1667 22.6667 62.4062 21.875C62.6458 21.0729 62.9688 20.349 63.375 19.7031C63.7917 19.0573 64.2708 18.4896 64.8125 18C65.3646 17.5104 65.9427 17.1042 66.5469 16.7812C67.151 16.4479 67.7656 16.1979 68.3906 16.0312C69.026 15.8646 69.6354 15.7812 70.2188 15.7812C70.9896 15.7812 71.6615 15.8698 72.2344 16.0469C72.8073 16.224 73.2812 16.4583 73.6562 16.75C74.0417 17.0417 74.3281 17.3802 74.5156 17.7656C74.7031 18.1406 74.7969 18.5312 74.7969 18.9375C74.7969 19.2396 74.7552 19.5312 74.6719 19.8125C74.599 20.0833 74.4844 20.3229 74.3281 20.5312C74.1823 20.7292 73.9948 20.8906 73.7656 21.0156C73.5365 21.1302 73.2708 21.1875 72.9688 21.1875ZM96.1875 17.9531C97.1146 16.6198 97.9583 15.4375 98.7188 14.4062C99.4896 13.375 100.198 12.4792 100.844 11.7188C101.49 10.9479 102.089 10.3021 102.641 9.78125C103.203 9.26042 103.745 8.84375 104.266 8.53125C104.797 8.20833 105.323 7.97917 105.844 7.84375C106.365 7.70833 106.911 7.64062 107.484 7.64062C108.849 7.64062 109.531 8.07812 109.531 8.95312C109.531 9.06771 109.521 9.20312 109.5 9.35938C109.479 9.51562 109.438 9.66667 109.375 9.8125C109.323 9.95833 109.245 10.0833 109.141 10.1875C109.036 10.2917 108.906 10.3438 108.75 10.3438C108.635 10.3438 108.5 10.2865 108.344 10.1719C108.198 10.0573 108.026 9.93229 107.828 9.79688C107.63 9.65104 107.401 9.52083 107.141 9.40625C106.88 9.28125 106.589 9.21875 106.266 9.21875C105.911 9.21875 105.505 9.36458 105.047 9.65625C104.599 9.94792 104.109 10.3438 103.578 10.8438C103.057 11.3438 102.51 11.9271 101.938 12.5938C101.375 13.25 100.802 13.9479 100.219 14.6875C101.781 18.25 103.156 21.3385 104.344 23.9531C105.542 26.5677 106.63 28.7344 107.609 30.4531C108.599 32.1615 109.51 33.4323 110.344 34.2656C111.177 35.099 112.016 35.5156 112.859 35.5156C113.005 35.5156 113.151 35.4948 113.297 35.4531C113.443 35.4115 113.573 35.3646 113.688 35.3125C113.823 35.2604 113.958 35.1927 114.094 35.1094L114.422 35.7188C114.245 35.8229 114 35.9479 113.688 36.0938C113.385 36.2396 113.021 36.375 112.594 36.5C112.177 36.6354 111.714 36.75 111.203 36.8438C110.693 36.9375 110.146 36.9844 109.562 36.9844C108.76 36.9844 108.016 36.8594 107.328 36.6094C106.641 36.3594 105.969 35.9531 105.312 35.3906C104.667 34.8385 104.026 34.1094 103.391 33.2031C102.766 32.3073 102.109 31.2083 101.422 29.9062C100.745 28.6042 100.026 27.0885 99.2656 25.3594C98.5052 23.6302 97.6771 21.651 96.7812 19.4219L96.1875 20.3125V29.9531C96.1875 30.7552 95.974 31.3385 95.5469 31.7031C95.1302 32.0677 94.4896 32.25 93.625 32.25C92.75 32.25 92.1042 32.0677 91.6875 31.7031C91.2708 31.3385 91.0625 30.7552 91.0625 29.9531V11.1406C91.0625 10.9115 91.0365 10.7292 90.9844 10.5938C90.9323 10.4583 90.8594 10.3542 90.7656 10.2812C90.6719 10.1979 90.5573 10.1458 90.4219 10.125C90.2969 10.0938 90.1562 10.0781 90 10.0781C89.7708 10.0781 89.4844 10.1146 89.1406 10.1875C88.8073 10.2604 88.4531 10.3698 88.0781 10.5156C87.7031 10.6615 87.3229 10.8438 86.9375 11.0625C86.5625 11.2708 86.224 11.5104 85.9219 11.7812C85.6302 12.0521 85.3906 12.3542 85.2031 12.6875C85.0156 13.0208 84.9219 13.3802 84.9219 13.7656C84.9219 14.099 84.9635 14.3646 85.0469 14.5625C85.1406 14.7604 85.2448 14.9115 85.3594 15.0156C85.474 15.1094 85.5885 15.1719 85.7031 15.2031C85.8281 15.224 85.9167 15.2344 85.9688 15.2344C86.2292 15.2344 86.4427 15.1927 86.6094 15.1094C86.776 15.0156 86.9271 14.9219 87.0625 14.8281C87.1979 14.724 87.3229 14.6302 87.4375 14.5469C87.5625 14.4531 87.7031 14.4062 87.8594 14.4062C87.9844 14.4062 88.1146 14.4375 88.25 14.5C88.3958 14.5521 88.526 14.6406 88.6406 14.7656C88.7656 14.8906 88.8698 15.0573 88.9531 15.2656C89.0365 15.4635 89.0781 15.7083 89.0781 16C89.0781 16.4167 88.9948 16.776 88.8281 17.0781C88.6719 17.3802 88.4635 17.6354 88.2031 17.8438C87.9531 18.0417 87.6615 18.1927 87.3281 18.2969C87.0052 18.3906 86.6823 18.4375 86.3594 18.4375C85.8594 18.4375 85.4062 18.3542 85 18.1875C84.6042 18.0104 84.2656 17.7708 83.9844 17.4688C83.7031 17.1667 83.4896 16.8125 83.3438 16.4062C83.1979 16 83.125 15.5677 83.125 15.1094C83.125 14.3906 83.2552 13.7344 83.5156 13.1406C83.776 12.5365 84.1302 11.9948 84.5781 11.5156C85.0365 11.0365 85.5677 10.6198 86.1719 10.2656C86.7865 9.90104 87.4479 9.59896 88.1562 9.35938C88.8646 9.11979 89.6042 8.94271 90.375 8.82812C91.1458 8.70312 91.9167 8.64062 92.6875 8.64062C93.5417 8.64062 94.2031 8.72396 94.6719 8.89062C95.151 9.04688 95.5 9.23958 95.7188 9.46875C95.9479 9.69792 96.0833 9.9375 96.125 10.1875C96.1667 10.4375 96.1875 10.6458 96.1875 10.8125V17.9531ZM116.094 30.625C116.094 30.7604 116.068 30.9219 116.016 31.1094C115.974 31.2969 115.865 31.474 115.688 31.6406C115.521 31.8073 115.271 31.9479 114.938 32.0625C114.615 32.1875 114.177 32.25 113.625 32.25C113.073 32.25 112.641 32.1823 112.328 32.0469C112.016 31.9219 111.781 31.7708 111.625 31.5938C111.479 31.4167 111.385 31.2344 111.344 31.0469C111.312 30.8594 111.297 30.7083 111.297 30.5938V10.4375C111.297 10.1354 111.224 9.875 111.078 9.65625C110.943 9.42708 110.708 9.3125 110.375 9.3125C110.198 9.3125 110.042 9.34375 109.906 9.40625C109.781 9.45833 109.646 9.54167 109.5 9.65625L109.188 9.28125C109.427 9.08333 109.693 8.89062 109.984 8.70312C110.276 8.50521 110.594 8.33333 110.938 8.1875C111.292 8.04167 111.667 7.92188 112.062 7.82812C112.458 7.73438 112.875 7.6875 113.312 7.6875C113.99 7.6875 114.516 7.78125 114.891 7.96875C115.266 8.14583 115.542 8.36979 115.719 8.64062C115.896 8.90104 116 9.18229 116.031 9.48438C116.073 9.77604 116.094 10.0365 116.094 10.2656V30.625ZM124.078 24.8281C124.078 25.1615 124.125 25.526 124.219 25.9219C124.323 26.3073 124.469 26.6979 124.656 27.0938C124.844 27.4896 125.073 27.8698 125.344 28.2344C125.625 28.5885 125.943 28.9062 126.297 29.1875C126.661 29.4688 127.062 29.6927 127.5 29.8594C127.938 30.026 128.417 30.1094 128.938 30.1094C129.302 30.1094 129.641 30.0677 129.953 29.9844C130.266 29.901 130.557 29.7865 130.828 29.6406C131.099 29.4948 131.359 29.3281 131.609 29.1406C131.859 28.9427 132.109 28.7344 132.359 28.5156L132.75 28.8906C132.51 29.2135 132.203 29.5677 131.828 29.9531C131.453 30.3385 131 30.7031 130.469 31.0469C129.938 31.3802 129.318 31.6615 128.609 31.8906C127.901 32.1094 127.094 32.2188 126.188 32.2188C125.281 32.2188 124.396 32.0573 123.531 31.7344C122.677 31.401 121.917 30.9062 121.25 30.25C120.583 29.5938 120.047 28.776 119.641 27.7969C119.245 26.8177 119.047 25.6719 119.047 24.3594C119.047 23.4115 119.167 22.5417 119.406 21.75C119.646 20.9583 119.969 20.2448 120.375 19.6094C120.792 18.974 121.271 18.4167 121.812 17.9375C122.365 17.4583 122.943 17.0625 123.547 16.75C124.151 16.4271 124.766 16.1875 125.391 16.0312C126.026 15.8646 126.635 15.7812 127.219 15.7812C127.99 15.7812 128.661 15.8646 129.234 16.0312C129.807 16.1979 130.281 16.4219 130.656 16.7031C131.042 16.9844 131.328 17.3125 131.516 17.6875C131.703 18.0521 131.797 18.4375 131.797 18.8438C131.797 19.3333 131.656 19.776 131.375 20.1719C131.094 20.5573 130.719 20.8958 130.25 21.1875L124.078 24.8281ZM127.219 21.6562C127.354 21.5729 127.464 21.4948 127.547 21.4219C127.641 21.3385 127.714 21.2448 127.766 21.1406C127.818 21.026 127.854 20.8906 127.875 20.7344C127.906 20.5677 127.922 20.3646 127.922 20.125C127.922 19.8646 127.891 19.5781 127.828 19.2656C127.776 18.9427 127.682 18.6406 127.547 18.3594C127.411 18.0781 127.24 17.8438 127.031 17.6562C126.823 17.4688 126.573 17.375 126.281 17.375C125.906 17.375 125.583 17.4896 125.312 17.7188C125.052 17.9375 124.833 18.224 124.656 18.5781C124.49 18.9323 124.354 19.3385 124.25 19.7969C124.156 20.2448 124.083 20.6979 124.031 21.1562C123.979 21.6146 123.948 22.0573 123.938 22.4844C123.927 22.901 123.922 23.2552 123.922 23.5469L127.219 21.6562ZM139.875 17.0312C139.635 17.0312 139.406 17.0625 139.188 17.125C138.979 17.1875 138.792 17.2917 138.625 17.4375C138.458 17.5729 138.328 17.75 138.234 17.9688C138.141 18.1771 138.094 18.4271 138.094 18.7188C138.094 19.125 138.24 19.5312 138.531 19.9375C138.833 20.3333 139.203 20.75 139.641 21.1875C140.089 21.6146 140.568 22.0625 141.078 22.5312C141.599 22.9896 142.078 23.4792 142.516 24C142.964 24.5104 143.333 25.0573 143.625 25.6406C143.927 26.224 144.078 26.849 144.078 27.5156C144.078 28.2656 143.948 28.9323 143.688 29.5156C143.438 30.099 143.073 30.5938 142.594 31C142.125 31.4062 141.552 31.7188 140.875 31.9375C140.208 32.1458 139.464 32.25 138.641 32.25C137.922 32.25 137.271 32.151 136.688 31.9531C136.104 31.7448 135.583 31.4948 135.125 31.2031C134.677 30.901 134.292 30.5833 133.969 30.25C133.646 29.9167 133.396 29.6146 133.219 29.3438L133.766 28.9531C133.901 29.1094 134.073 29.2812 134.281 29.4688C134.49 29.6458 134.719 29.8125 134.969 29.9688C135.229 30.125 135.505 30.2552 135.797 30.3594C136.089 30.4531 136.385 30.5 136.688 30.5C137.438 30.5 138.052 30.3229 138.531 29.9688C139.01 29.6042 139.25 29.0677 139.25 28.3594C139.25 27.9635 139.12 27.5573 138.859 27.1406C138.599 26.7135 138.271 26.276 137.875 25.8281C137.479 25.3802 137.052 24.9167 136.594 24.4375C136.135 23.9583 135.708 23.4635 135.312 22.9531C134.917 22.4427 134.589 21.9167 134.328 21.375C134.068 20.8333 133.938 20.2708 133.938 19.6875C133.938 19.0312 134.068 18.4583 134.328 17.9688C134.599 17.4792 134.953 17.0729 135.391 16.75C135.839 16.4271 136.344 16.1875 136.906 16.0312C137.479 15.8646 138.068 15.7812 138.672 15.7812C139.37 15.7812 140.005 15.8438 140.578 15.9688C141.151 16.0938 141.641 16.2865 142.047 16.5469C142.464 16.7969 142.781 17.1146 143 17.5C143.229 17.8854 143.344 18.3333 143.344 18.8438C143.344 19.2396 143.214 19.5833 142.953 19.875C142.693 20.1667 142.328 20.3125 141.859 20.3125C141.411 20.3125 141.068 20.2188 140.828 20.0312C140.599 19.8333 140.484 19.5677 140.484 19.2344C140.484 19.0156 140.536 18.8438 140.641 18.7188C140.755 18.5938 140.88 18.4948 141.016 18.4219C141.151 18.3385 141.271 18.2708 141.375 18.2188C141.49 18.1562 141.547 18.0781 141.547 17.9844C141.547 17.6927 141.391 17.4635 141.078 17.2969C140.766 17.1198 140.365 17.0312 139.875 17.0312ZM151.969 30.5938C151.969 30.7292 151.943 30.8958 151.891 31.0938C151.849 31.2812 151.74 31.4635 151.562 31.6406C151.396 31.8073 151.151 31.9479 150.828 32.0625C150.505 32.1875 150.068 32.25 149.516 32.25C148.964 32.25 148.531 32.1823 148.219 32.0469C147.906 31.9219 147.672 31.7708 147.516 31.5938C147.359 31.4167 147.26 31.2344 147.219 31.0469C147.188 30.8594 147.172 30.7083 147.172 30.5938V18.5312C147.172 18.2292 147.099 17.9688 146.953 17.75C146.818 17.5208 146.583 17.4062 146.25 17.4062C146.073 17.4062 145.922 17.4375 145.797 17.5C145.672 17.5625 145.536 17.651 145.391 17.7656L145.062 17.375C145.302 17.1771 145.568 16.9844 145.859 16.7969C146.161 16.599 146.484 16.4271 146.828 16.2812C147.172 16.1354 147.542 16.0156 147.938 15.9219C148.333 15.8281 148.75 15.7812 149.188 15.7812C149.865 15.7812 150.391 15.875 150.766 16.0625C151.141 16.2396 151.417 16.4635 151.594 16.7344C151.771 16.9948 151.875 17.276 151.906 17.5781C151.948 17.8802 151.969 18.1458 151.969 18.375V30.5938ZM146.688 12.2188C146.688 11.9271 146.75 11.651 146.875 11.3906C147.01 11.1198 147.193 10.8854 147.422 10.6875C147.661 10.4896 147.932 10.3333 148.234 10.2188C148.547 10.1042 148.885 10.0469 149.25 10.0469C149.604 10.0469 149.932 10.1042 150.234 10.2188C150.547 10.3333 150.818 10.4896 151.047 10.6875C151.276 10.8854 151.453 11.1198 151.578 11.3906C151.714 11.651 151.781 11.9271 151.781 12.2188C151.781 12.5208 151.714 12.8021 151.578 13.0625C151.453 13.3229 151.276 13.5521 151.047 13.75C150.818 13.9375 150.547 14.0885 150.234 14.2031C149.932 14.3177 149.604 14.375 149.25 14.375C148.885 14.375 148.547 14.3177 148.234 14.2031C147.932 14.0885 147.661 13.9375 147.422 13.75C147.193 13.5521 147.01 13.3229 146.875 13.0625C146.75 12.8021 146.688 12.5208 146.688 12.2188ZM159.953 24.8281C159.953 25.1615 160 25.526 160.094 25.9219C160.198 26.3073 160.344 26.6979 160.531 27.0938C160.719 27.4896 160.948 27.8698 161.219 28.2344C161.5 28.5885 161.818 28.9062 162.172 29.1875C162.536 29.4688 162.938 29.6927 163.375 29.8594C163.812 30.026 164.292 30.1094 164.812 30.1094C165.177 30.1094 165.516 30.0677 165.828 29.9844C166.141 29.901 166.432 29.7865 166.703 29.6406C166.974 29.4948 167.234 29.3281 167.484 29.1406C167.734 28.9427 167.984 28.7344 168.234 28.5156L168.625 28.8906C168.385 29.2135 168.078 29.5677 167.703 29.9531C167.328 30.3385 166.875 30.7031 166.344 31.0469C165.812 31.3802 165.193 31.6615 164.484 31.8906C163.776 32.1094 162.969 32.2188 162.062 32.2188C161.156 32.2188 160.271 32.0573 159.406 31.7344C158.552 31.401 157.792 30.9062 157.125 30.25C156.458 29.5938 155.922 28.776 155.516 27.7969C155.12 26.8177 154.922 25.6719 154.922 24.3594C154.922 23.4115 155.042 22.5417 155.281 21.75C155.521 20.9583 155.844 20.2448 156.25 19.6094C156.667 18.974 157.146 18.4167 157.688 17.9375C158.24 17.4583 158.818 17.0625 159.422 16.75C160.026 16.4271 160.641 16.1875 161.266 16.0312C161.901 15.8646 162.51 15.7812 163.094 15.7812C163.865 15.7812 164.536 15.8646 165.109 16.0312C165.682 16.1979 166.156 16.4219 166.531 16.7031C166.917 16.9844 167.203 17.3125 167.391 17.6875C167.578 18.0521 167.672 18.4375 167.672 18.8438C167.672 19.3333 167.531 19.776 167.25 20.1719C166.969 20.5573 166.594 20.8958 166.125 21.1875L159.953 24.8281ZM163.094 21.6562C163.229 21.5729 163.339 21.4948 163.422 21.4219C163.516 21.3385 163.589 21.2448 163.641 21.1406C163.693 21.026 163.729 20.8906 163.75 20.7344C163.781 20.5677 163.797 20.3646 163.797 20.125C163.797 19.8646 163.766 19.5781 163.703 19.2656C163.651 18.9427 163.557 18.6406 163.422 18.3594C163.286 18.0781 163.115 17.8438 162.906 17.6562C162.698 17.4688 162.448 17.375 162.156 17.375C161.781 17.375 161.458 17.4896 161.188 17.7188C160.927 17.9375 160.708 18.224 160.531 18.5781C160.365 18.9323 160.229 19.3385 160.125 19.7969C160.031 20.2448 159.958 20.6979 159.906 21.1562C159.854 21.6146 159.823 22.0573 159.812 22.4844C159.802 22.901 159.797 23.2552 159.797 23.5469L163.094 21.6562ZM189.766 20.7344C189.766 20.0469 189.719 19.4792 189.625 19.0312C189.531 18.5833 189.427 18.2135 189.312 17.9219C189.208 17.6198 189.109 17.375 189.016 17.1875C188.922 16.9896 188.875 16.8073 188.875 16.6406C188.875 16.4844 188.938 16.3542 189.062 16.25C189.188 16.1458 189.333 16.0573 189.5 15.9844C189.677 15.9115 189.854 15.8594 190.031 15.8281C190.219 15.7969 190.37 15.7812 190.484 15.7812C190.786 15.7812 191.005 15.8229 191.141 15.9062C191.276 15.9896 191.385 16.151 191.469 16.3906C191.562 16.6927 191.625 17.0938 191.656 17.5938C191.698 18.0833 191.719 18.6094 191.719 19.1719C191.719 19.974 191.672 20.8542 191.578 21.8125C191.484 22.7708 191.333 23.7344 191.125 24.7031C190.927 25.6719 190.667 26.6094 190.344 27.5156C190.031 28.4219 189.651 29.2292 189.203 29.9375C188.755 30.6354 188.24 31.1979 187.656 31.625C187.073 32.0417 186.411 32.25 185.672 32.25C185.089 32.25 184.562 32.1354 184.094 31.9062C183.635 31.6667 183.224 31.3438 182.859 30.9375C182.495 30.5312 182.172 30.0573 181.891 29.5156C181.62 28.9635 181.38 28.375 181.172 27.75C180.932 28.3854 180.656 28.9792 180.344 29.5312C180.031 30.0729 179.682 30.5469 179.297 30.9531C178.922 31.3594 178.505 31.6771 178.047 31.9062C177.589 32.1354 177.094 32.25 176.562 32.25C175.906 32.25 175.323 32.1094 174.812 31.8281C174.312 31.5365 173.87 31.1458 173.484 30.6562C173.099 30.1562 172.766 29.5781 172.484 28.9219C172.203 28.2656 171.958 27.5729 171.75 26.8438C171.552 26.1146 171.385 25.3646 171.25 24.5938C171.115 23.8229 171 23.0781 170.906 22.3594C170.812 21.6406 170.734 20.9688 170.672 20.3438C170.609 19.7188 170.547 19.1771 170.484 18.7188C170.411 18.3021 170.302 17.9792 170.156 17.75C170.021 17.5208 169.786 17.4062 169.453 17.4062C169.276 17.4062 169.125 17.4375 169 17.5C168.875 17.5625 168.74 17.651 168.594 17.7656L168.266 17.375C168.505 17.1771 168.771 16.9844 169.062 16.7969C169.365 16.599 169.688 16.4271 170.031 16.2812C170.375 16.1354 170.745 16.0156 171.141 15.9219C171.536 15.8281 171.953 15.7812 172.391 15.7812C173.016 15.7812 173.521 15.8906 173.906 16.1094C174.292 16.3177 174.594 16.5833 174.812 16.9062C175.042 17.2188 175.203 17.5573 175.297 17.9219C175.391 18.2865 175.458 18.6146 175.5 18.9062C175.688 20.4792 175.87 21.8646 176.047 23.0625C176.234 24.2604 176.432 25.2656 176.641 26.0781C176.849 26.8802 177.073 27.4896 177.312 27.9062C177.562 28.3125 177.854 28.5156 178.188 28.5156C178.406 28.5156 178.62 28.4219 178.828 28.2344C179.036 28.0469 179.234 27.7865 179.422 27.4531C179.609 27.1198 179.786 26.7188 179.953 26.25C180.12 25.7708 180.266 25.2448 180.391 24.6719C180.286 24.099 180.198 23.5312 180.125 22.9688C180.052 22.4062 179.984 21.8698 179.922 21.3594C179.87 20.8385 179.818 20.3542 179.766 19.9062C179.714 19.4583 179.656 19.0625 179.594 18.7188C179.438 17.7396 179.526 17.0052 179.859 16.5156C180.203 16.026 180.885 15.7812 181.906 15.7812C182.354 15.7812 182.729 15.8229 183.031 15.9062C183.344 15.9792 183.599 16.125 183.797 16.3438C184.005 16.5521 184.172 16.8438 184.297 17.2188C184.422 17.5833 184.521 18.0521 184.594 18.625C184.792 20.1875 184.984 21.5833 185.172 22.8125C185.359 24.0417 185.557 25.0781 185.766 25.9219C185.974 26.7656 186.198 27.4115 186.438 27.8594C186.688 28.2969 186.979 28.5156 187.312 28.5156C187.667 28.5156 187.995 28.2969 188.297 27.8594C188.599 27.4219 188.859 26.8438 189.078 26.125C189.297 25.4062 189.464 24.5781 189.578 23.6406C189.703 22.7031 189.766 21.7344 189.766 20.7344ZM199.75 30.5938C199.75 30.7292 199.724 30.8958 199.672 31.0938C199.63 31.2812 199.521 31.4635 199.344 31.6406C199.177 31.8073 198.932 31.9479 198.609 32.0625C198.286 32.1875 197.849 32.25 197.297 32.25C196.745 32.25 196.312 32.1823 196 32.0469C195.688 31.9219 195.453 31.7708 195.297 31.5938C195.141 31.4167 195.042 31.2344 195 31.0469C194.969 30.8594 194.953 30.7083 194.953 30.5938V18.5312C194.953 18.2292 194.88 17.9688 194.734 17.75C194.599 17.5208 194.365 17.4062 194.031 17.4062C193.854 17.4062 193.703 17.4375 193.578 17.5C193.453 17.5625 193.318 17.651 193.172 17.7656L192.844 17.375C193.083 17.1771 193.349 16.9844 193.641 16.7969C193.943 16.599 194.266 16.4271 194.609 16.2812C194.953 16.1354 195.323 16.0156 195.719 15.9219C196.115 15.8281 196.531 15.7812 196.969 15.7812C197.646 15.7812 198.172 15.875 198.547 16.0625C198.922 16.2396 199.198 16.4635 199.375 16.7344C199.552 16.9948 199.656 17.276 199.688 17.5781C199.729 17.8802 199.75 18.1458 199.75 18.375V30.5938ZM194.469 12.2188C194.469 11.9271 194.531 11.651 194.656 11.3906C194.792 11.1198 194.974 10.8854 195.203 10.6875C195.443 10.4896 195.714 10.3333 196.016 10.2188C196.328 10.1042 196.667 10.0469 197.031 10.0469C197.385 10.0469 197.714 10.1042 198.016 10.2188C198.328 10.3333 198.599 10.4896 198.828 10.6875C199.057 10.8854 199.234 11.1198 199.359 11.3906C199.495 11.651 199.562 11.9271 199.562 12.2188C199.562 12.5208 199.495 12.8021 199.359 13.0625C199.234 13.3229 199.057 13.5521 198.828 13.75C198.599 13.9375 198.328 14.0885 198.016 14.2031C197.714 14.3177 197.385 14.375 197.031 14.375C196.667 14.375 196.328 14.3177 196.016 14.2031C195.714 14.0885 195.443 13.9375 195.203 13.75C194.974 13.5521 194.792 13.3229 194.656 13.0625C194.531 12.8021 194.469 12.5208 194.469 12.2188ZM213.625 21.1875C213.302 21.1875 213.031 21.1406 212.812 21.0469C212.594 20.9427 212.417 20.8073 212.281 20.6406C212.146 20.474 212.047 20.2917 211.984 20.0938C211.922 19.8854 211.891 19.6719 211.891 19.4531C211.891 19.1719 211.906 18.901 211.938 18.6406C211.979 18.3802 211.984 18.1458 211.953 17.9375C211.932 17.7292 211.854 17.5625 211.719 17.4375C211.583 17.3125 211.344 17.25 211 17.25C210.635 17.25 210.25 17.3542 209.844 17.5625C209.438 17.7708 209.068 18.099 208.734 18.5469C208.401 18.9948 208.125 19.5729 207.906 20.2812C207.688 20.9792 207.578 21.8229 207.578 22.8125C207.578 23.9062 207.677 24.9062 207.875 25.8125C208.083 26.7083 208.391 27.474 208.797 28.1094C209.203 28.7448 209.708 29.2396 210.312 29.5938C210.917 29.9375 211.625 30.1094 212.438 30.1094C212.802 30.1094 213.146 30.0677 213.469 29.9844C213.802 29.901 214.115 29.7865 214.406 29.6406C214.698 29.4948 214.974 29.3281 215.234 29.1406C215.505 28.9427 215.766 28.7344 216.016 28.5156L216.406 28.8906C216.167 29.2135 215.859 29.5677 215.484 29.9531C215.109 30.3385 214.656 30.7031 214.125 31.0469C213.594 31.3802 212.974 31.6615 212.266 31.8906C211.557 32.1094 210.75 32.2188 209.844 32.2188C208.938 32.2188 208.052 32.0469 207.188 31.7031C206.333 31.349 205.573 30.8385 204.906 30.1719C204.24 29.5052 203.703 28.6979 203.297 27.75C202.901 26.7917 202.703 25.7031 202.703 24.4844C202.703 23.5365 202.823 22.6667 203.062 21.875C203.302 21.0729 203.625 20.349 204.031 19.7031C204.448 19.0573 204.927 18.4896 205.469 18C206.021 17.5104 206.599 17.1042 207.203 16.7812C207.807 16.4479 208.422 16.1979 209.047 16.0312C209.682 15.8646 210.292 15.7812 210.875 15.7812C211.646 15.7812 212.318 15.8698 212.891 16.0469C213.464 16.224 213.938 16.4583 214.312 16.75C214.698 17.0417 214.984 17.3802 215.172 17.7656C215.359 18.1406 215.453 18.5312 215.453 18.9375C215.453 19.2396 215.411 19.5312 215.328 19.8125C215.255 20.0833 215.141 20.3229 214.984 20.5312C214.839 20.7292 214.651 20.8906 214.422 21.0156C214.193 21.1302 213.927 21.1875 213.625 21.1875ZM224.453 18.4062C224.557 18.2708 224.646 18.125 224.719 17.9688C224.802 17.8125 224.844 17.6667 224.844 17.5312C224.844 17.3333 224.688 17.1927 224.375 17.1094C224.062 17.026 223.484 16.9844 222.641 16.9844C222.12 16.9844 221.688 17.0469 221.344 17.1719C221 17.2969 220.714 17.4531 220.484 17.6406C220.266 17.8177 220.083 18.0156 219.938 18.2344C219.802 18.4531 219.682 18.6562 219.578 18.8438C219.474 19.0208 219.37 19.1719 219.266 19.2969C219.172 19.4219 219.047 19.4844 218.891 19.4844C218.714 19.4844 218.557 19.4271 218.422 19.3125C218.297 19.1979 218.193 19.0573 218.109 18.8906C218.026 18.7135 217.964 18.526 217.922 18.3281C217.88 18.1198 217.859 17.9219 217.859 17.7344C217.859 17.4531 217.979 17.1927 218.219 16.9531C218.458 16.7135 218.807 16.5104 219.266 16.3438C219.724 16.1667 220.281 16.0312 220.938 15.9375C221.604 15.8333 222.365 15.7812 223.219 15.7812C224.604 15.7812 225.729 15.8385 226.594 15.9531C227.469 16.0677 228.151 16.224 228.641 16.4219C229.13 16.6094 229.464 16.8385 229.641 17.1094C229.818 17.3802 229.906 17.6719 229.906 17.9844C229.906 18.151 229.865 18.3385 229.781 18.5469C229.708 18.7448 229.615 18.9375 229.5 19.125C229.396 19.3125 229.286 19.4896 229.172 19.6562C229.068 19.8125 228.99 19.9271 228.938 20L222.438 29.9531C222.406 30.0052 222.354 30.0885 222.281 30.2031C222.219 30.3073 222.188 30.4271 222.188 30.5625C222.188 30.6458 222.214 30.7188 222.266 30.7812C222.328 30.8438 222.438 30.8958 222.594 30.9375C222.76 30.9792 222.995 31.0104 223.297 31.0312C223.599 31.0417 223.995 31.0469 224.484 31.0469C225.109 31.0469 225.625 30.9792 226.031 30.8438C226.448 30.7083 226.786 30.5365 227.047 30.3281C227.307 30.1198 227.516 29.901 227.672 29.6719C227.828 29.4323 227.964 29.2083 228.078 29C228.193 28.7917 228.302 28.6198 228.406 28.4844C228.521 28.349 228.667 28.2812 228.844 28.2812C229.021 28.2812 229.177 28.349 229.312 28.4844C229.448 28.6094 229.562 28.7708 229.656 28.9688C229.75 29.1667 229.818 29.3802 229.859 29.6094C229.911 29.8385 229.938 30.0469 229.938 30.2344C229.938 30.5156 229.812 30.7812 229.562 31.0312C229.312 31.2708 228.932 31.4844 228.422 31.6719C227.911 31.849 227.26 31.9896 226.469 32.0938C225.688 32.1979 224.76 32.25 223.688 32.25C222.531 32.25 221.547 32.2031 220.734 32.1094C219.922 32.0156 219.26 31.8802 218.75 31.7031C218.24 31.5156 217.87 31.2812 217.641 31C217.411 30.7188 217.297 30.3906 217.297 30.0156C217.297 29.7135 217.365 29.4167 217.5 29.125C217.646 28.8229 217.854 28.4792 218.125 28.0938L224.453 18.4062Z" fill="#600106"/>
<path d="M17.0938 25.4062L11.4688 14.2031L11.2656 17.9688C11.2031 19.0625 11.1458 20.151 11.0938 21.2344C11.0521 22.3073 10.9688 23.3333 10.8438 24.3125C10.7188 25.2812 10.5208 26.1823 10.25 27.0156C9.98958 27.849 9.60417 28.5729 9.09375 29.1875C8.59375 29.7917 7.9375 30.2656 7.125 30.6094C6.32292 30.9531 5.31771 31.125 4.10938 31.125C3.57812 31.125 3.06771 31.0833 2.57812 31C2.08854 30.9062 1.65625 30.7812 1.28125 30.625C0.90625 30.4688 0.609375 30.2865 0.390625 30.0781C0.161458 29.8594 0.046875 29.625 0.046875 29.375C0.046875 29.1875 0.0729167 29 0.125 28.8125C0.177083 28.6146 0.255208 28.4375 0.359375 28.2812C0.463542 28.1146 0.59375 27.9844 0.75 27.8906C0.895833 27.7865 1.0625 27.7344 1.25 27.7344C1.36458 27.7344 1.46354 27.7917 1.54688 27.9062C1.64062 28.0208 1.73438 28.1667 1.82812 28.3438C1.92188 28.5104 2.02604 28.6927 2.14062 28.8906C2.26562 29.0885 2.42188 29.276 2.60938 29.4531C2.80729 29.6198 3.04167 29.7604 3.3125 29.875C3.58333 29.9896 3.92188 30.0469 4.32812 30.0469C5.13021 30.0469 5.80208 29.9115 6.34375 29.6406C6.89583 29.3594 7.34896 28.9583 7.70312 28.4375C8.05729 27.9167 8.32812 27.2865 8.51562 26.5469C8.70312 25.8073 8.84375 24.9688 8.9375 24.0312C8.97917 23.5104 9.02083 23.0104 9.0625 22.5312C9.10417 22.0417 9.14583 21.5573 9.1875 21.0781C9.22917 20.599 9.26562 20.1146 9.29688 19.625C9.33854 19.125 9.38021 18.599 9.42188 18.0469C9.47396 17.2448 9.52083 16.4844 9.5625 15.7656C9.60417 15.0365 9.63542 14.3594 9.65625 13.7344C9.6875 13.1094 9.70833 12.5469 9.71875 12.0469C9.73958 11.5469 9.75521 11.1146 9.76562 10.75C9.58854 10.3854 9.43229 10.0938 9.29688 9.875C9.16146 9.64583 9.02083 9.47396 8.875 9.35938C8.72917 9.23438 8.56771 9.15104 8.39062 9.10938C8.21354 9.06771 8 9.04688 7.75 9.04688C7.54167 9.04688 7.28125 9.08854 6.96875 9.17188C6.66667 9.24479 6.34896 9.35417 6.01562 9.5C5.69271 9.64583 5.36458 9.82812 5.03125 10.0469C4.70833 10.2552 4.41667 10.5 4.15625 10.7812C3.90625 11.0521 3.69792 11.3542 3.53125 11.6875C3.375 12.0208 3.29688 12.3802 3.29688 12.7656C3.29688 13.099 3.33854 13.3646 3.42188 13.5625C3.51562 13.7604 3.61979 13.9115 3.73438 14.0156C3.85938 14.1094 3.97917 14.1719 4.09375 14.2031C4.21875 14.224 4.30729 14.2344 4.35938 14.2344C4.61979 14.2344 4.83333 14.1927 5 14.1094C5.16667 14.0156 5.31771 13.9219 5.45312 13.8281C5.58854 13.724 5.71354 13.6302 5.82812 13.5469C5.95312 13.4531 6.09375 13.4062 6.25 13.4062C6.375 13.4062 6.50521 13.4375 6.64062 13.5C6.78646 13.5521 6.91667 13.6406 7.03125 13.7656C7.15625 13.8906 7.26042 14.0573 7.34375 14.2656C7.42708 14.4635 7.46875 14.7083 7.46875 15C7.46875 15.4167 7.38542 15.776 7.21875 16.0781C7.0625 16.3802 6.85417 16.6354 6.59375 16.8438C6.34375 17.0417 6.05208 17.1927 5.71875 17.2969C5.39583 17.3906 5.07292 17.4375 4.75 17.4375C4.25 17.4375 3.79688 17.3542 3.39062 17.1875C2.99479 17.0104 2.65625 16.7708 2.375 16.4688C2.09375 16.1667 1.88021 15.8125 1.73438 15.4062C1.58854 15 1.51562 14.5677 1.51562 14.1094C1.51562 13.026 1.76562 12.0833 2.26562 11.2812C2.76562 10.4688 3.42188 9.79167 4.23438 9.25C5.04688 8.70833 5.96354 8.30729 6.98438 8.04688C8.01562 7.77604 9.0625 7.64062 10.125 7.64062C10.9792 7.64062 11.6927 7.72917 12.2656 7.90625C12.8385 8.07292 13.3177 8.30208 13.7031 8.59375C14.0885 8.875 14.4062 9.20833 14.6562 9.59375C14.9062 9.97917 15.1354 10.3854 15.3438 10.8125L19.4688 19.1875C20.5417 17.0729 21.5156 15.1823 22.3906 13.5156C23.276 11.8385 24.0938 10.3646 24.8438 9.09375C25.5938 7.82292 26.2917 6.73958 26.9375 5.84375C27.5938 4.94792 28.224 4.21875 28.8281 3.65625C29.4427 3.08333 30.0469 2.66667 30.6406 2.40625C31.2448 2.14583 31.8698 2.01562 32.5156 2.01562C33.0677 2.01562 33.5156 2.13542 33.8594 2.375C34.2031 2.60417 34.375 2.95312 34.375 3.42188C34.375 3.83854 34.3073 4.18229 34.1719 4.45312C34.0365 4.72396 33.849 4.85938 33.6094 4.85938C33.4115 4.85938 33.2604 4.78646 33.1562 4.64062C33.0521 4.48438 32.9479 4.31771 32.8438 4.14062C32.75 3.96354 32.6302 3.80208 32.4844 3.65625C32.3385 3.5 32.125 3.42188 31.8438 3.42188C31.6771 3.42188 31.474 3.46875 31.2344 3.5625C30.9948 3.65625 30.7448 3.79688 30.4844 3.98438C30.2344 4.17188 29.9844 4.40625 29.7344 4.6875C29.4844 4.96875 29.2656 5.29688 29.0781 5.67188C28.8906 6.04688 28.7448 6.47396 28.6406 6.95312C28.5365 7.43229 28.5052 7.95833 28.5469 8.53125C28.5885 9.1875 28.6458 9.95833 28.7188 10.8438C28.7917 11.7188 28.8698 12.6615 28.9531 13.6719C29.0469 14.6719 29.1406 15.7083 29.2344 16.7812C29.3385 17.8542 29.4427 18.9115 29.5469 19.9531C29.651 20.9948 29.75 21.9948 29.8438 22.9531C29.9479 23.9115 30.0417 24.7812 30.125 25.5625C30.2083 26.3333 30.2865 26.9896 30.3594 27.5312C30.4323 28.0625 30.4896 28.4271 30.5312 28.625C30.5938 28.9271 30.6771 29.1719 30.7812 29.3594C30.8854 29.5365 31.0729 29.625 31.3438 29.625C31.625 29.625 31.8906 29.5781 32.1406 29.4844C32.3906 29.3802 32.6146 29.276 32.8125 29.1719L33.0625 29.75C32.875 29.8854 32.6354 30.0417 32.3438 30.2188C32.0625 30.3854 31.7344 30.5469 31.3594 30.7031C30.9948 30.8594 30.5885 30.9896 30.1406 31.0938C29.7031 31.1979 29.2292 31.25 28.7188 31.25C28 31.25 27.4323 31.1615 27.0156 30.9844C26.599 30.7969 26.276 30.5729 26.0469 30.3125C25.8281 30.0417 25.6771 29.7604 25.5938 29.4688C25.5208 29.1667 25.4635 28.8958 25.4219 28.6562C25.3281 28.125 25.2292 27.4844 25.125 26.7344C25.0208 25.9844 24.9167 25.1823 24.8125 24.3281C24.7188 23.4635 24.625 22.5781 24.5312 21.6719C24.4375 20.7552 24.349 19.8646 24.2656 19C24.1927 18.125 24.125 17.3021 24.0625 16.5312C24 15.7604 23.9479 15.0885 23.9062 14.5156C23.5938 15.026 23.3021 15.5208 23.0312 16C22.7708 16.4688 22.5156 16.9531 22.2656 17.4531C22.0156 17.9427 21.7604 18.4583 21.5 19C21.2396 19.5417 20.9635 20.1302 20.6719 20.7656C20.3906 21.401 20.0781 22.099 19.7344 22.8594C19.401 23.6198 19.0312 24.4688 18.625 25.4062H17.0938ZM42.0781 22.9062C42.0781 22.6458 41.9948 22.4479 41.8281 22.3125C41.6615 22.1771 41.4479 22.1094 41.1875 22.1094C40.8229 22.1094 40.474 22.1927 40.1406 22.3594C39.8177 22.526 39.5312 22.7708 39.2812 23.0938C39.0312 23.4167 38.8333 23.8177 38.6875 24.2969C38.5417 24.7656 38.4688 25.3125 38.4688 25.9375C38.4688 26.5417 38.5104 27.0417 38.5938 27.4375C38.6875 27.8333 38.8073 28.151 38.9531 28.3906C39.1094 28.6198 39.2865 28.7812 39.4844 28.875C39.6823 28.9688 39.8906 29.0156 40.1094 29.0156C40.3802 29.0156 40.6354 28.9479 40.875 28.8125C41.1146 28.6667 41.3229 28.4844 41.5 28.2656C41.6771 28.0469 41.8177 27.8021 41.9219 27.5312C42.026 27.2604 42.0781 26.9896 42.0781 26.7188V22.9062ZM39.5938 16.0625C39.2396 16.0625 38.9115 16.1042 38.6094 16.1875C38.3073 16.2708 38.0469 16.375 37.8281 16.5C37.6094 16.625 37.4375 16.7656 37.3125 16.9219C37.1875 17.0677 37.125 17.2083 37.125 17.3438C37.125 17.5 37.2031 17.6146 37.3594 17.6875C37.526 17.75 37.7083 17.8281 37.9062 17.9219C38.1042 18.0052 38.2812 18.1302 38.4375 18.2969C38.6042 18.4531 38.6875 18.6979 38.6875 19.0312C38.6875 19.25 38.6406 19.4531 38.5469 19.6406C38.4635 19.8177 38.3438 19.9792 38.1875 20.125C38.0417 20.2604 37.8646 20.3698 37.6562 20.4531C37.4583 20.526 37.25 20.5625 37.0312 20.5625C36.4479 20.5625 35.974 20.3646 35.6094 19.9688C35.2552 19.5729 35.0781 19.0469 35.0781 18.3906C35.0781 17.7552 35.2448 17.2135 35.5781 16.7656C35.9115 16.3073 36.3438 15.9323 36.875 15.6406C37.4167 15.349 38.026 15.1354 38.7031 15C39.3802 14.8542 40.0573 14.7812 40.7344 14.7812C41.5469 14.7812 42.3229 14.8698 43.0625 15.0469C43.8021 15.224 44.4531 15.5052 45.0156 15.8906C45.5885 16.276 46.0417 16.7656 46.375 17.3594C46.7188 17.9531 46.8906 18.6719 46.8906 19.5156V28.3438C46.8906 28.4375 46.8958 28.5417 46.9062 28.6562C46.9167 28.7708 46.9427 28.875 46.9844 28.9688C47.026 29.0625 47.0885 29.1406 47.1719 29.2031C47.2552 29.2656 47.375 29.2969 47.5312 29.2969C47.7188 29.2969 47.8906 29.2292 48.0469 29.0938C48.2135 28.9479 48.3594 28.8021 48.4844 28.6562L48.875 28.9844C48.7188 29.2031 48.5312 29.4427 48.3125 29.7031C48.0938 29.9635 47.8281 30.2083 47.5156 30.4375C47.2031 30.6667 46.8385 30.8594 46.4219 31.0156C46.0052 31.1719 45.5312 31.25 45 31.25C44.3438 31.25 43.7604 31.0573 43.25 30.6719C42.7396 30.276 42.4062 29.6719 42.25 28.8594C41.9167 29.3073 41.5677 29.6823 41.2031 29.9844C40.849 30.2865 40.4844 30.5312 40.1094 30.7188C39.7344 30.9062 39.3542 31.0417 38.9688 31.125C38.5938 31.2083 38.2135 31.25 37.8281 31.25C37.3281 31.25 36.8438 31.1719 36.375 31.0156C35.9062 30.8594 35.4844 30.6146 35.1094 30.2812C34.7448 29.9375 34.4479 29.4948 34.2188 28.9531C34 28.4115 33.8906 27.75 33.8906 26.9688C33.8906 26.0208 34.0781 25.2448 34.4531 24.6406C34.8281 24.0365 35.3177 23.5312 35.9219 23.125C36.5365 22.7083 37.2292 22.3542 38 22.0625C38.7812 21.7708 39.5781 21.4635 40.3906 21.1406C40.9948 20.901 41.4323 20.5469 41.7031 20.0781C41.9844 19.599 42.125 19.1094 42.125 18.6094C42.125 17.8385 41.8958 17.224 41.4375 16.7656C40.9896 16.2969 40.375 16.0625 39.5938 16.0625ZM55.9688 18.0781C56.3646 17.474 56.7865 16.9271 57.2344 16.4375C57.4219 16.2292 57.625 16.026 57.8438 15.8281C58.0625 15.6302 58.2865 15.4531 58.5156 15.2969C58.7552 15.1406 59 15.0156 59.25 14.9219C59.5 14.8281 59.75 14.7812 60 14.7812C60.5312 14.7812 60.9479 14.9427 61.25 15.2656C61.5521 15.5781 61.7031 16.0208 61.7031 16.5938C61.7031 16.9479 61.6719 17.2917 61.6094 17.625C61.5573 17.9479 61.4479 18.3438 61.2812 18.8125H60.8438C60.7812 18.4896 60.6354 18.224 60.4062 18.0156C60.1771 17.7969 59.8438 17.6875 59.4062 17.6875C59.0833 17.6875 58.7656 17.75 58.4531 17.875C58.1406 17.9896 57.8333 18.1354 57.5312 18.3125C57.2396 18.4896 56.9583 18.6823 56.6875 18.8906C56.4271 19.099 56.1875 19.2969 55.9688 19.4844V29.625C55.9688 29.7604 55.9479 29.9219 55.9062 30.1094C55.8646 30.2969 55.7604 30.474 55.5938 30.6406C55.4375 30.8073 55.1979 30.9479 54.875 31.0625C54.5625 31.1875 54.1302 31.25 53.5781 31.25C53.026 31.25 52.5885 31.1823 52.2656 31.0469C51.9531 30.9219 51.7135 30.7708 51.5469 30.5938C51.3802 30.4167 51.276 30.2344 51.2344 30.0469C51.1927 29.8594 51.1719 29.7083 51.1719 29.5938V17.5312C51.1719 17.2292 51.099 16.9688 50.9531 16.75C50.8177 16.5208 50.5833 16.4062 50.25 16.4062C50.0729 16.4062 49.9219 16.4375 49.7969 16.5C49.6719 16.5625 49.5365 16.651 49.3906 16.7656L49.0625 16.375C49.3021 16.1771 49.5677 15.9844 49.8594 15.7969C50.1615 15.599 50.4844 15.4271 50.8281 15.2812C51.1719 15.1354 51.5417 15.0156 51.9375 14.9219C52.3333 14.8281 52.75 14.7812 53.1875 14.7812C53.6354 14.7812 54.0156 14.8438 54.3281 14.9688C54.651 15.0833 54.9115 15.2396 55.1094 15.4375C55.3177 15.625 55.4792 15.8385 55.5938 16.0781C55.7083 16.3177 55.7917 16.5625 55.8438 16.8125C55.9062 17.0521 55.9427 17.2865 55.9531 17.5156C55.9635 17.7344 55.9688 17.9219 55.9688 18.0781ZM72.9688 20.1875C72.6458 20.1875 72.375 20.1406 72.1562 20.0469C71.9375 19.9427 71.7604 19.8073 71.625 19.6406C71.4896 19.474 71.3906 19.2917 71.3281 19.0938C71.2656 18.8854 71.2344 18.6719 71.2344 18.4531C71.2344 18.1719 71.25 17.901 71.2812 17.6406C71.3229 17.3802 71.3281 17.1458 71.2969 16.9375C71.276 16.7292 71.1979 16.5625 71.0625 16.4375C70.9271 16.3125 70.6875 16.25 70.3438 16.25C69.9792 16.25 69.5938 16.3542 69.1875 16.5625C68.7812 16.7708 68.4115 17.099 68.0781 17.5469C67.7448 17.9948 67.4688 18.5729 67.25 19.2812C67.0312 19.9792 66.9219 20.8229 66.9219 21.8125C66.9219 22.9062 67.0208 23.9062 67.2188 24.8125C67.4271 25.7083 67.7344 26.474 68.1406 27.1094C68.5469 27.7448 69.0521 28.2396 69.6562 28.5938C70.2604 28.9375 70.9688 29.1094 71.7812 29.1094C72.1458 29.1094 72.4896 29.0677 72.8125 28.9844C73.1458 28.901 73.4583 28.7865 73.75 28.6406C74.0417 28.4948 74.3177 28.3281 74.5781 28.1406C74.849 27.9427 75.1094 27.7344 75.3594 27.5156L75.75 27.8906C75.5104 28.2135 75.2031 28.5677 74.8281 28.9531C74.4531 29.3385 74 29.7031 73.4688 30.0469C72.9375 30.3802 72.3177 30.6615 71.6094 30.8906C70.901 31.1094 70.0938 31.2188 69.1875 31.2188C68.2812 31.2188 67.3958 31.0469 66.5312 30.7031C65.6771 30.349 64.9167 29.8385 64.25 29.1719C63.5833 28.5052 63.0469 27.6979 62.6406 26.75C62.2448 25.7917 62.0469 24.7031 62.0469 23.4844C62.0469 22.5365 62.1667 21.6667 62.4062 20.875C62.6458 20.0729 62.9688 19.349 63.375 18.7031C63.7917 18.0573 64.2708 17.4896 64.8125 17C65.3646 16.5104 65.9427 16.1042 66.5469 15.7812C67.151 15.4479 67.7656 15.1979 68.3906 15.0312C69.026 14.8646 69.6354 14.7812 70.2188 14.7812C70.9896 14.7812 71.6615 14.8698 72.2344 15.0469C72.8073 15.224 73.2812 15.4583 73.6562 15.75C74.0417 16.0417 74.3281 16.3802 74.5156 16.7656C74.7031 17.1406 74.7969 17.5312 74.7969 17.9375C74.7969 18.2396 74.7552 18.5312 74.6719 18.8125C74.599 19.0833 74.4844 19.3229 74.3281 19.5312C74.1823 19.7292 73.9948 19.8906 73.7656 20.0156C73.5365 20.1302 73.2708 20.1875 72.9688 20.1875ZM96.1875 16.9531C97.1146 15.6198 97.9583 14.4375 98.7188 13.4062C99.4896 12.375 100.198 11.4792 100.844 10.7188C101.49 9.94792 102.089 9.30208 102.641 8.78125C103.203 8.26042 103.745 7.84375 104.266 7.53125C104.797 7.20833 105.323 6.97917 105.844 6.84375C106.365 6.70833 106.911 6.64062 107.484 6.64062C108.849 6.64062 109.531 7.07812 109.531 7.95312C109.531 8.06771 109.521 8.20312 109.5 8.35938C109.479 8.51562 109.438 8.66667 109.375 8.8125C109.323 8.95833 109.245 9.08333 109.141 9.1875C109.036 9.29167 108.906 9.34375 108.75 9.34375C108.635 9.34375 108.5 9.28646 108.344 9.17188C108.198 9.05729 108.026 8.93229 107.828 8.79688C107.63 8.65104 107.401 8.52083 107.141 8.40625C106.88 8.28125 106.589 8.21875 106.266 8.21875C105.911 8.21875 105.505 8.36458 105.047 8.65625C104.599 8.94792 104.109 9.34375 103.578 9.84375C103.057 10.3438 102.51 10.9271 101.938 11.5938C101.375 12.25 100.802 12.9479 100.219 13.6875C101.781 17.25 103.156 20.3385 104.344 22.9531C105.542 25.5677 106.63 27.7344 107.609 29.4531C108.599 31.1615 109.51 32.4323 110.344 33.2656C111.177 34.099 112.016 34.5156 112.859 34.5156C113.005 34.5156 113.151 34.4948 113.297 34.4531C113.443 34.4115 113.573 34.3646 113.688 34.3125C113.823 34.2604 113.958 34.1927 114.094 34.1094L114.422 34.7188C114.245 34.8229 114 34.9479 113.688 35.0938C113.385 35.2396 113.021 35.375 112.594 35.5C112.177 35.6354 111.714 35.75 111.203 35.8438C110.693 35.9375 110.146 35.9844 109.562 35.9844C108.76 35.9844 108.016 35.8594 107.328 35.6094C106.641 35.3594 105.969 34.9531 105.312 34.3906C104.667 33.8385 104.026 33.1094 103.391 32.2031C102.766 31.3073 102.109 30.2083 101.422 28.9062C100.745 27.6042 100.026 26.0885 99.2656 24.3594C98.5052 22.6302 97.6771 20.651 96.7812 18.4219L96.1875 19.3125V28.9531C96.1875 29.7552 95.974 30.3385 95.5469 30.7031C95.1302 31.0677 94.4896 31.25 93.625 31.25C92.75 31.25 92.1042 31.0677 91.6875 30.7031C91.2708 30.3385 91.0625 29.7552 91.0625 28.9531V10.1406C91.0625 9.91146 91.0365 9.72917 90.9844 9.59375C90.9323 9.45833 90.8594 9.35417 90.7656 9.28125C90.6719 9.19792 90.5573 9.14583 90.4219 9.125C90.2969 9.09375 90.1562 9.07812 90 9.07812C89.7708 9.07812 89.4844 9.11458 89.1406 9.1875C88.8073 9.26042 88.4531 9.36979 88.0781 9.51562C87.7031 9.66146 87.3229 9.84375 86.9375 10.0625C86.5625 10.2708 86.224 10.5104 85.9219 10.7812C85.6302 11.0521 85.3906 11.3542 85.2031 11.6875C85.0156 12.0208 84.9219 12.3802 84.9219 12.7656C84.9219 13.099 84.9635 13.3646 85.0469 13.5625C85.1406 13.7604 85.2448 13.9115 85.3594 14.0156C85.474 14.1094 85.5885 14.1719 85.7031 14.2031C85.8281 14.224 85.9167 14.2344 85.9688 14.2344C86.2292 14.2344 86.4427 14.1927 86.6094 14.1094C86.776 14.0156 86.9271 13.9219 87.0625 13.8281C87.1979 13.724 87.3229 13.6302 87.4375 13.5469C87.5625 13.4531 87.7031 13.4062 87.8594 13.4062C87.9844 13.4062 88.1146 13.4375 88.25 13.5C88.3958 13.5521 88.526 13.6406 88.6406 13.7656C88.7656 13.8906 88.8698 14.0573 88.9531 14.2656C89.0365 14.4635 89.0781 14.7083 89.0781 15C89.0781 15.4167 88.9948 15.776 88.8281 16.0781C88.6719 16.3802 88.4635 16.6354 88.2031 16.8438C87.9531 17.0417 87.6615 17.1927 87.3281 17.2969C87.0052 17.3906 86.6823 17.4375 86.3594 17.4375C85.8594 17.4375 85.4062 17.3542 85 17.1875C84.6042 17.0104 84.2656 16.7708 83.9844 16.4688C83.7031 16.1667 83.4896 15.8125 83.3438 15.4062C83.1979 15 83.125 14.5677 83.125 14.1094C83.125 13.3906 83.2552 12.7344 83.5156 12.1406C83.776 11.5365 84.1302 10.9948 84.5781 10.5156C85.0365 10.0365 85.5677 9.61979 86.1719 9.26562C86.7865 8.90104 87.4479 8.59896 88.1562 8.35938C88.8646 8.11979 89.6042 7.94271 90.375 7.82812C91.1458 7.70312 91.9167 7.64062 92.6875 7.64062C93.5417 7.64062 94.2031 7.72396 94.6719 7.89062C95.151 8.04688 95.5 8.23958 95.7188 8.46875C95.9479 8.69792 96.0833 8.9375 96.125 9.1875C96.1667 9.4375 96.1875 9.64583 96.1875 9.8125V16.9531ZM116.094 29.625C116.094 29.7604 116.068 29.9219 116.016 30.1094C115.974 30.2969 115.865 30.474 115.688 30.6406C115.521 30.8073 115.271 30.9479 114.938 31.0625C114.615 31.1875 114.177 31.25 113.625 31.25C113.073 31.25 112.641 31.1823 112.328 31.0469C112.016 30.9219 111.781 30.7708 111.625 30.5938C111.479 30.4167 111.385 30.2344 111.344 30.0469C111.312 29.8594 111.297 29.7083 111.297 29.5938V9.4375C111.297 9.13542 111.224 8.875 111.078 8.65625C110.943 8.42708 110.708 8.3125 110.375 8.3125C110.198 8.3125 110.042 8.34375 109.906 8.40625C109.781 8.45833 109.646 8.54167 109.5 8.65625L109.188 8.28125C109.427 8.08333 109.693 7.89062 109.984 7.70312C110.276 7.50521 110.594 7.33333 110.938 7.1875C111.292 7.04167 111.667 6.92188 112.062 6.82812C112.458 6.73438 112.875 6.6875 113.312 6.6875C113.99 6.6875 114.516 6.78125 114.891 6.96875C115.266 7.14583 115.542 7.36979 115.719 7.64062C115.896 7.90104 116 8.18229 116.031 8.48438C116.073 8.77604 116.094 9.03646 116.094 9.26562V29.625ZM124.078 23.8281C124.078 24.1615 124.125 24.526 124.219 24.9219C124.323 25.3073 124.469 25.6979 124.656 26.0938C124.844 26.4896 125.073 26.8698 125.344 27.2344C125.625 27.5885 125.943 27.9062 126.297 28.1875C126.661 28.4688 127.062 28.6927 127.5 28.8594C127.938 29.026 128.417 29.1094 128.938 29.1094C129.302 29.1094 129.641 29.0677 129.953 28.9844C130.266 28.901 130.557 28.7865 130.828 28.6406C131.099 28.4948 131.359 28.3281 131.609 28.1406C131.859 27.9427 132.109 27.7344 132.359 27.5156L132.75 27.8906C132.51 28.2135 132.203 28.5677 131.828 28.9531C131.453 29.3385 131 29.7031 130.469 30.0469C129.938 30.3802 129.318 30.6615 128.609 30.8906C127.901 31.1094 127.094 31.2188 126.188 31.2188C125.281 31.2188 124.396 31.0573 123.531 30.7344C122.677 30.401 121.917 29.9062 121.25 29.25C120.583 28.5938 120.047 27.776 119.641 26.7969C119.245 25.8177 119.047 24.6719 119.047 23.3594C119.047 22.4115 119.167 21.5417 119.406 20.75C119.646 19.9583 119.969 19.2448 120.375 18.6094C120.792 17.974 121.271 17.4167 121.812 16.9375C122.365 16.4583 122.943 16.0625 123.547 15.75C124.151 15.4271 124.766 15.1875 125.391 15.0312C126.026 14.8646 126.635 14.7812 127.219 14.7812C127.99 14.7812 128.661 14.8646 129.234 15.0312C129.807 15.1979 130.281 15.4219 130.656 15.7031C131.042 15.9844 131.328 16.3125 131.516 16.6875C131.703 17.0521 131.797 17.4375 131.797 17.8438C131.797 18.3333 131.656 18.776 131.375 19.1719C131.094 19.5573 130.719 19.8958 130.25 20.1875L124.078 23.8281ZM127.219 20.6562C127.354 20.5729 127.464 20.4948 127.547 20.4219C127.641 20.3385 127.714 20.2448 127.766 20.1406C127.818 20.026 127.854 19.8906 127.875 19.7344C127.906 19.5677 127.922 19.3646 127.922 19.125C127.922 18.8646 127.891 18.5781 127.828 18.2656C127.776 17.9427 127.682 17.6406 127.547 17.3594C127.411 17.0781 127.24 16.8438 127.031 16.6562C126.823 16.4688 126.573 16.375 126.281 16.375C125.906 16.375 125.583 16.4896 125.312 16.7188C125.052 16.9375 124.833 17.224 124.656 17.5781C124.49 17.9323 124.354 18.3385 124.25 18.7969C124.156 19.2448 124.083 19.6979 124.031 20.1562C123.979 20.6146 123.948 21.0573 123.938 21.4844C123.927 21.901 123.922 22.2552 123.922 22.5469L127.219 20.6562ZM139.875 16.0312C139.635 16.0312 139.406 16.0625 139.188 16.125C138.979 16.1875 138.792 16.2917 138.625 16.4375C138.458 16.5729 138.328 16.75 138.234 16.9688C138.141 17.1771 138.094 17.4271 138.094 17.7188C138.094 18.125 138.24 18.5312 138.531 18.9375C138.833 19.3333 139.203 19.75 139.641 20.1875C140.089 20.6146 140.568 21.0625 141.078 21.5312C141.599 21.9896 142.078 22.4792 142.516 23C142.964 23.5104 143.333 24.0573 143.625 24.6406C143.927 25.224 144.078 25.849 144.078 26.5156C144.078 27.2656 143.948 27.9323 143.688 28.5156C143.438 29.099 143.073 29.5938 142.594 30C142.125 30.4062 141.552 30.7188 140.875 30.9375C140.208 31.1458 139.464 31.25 138.641 31.25C137.922 31.25 137.271 31.151 136.688 30.9531C136.104 30.7448 135.583 30.4948 135.125 30.2031C134.677 29.901 134.292 29.5833 133.969 29.25C133.646 28.9167 133.396 28.6146 133.219 28.3438L133.766 27.9531C133.901 28.1094 134.073 28.2812 134.281 28.4688C134.49 28.6458 134.719 28.8125 134.969 28.9688C135.229 29.125 135.505 29.2552 135.797 29.3594C136.089 29.4531 136.385 29.5 136.688 29.5C137.438 29.5 138.052 29.3229 138.531 28.9688C139.01 28.6042 139.25 28.0677 139.25 27.3594C139.25 26.9635 139.12 26.5573 138.859 26.1406C138.599 25.7135 138.271 25.276 137.875 24.8281C137.479 24.3802 137.052 23.9167 136.594 23.4375C136.135 22.9583 135.708 22.4635 135.312 21.9531C134.917 21.4427 134.589 20.9167 134.328 20.375C134.068 19.8333 133.938 19.2708 133.938 18.6875C133.938 18.0312 134.068 17.4583 134.328 16.9688C134.599 16.4792 134.953 16.0729 135.391 15.75C135.839 15.4271 136.344 15.1875 136.906 15.0312C137.479 14.8646 138.068 14.7812 138.672 14.7812C139.37 14.7812 140.005 14.8438 140.578 14.9688C141.151 15.0938 141.641 15.2865 142.047 15.5469C142.464 15.7969 142.781 16.1146 143 16.5C143.229 16.8854 143.344 17.3333 143.344 17.8438C143.344 18.2396 143.214 18.5833 142.953 18.875C142.693 19.1667 142.328 19.3125 141.859 19.3125C141.411 19.3125 141.068 19.2188 140.828 19.0312C140.599 18.8333 140.484 18.5677 140.484 18.2344C140.484 18.0156 140.536 17.8438 140.641 17.7188C140.755 17.5938 140.88 17.4948 141.016 17.4219C141.151 17.3385 141.271 17.2708 141.375 17.2188C141.49 17.1562 141.547 17.0781 141.547 16.9844C141.547 16.6927 141.391 16.4635 141.078 16.2969C140.766 16.1198 140.365 16.0312 139.875 16.0312ZM151.969 29.5938C151.969 29.7292 151.943 29.8958 151.891 30.0938C151.849 30.2812 151.74 30.4635 151.562 30.6406C151.396 30.8073 151.151 30.9479 150.828 31.0625C150.505 31.1875 150.068 31.25 149.516 31.25C148.964 31.25 148.531 31.1823 148.219 31.0469C147.906 30.9219 147.672 30.7708 147.516 30.5938C147.359 30.4167 147.26 30.2344 147.219 30.0469C147.188 29.8594 147.172 29.7083 147.172 29.5938V17.5312C147.172 17.2292 147.099 16.9688 146.953 16.75C146.818 16.5208 146.583 16.4062 146.25 16.4062C146.073 16.4062 145.922 16.4375 145.797 16.5C145.672 16.5625 145.536 16.651 145.391 16.7656L145.062 16.375C145.302 16.1771 145.568 15.9844 145.859 15.7969C146.161 15.599 146.484 15.4271 146.828 15.2812C147.172 15.1354 147.542 15.0156 147.938 14.9219C148.333 14.8281 148.75 14.7812 149.188 14.7812C149.865 14.7812 150.391 14.875 150.766 15.0625C151.141 15.2396 151.417 15.4635 151.594 15.7344C151.771 15.9948 151.875 16.276 151.906 16.5781C151.948 16.8802 151.969 17.1458 151.969 17.375V29.5938ZM146.688 11.2188C146.688 10.9271 146.75 10.651 146.875 10.3906C147.01 10.1198 147.193 9.88542 147.422 9.6875C147.661 9.48958 147.932 9.33333 148.234 9.21875C148.547 9.10417 148.885 9.04688 149.25 9.04688C149.604 9.04688 149.932 9.10417 150.234 9.21875C150.547 9.33333 150.818 9.48958 151.047 9.6875C151.276 9.88542 151.453 10.1198 151.578 10.3906C151.714 10.651 151.781 10.9271 151.781 11.2188C151.781 11.5208 151.714 11.8021 151.578 12.0625C151.453 12.3229 151.276 12.5521 151.047 12.75C150.818 12.9375 150.547 13.0885 150.234 13.2031C149.932 13.3177 149.604 13.375 149.25 13.375C148.885 13.375 148.547 13.3177 148.234 13.2031C147.932 13.0885 147.661 12.9375 147.422 12.75C147.193 12.5521 147.01 12.3229 146.875 12.0625C146.75 11.8021 146.688 11.5208 146.688 11.2188ZM159.953 23.8281C159.953 24.1615 160 24.526 160.094 24.9219C160.198 25.3073 160.344 25.6979 160.531 26.0938C160.719 26.4896 160.948 26.8698 161.219 27.2344C161.5 27.5885 161.818 27.9062 162.172 28.1875C162.536 28.4688 162.938 28.6927 163.375 28.8594C163.812 29.026 164.292 29.1094 164.812 29.1094C165.177 29.1094 165.516 29.0677 165.828 28.9844C166.141 28.901 166.432 28.7865 166.703 28.6406C166.974 28.4948 167.234 28.3281 167.484 28.1406C167.734 27.9427 167.984 27.7344 168.234 27.5156L168.625 27.8906C168.385 28.2135 168.078 28.5677 167.703 28.9531C167.328 29.3385 166.875 29.7031 166.344 30.0469C165.812 30.3802 165.193 30.6615 164.484 30.8906C163.776 31.1094 162.969 31.2188 162.062 31.2188C161.156 31.2188 160.271 31.0573 159.406 30.7344C158.552 30.401 157.792 29.9062 157.125 29.25C156.458 28.5938 155.922 27.776 155.516 26.7969C155.12 25.8177 154.922 24.6719 154.922 23.3594C154.922 22.4115 155.042 21.5417 155.281 20.75C155.521 19.9583 155.844 19.2448 156.25 18.6094C156.667 17.974 157.146 17.4167 157.688 16.9375C158.24 16.4583 158.818 16.0625 159.422 15.75C160.026 15.4271 160.641 15.1875 161.266 15.0312C161.901 14.8646 162.51 14.7812 163.094 14.7812C163.865 14.7812 164.536 14.8646 165.109 15.0312C165.682 15.1979 166.156 15.4219 166.531 15.7031C166.917 15.9844 167.203 16.3125 167.391 16.6875C167.578 17.0521 167.672 17.4375 167.672 17.8438C167.672 18.3333 167.531 18.776 167.25 19.1719C166.969 19.5573 166.594 19.8958 166.125 20.1875L159.953 23.8281ZM163.094 20.6562C163.229 20.5729 163.339 20.4948 163.422 20.4219C163.516 20.3385 163.589 20.2448 163.641 20.1406C163.693 20.026 163.729 19.8906 163.75 19.7344C163.781 19.5677 163.797 19.3646 163.797 19.125C163.797 18.8646 163.766 18.5781 163.703 18.2656C163.651 17.9427 163.557 17.6406 163.422 17.3594C163.286 17.0781 163.115 16.8438 162.906 16.6562C162.698 16.4688 162.448 16.375 162.156 16.375C161.781 16.375 161.458 16.4896 161.188 16.7188C160.927 16.9375 160.708 17.224 160.531 17.5781C160.365 17.9323 160.229 18.3385 160.125 18.7969C160.031 19.2448 159.958 19.6979 159.906 20.1562C159.854 20.6146 159.823 21.0573 159.812 21.4844C159.802 21.901 159.797 22.2552 159.797 22.5469L163.094 20.6562ZM189.766 19.7344C189.766 19.0469 189.719 18.4792 189.625 18.0312C189.531 17.5833 189.427 17.2135 189.312 16.9219C189.208 16.6198 189.109 16.375 189.016 16.1875C188.922 15.9896 188.875 15.8073 188.875 15.6406C188.875 15.4844 188.938 15.3542 189.062 15.25C189.188 15.1458 189.333 15.0573 189.5 14.9844C189.677 14.9115 189.854 14.8594 190.031 14.8281C190.219 14.7969 190.37 14.7812 190.484 14.7812C190.786 14.7812 191.005 14.8229 191.141 14.9062C191.276 14.9896 191.385 15.151 191.469 15.3906C191.562 15.6927 191.625 16.0938 191.656 16.5938C191.698 17.0833 191.719 17.6094 191.719 18.1719C191.719 18.974 191.672 19.8542 191.578 20.8125C191.484 21.7708 191.333 22.7344 191.125 23.7031C190.927 24.6719 190.667 25.6094 190.344 26.5156C190.031 27.4219 189.651 28.2292 189.203 28.9375C188.755 29.6354 188.24 30.1979 187.656 30.625C187.073 31.0417 186.411 31.25 185.672 31.25C185.089 31.25 184.562 31.1354 184.094 30.9062C183.635 30.6667 183.224 30.3438 182.859 29.9375C182.495 29.5312 182.172 29.0573 181.891 28.5156C181.62 27.9635 181.38 27.375 181.172 26.75C180.932 27.3854 180.656 27.9792 180.344 28.5312C180.031 29.0729 179.682 29.5469 179.297 29.9531C178.922 30.3594 178.505 30.6771 178.047 30.9062C177.589 31.1354 177.094 31.25 176.562 31.25C175.906 31.25 175.323 31.1094 174.812 30.8281C174.312 30.5365 173.87 30.1458 173.484 29.6562C173.099 29.1562 172.766 28.5781 172.484 27.9219C172.203 27.2656 171.958 26.5729 171.75 25.8438C171.552 25.1146 171.385 24.3646 171.25 23.5938C171.115 22.8229 171 22.0781 170.906 21.3594C170.812 20.6406 170.734 19.9688 170.672 19.3438C170.609 18.7188 170.547 18.1771 170.484 17.7188C170.411 17.3021 170.302 16.9792 170.156 16.75C170.021 16.5208 169.786 16.4062 169.453 16.4062C169.276 16.4062 169.125 16.4375 169 16.5C168.875 16.5625 168.74 16.651 168.594 16.7656L168.266 16.375C168.505 16.1771 168.771 15.9844 169.062 15.7969C169.365 15.599 169.688 15.4271 170.031 15.2812C170.375 15.1354 170.745 15.0156 171.141 14.9219C171.536 14.8281 171.953 14.7812 172.391 14.7812C173.016 14.7812 173.521 14.8906 173.906 15.1094C174.292 15.3177 174.594 15.5833 174.812 15.9062C175.042 16.2188 175.203 16.5573 175.297 16.9219C175.391 17.2865 175.458 17.6146 175.5 17.9062C175.688 19.4792 175.87 20.8646 176.047 22.0625C176.234 23.2604 176.432 24.2656 176.641 25.0781C176.849 25.8802 177.073 26.4896 177.312 26.9062C177.562 27.3125 177.854 27.5156 178.188 27.5156C178.406 27.5156 178.62 27.4219 178.828 27.2344C179.036 27.0469 179.234 26.7865 179.422 26.4531C179.609 26.1198 179.786 25.7188 179.953 25.25C180.12 24.7708 180.266 24.2448 180.391 23.6719C180.286 23.099 180.198 22.5312 180.125 21.9688C180.052 21.4062 179.984 20.8698 179.922 20.3594C179.87 19.8385 179.818 19.3542 179.766 18.9062C179.714 18.4583 179.656 18.0625 179.594 17.7188C179.438 16.7396 179.526 16.0052 179.859 15.5156C180.203 15.026 180.885 14.7812 181.906 14.7812C182.354 14.7812 182.729 14.8229 183.031 14.9062C183.344 14.9792 183.599 15.125 183.797 15.3438C184.005 15.5521 184.172 15.8438 184.297 16.2188C184.422 16.5833 184.521 17.0521 184.594 17.625C184.792 19.1875 184.984 20.5833 185.172 21.8125C185.359 23.0417 185.557 24.0781 185.766 24.9219C185.974 25.7656 186.198 26.4115 186.438 26.8594C186.688 27.2969 186.979 27.5156 187.312 27.5156C187.667 27.5156 187.995 27.2969 188.297 26.8594C188.599 26.4219 188.859 25.8438 189.078 25.125C189.297 24.4062 189.464 23.5781 189.578 22.6406C189.703 21.7031 189.766 20.7344 189.766 19.7344ZM199.75 29.5938C199.75 29.7292 199.724 29.8958 199.672 30.0938C199.63 30.2812 199.521 30.4635 199.344 30.6406C199.177 30.8073 198.932 30.9479 198.609 31.0625C198.286 31.1875 197.849 31.25 197.297 31.25C196.745 31.25 196.312 31.1823 196 31.0469C195.688 30.9219 195.453 30.7708 195.297 30.5938C195.141 30.4167 195.042 30.2344 195 30.0469C194.969 29.8594 194.953 29.7083 194.953 29.5938V17.5312C194.953 17.2292 194.88 16.9688 194.734 16.75C194.599 16.5208 194.365 16.4062 194.031 16.4062C193.854 16.4062 193.703 16.4375 193.578 16.5C193.453 16.5625 193.318 16.651 193.172 16.7656L192.844 16.375C193.083 16.1771 193.349 15.9844 193.641 15.7969C193.943 15.599 194.266 15.4271 194.609 15.2812C194.953 15.1354 195.323 15.0156 195.719 14.9219C196.115 14.8281 196.531 14.7812 196.969 14.7812C197.646 14.7812 198.172 14.875 198.547 15.0625C198.922 15.2396 199.198 15.4635 199.375 15.7344C199.552 15.9948 199.656 16.276 199.688 16.5781C199.729 16.8802 199.75 17.1458 199.75 17.375V29.5938ZM194.469 11.2188C194.469 10.9271 194.531 10.651 194.656 10.3906C194.792 10.1198 194.974 9.88542 195.203 9.6875C195.443 9.48958 195.714 9.33333 196.016 9.21875C196.328 9.10417 196.667 9.04688 197.031 9.04688C197.385 9.04688 197.714 9.10417 198.016 9.21875C198.328 9.33333 198.599 9.48958 198.828 9.6875C199.057 9.88542 199.234 10.1198 199.359 10.3906C199.495 10.651 199.562 10.9271 199.562 11.2188C199.562 11.5208 199.495 11.8021 199.359 12.0625C199.234 12.3229 199.057 12.5521 198.828 12.75C198.599 12.9375 198.328 13.0885 198.016 13.2031C197.714 13.3177 197.385 13.375 197.031 13.375C196.667 13.375 196.328 13.3177 196.016 13.2031C195.714 13.0885 195.443 12.9375 195.203 12.75C194.974 12.5521 194.792 12.3229 194.656 12.0625C194.531 11.8021 194.469 11.5208 194.469 11.2188ZM213.625 20.1875C213.302 20.1875 213.031 20.1406 212.812 20.0469C212.594 19.9427 212.417 19.8073 212.281 19.6406C212.146 19.474 212.047 19.2917 211.984 19.0938C211.922 18.8854 211.891 18.6719 211.891 18.4531C211.891 18.1719 211.906 17.901 211.938 17.6406C211.979 17.3802 211.984 17.1458 211.953 16.9375C211.932 16.7292 211.854 16.5625 211.719 16.4375C211.583 16.3125 211.344 16.25 211 16.25C210.635 16.25 210.25 16.3542 209.844 16.5625C209.438 16.7708 209.068 17.099 208.734 17.5469C208.401 17.9948 208.125 18.5729 207.906 19.2812C207.688 19.9792 207.578 20.8229 207.578 21.8125C207.578 22.9062 207.677 23.9062 207.875 24.8125C208.083 25.7083 208.391 26.474 208.797 27.1094C209.203 27.7448 209.708 28.2396 210.312 28.5938C210.917 28.9375 211.625 29.1094 212.438 29.1094C212.802 29.1094 213.146 29.0677 213.469 28.9844C213.802 28.901 214.115 28.7865 214.406 28.6406C214.698 28.4948 214.974 28.3281 215.234 28.1406C215.505 27.9427 215.766 27.7344 216.016 27.5156L216.406 27.8906C216.167 28.2135 215.859 28.5677 215.484 28.9531C215.109 29.3385 214.656 29.7031 214.125 30.0469C213.594 30.3802 212.974 30.6615 212.266 30.8906C211.557 31.1094 210.75 31.2188 209.844 31.2188C208.938 31.2188 208.052 31.0469 207.188 30.7031C206.333 30.349 205.573 29.8385 204.906 29.1719C204.24 28.5052 203.703 27.6979 203.297 26.75C202.901 25.7917 202.703 24.7031 202.703 23.4844C202.703 22.5365 202.823 21.6667 203.062 20.875C203.302 20.0729 203.625 19.349 204.031 18.7031C204.448 18.0573 204.927 17.4896 205.469 17C206.021 16.5104 206.599 16.1042 207.203 15.7812C207.807 15.4479 208.422 15.1979 209.047 15.0312C209.682 14.8646 210.292 14.7812 210.875 14.7812C211.646 14.7812 212.318 14.8698 212.891 15.0469C213.464 15.224 213.938 15.4583 214.312 15.75C214.698 16.0417 214.984 16.3802 215.172 16.7656C215.359 17.1406 215.453 17.5312 215.453 17.9375C215.453 18.2396 215.411 18.5312 215.328 18.8125C215.255 19.0833 215.141 19.3229 214.984 19.5312C214.839 19.7292 214.651 19.8906 214.422 20.0156C214.193 20.1302 213.927 20.1875 213.625 20.1875ZM224.453 17.4062C224.557 17.2708 224.646 17.125 224.719 16.9688C224.802 16.8125 224.844 16.6667 224.844 16.5312C224.844 16.3333 224.688 16.1927 224.375 16.1094C224.062 16.026 223.484 15.9844 222.641 15.9844C222.12 15.9844 221.688 16.0469 221.344 16.1719C221 16.2969 220.714 16.4531 220.484 16.6406C220.266 16.8177 220.083 17.0156 219.938 17.2344C219.802 17.4531 219.682 17.6562 219.578 17.8438C219.474 18.0208 219.37 18.1719 219.266 18.2969C219.172 18.4219 219.047 18.4844 218.891 18.4844C218.714 18.4844 218.557 18.4271 218.422 18.3125C218.297 18.1979 218.193 18.0573 218.109 17.8906C218.026 17.7135 217.964 17.526 217.922 17.3281C217.88 17.1198 217.859 16.9219 217.859 16.7344C217.859 16.4531 217.979 16.1927 218.219 15.9531C218.458 15.7135 218.807 15.5104 219.266 15.3438C219.724 15.1667 220.281 15.0312 220.938 14.9375C221.604 14.8333 222.365 14.7812 223.219 14.7812C224.604 14.7812 225.729 14.8385 226.594 14.9531C227.469 15.0677 228.151 15.224 228.641 15.4219C229.13 15.6094 229.464 15.8385 229.641 16.1094C229.818 16.3802 229.906 16.6719 229.906 16.9844C229.906 17.151 229.865 17.3385 229.781 17.5469C229.708 17.7448 229.615 17.9375 229.5 18.125C229.396 18.3125 229.286 18.4896 229.172 18.6562C229.068 18.8125 228.99 18.9271 228.938 19L222.438 28.9531C222.406 29.0052 222.354 29.0885 222.281 29.2031C222.219 29.3073 222.188 29.4271 222.188 29.5625C222.188 29.6458 222.214 29.7188 222.266 29.7812C222.328 29.8438 222.438 29.8958 222.594 29.9375C222.76 29.9792 222.995 30.0104 223.297 30.0312C223.599 30.0417 223.995 30.0469 224.484 30.0469C225.109 30.0469 225.625 29.9792 226.031 29.8438C226.448 29.7083 226.786 29.5365 227.047 29.3281C227.307 29.1198 227.516 28.901 227.672 28.6719C227.828 28.4323 227.964 28.2083 228.078 28C228.193 27.7917 228.302 27.6198 228.406 27.4844C228.521 27.349 228.667 27.2812 228.844 27.2812C229.021 27.2812 229.177 27.349 229.312 27.4844C229.448 27.6094 229.562 27.7708 229.656 27.9688C229.75 28.1667 229.818 28.3802 229.859 28.6094C229.911 28.8385 229.938 29.0469 229.938 29.2344C229.938 29.5156 229.812 29.7812 229.562 30.0312C229.312 30.2708 228.932 30.4844 228.422 30.6719C227.911 30.849 227.26 30.9896 226.469 31.0938C225.688 31.1979 224.76 31.25 223.688 31.25C222.531 31.25 221.547 31.2031 220.734 31.1094C219.922 31.0156 219.26 30.8802 218.75 30.7031C218.24 30.5156 217.87 30.2812 217.641 30C217.411 29.7188 217.297 29.3906 217.297 29.0156C217.297 28.7135 217.365 28.4167 217.5 28.125C217.646 27.8229 217.854 27.4792 218.125 27.0938L224.453 17.4062Z" fill="#7E6300"/>
</svg>
