<svg width="57" height="57" viewBox="0 0 57 57" fill="none" xmlns="http://www.w3.org/2000/svg">
<path d="M50.7273 11.009C47.3041 6.57622 42.6432 3.25814 37.3341 1.47442C32.025 -0.309294 26.3062 -0.478521 20.9009 0.988145C15.4956 2.45481 10.6467 5.49149 6.96735 9.71412C3.28801 13.9368 0.943549 19.1557 0.230465 24.7108C-0.482619 30.266 0.467709 35.9078 2.96126 40.9228C5.45481 45.9378 9.37957 50.1007 14.2392 52.8851C19.0988 55.6694 24.6749 56.95 30.2624 56.565C35.8499 56.18 41.1977 54.1467 45.6295 50.7222C58.0001 41.162 60.2839 23.384 50.7273 11.009Z" fill="#FF6C37"/>
<path d="M37.8664 18.042L25.9268 30.0763L22.5527 26.6076C34.3039 14.8565 35.4825 15.9183 37.8664 18.042Z" fill="white"/>
<path d="M25.9268 30.4055C25.8211 30.4029 25.7201 30.361 25.6436 30.2878L22.2457 26.8899C22.1692 26.8107 22.1265 26.7049 22.1265 26.5948C22.1265 26.4847 22.1692 26.3789 22.2457 26.2997C33.8314 14.714 35.4127 15.2565 38.1496 17.7341C38.1954 17.7708 38.2321 17.8176 38.2566 17.8709C38.2812 17.9242 38.293 17.9825 38.2912 18.0412C38.3089 18.1562 38.2646 18.2739 38.1735 18.3482L26.2339 30.2887C26.1501 30.3655 26.0404 30.4067 25.9268 30.4055ZM23.1421 26.6068L25.9268 29.3915L37.2532 18.0651C36.8621 17.575 36.3041 17.2462 35.6859 17.1418C35.0676 17.0373 34.4326 17.1644 33.9022 17.4987C31.8493 18.419 28.546 21.2267 23.1421 26.6068Z" fill="#FF6C37"/>
<path d="M29.3486 33.4034L26.0923 30.0763L38.0319 18.2773C41.2413 21.416 36.4745 26.6553 29.3486 33.4034Z" fill="white"/>
<path d="M29.3484 33.8281C29.2439 33.8198 29.1448 33.7786 29.0652 33.7104L25.7381 30.4541C25.6882 30.3331 25.6882 30.1973 25.7381 30.0763C25.7027 29.977 25.7027 29.8685 25.7381 29.7692L37.6777 17.8296C37.7608 17.7516 37.8704 17.7081 37.9843 17.7081C38.0983 17.7081 38.2079 17.7516 38.2909 17.8296C38.6776 18.1855 38.9831 18.6204 39.1866 19.1049C39.3902 19.5894 39.487 20.112 39.4705 20.6373C39.4705 23.8228 35.8363 27.834 29.6546 33.6865C29.572 33.7683 29.4642 33.8184 29.3484 33.8281ZM26.7053 30.0763L29.3714 32.7415C34.0904 28.2817 38.598 23.6804 38.621 20.5656C38.6467 19.9053 38.4284 19.2586 38.0078 18.749L26.7053 30.0763Z" fill="#FF6C37"/>
<path d="M22.6464 26.6784L25.0064 29.0383C25.0215 29.0516 25.0335 29.068 25.0418 29.0863C25.05 29.1046 25.0543 29.1244 25.0543 29.1445C25.0543 29.1646 25.05 29.1845 25.0418 29.2028C25.0335 29.2211 25.0215 29.2374 25.0064 29.2507L20.0272 30.3126C19.9267 30.3342 19.8218 30.3225 19.7286 30.2791C19.6354 30.2357 19.5589 30.163 19.5108 30.0721C19.4627 29.9813 19.4457 29.8771 19.4622 29.7757C19.4787 29.6742 19.528 29.5809 19.6025 29.51L22.5048 26.6315C22.5048 26.6315 22.5995 26.6315 22.6464 26.6784Z" fill="white"/>
<path d="M19.9096 30.7842C19.7523 30.7823 19.5981 30.74 19.4617 30.6614C19.3254 30.5829 19.2115 30.4707 19.1309 30.3356C19.0402 30.1645 19.0072 29.9686 19.0371 29.7772C19.0669 29.5858 19.1579 29.4092 19.2964 29.2738L22.1749 26.3714C22.2787 26.2786 22.413 26.2273 22.5523 26.2273C22.6915 26.2273 22.8258 26.2786 22.9297 26.3714L25.2896 28.7313C25.4294 28.8641 25.4843 29.0649 25.4312 29.2508C25.3781 29.4366 25.2224 29.5844 25.0303 29.6286L20.0512 30.6904L19.9096 30.7842ZM22.5527 27.1978L19.8866 29.864L24.2994 28.9198L22.5527 27.1978Z" fill="#FF6C37"/>
<path d="M44.2145 11.4108C42.5067 9.76316 39.8237 9.69414 38.0327 11.2489C36.2418 12.8036 35.9356 15.4724 37.3302 17.3925C38.7247 19.3127 41.3537 19.8507 43.3889 18.6314L40.1795 15.4219L44.2145 11.4108Z" fill="white"/>
<path d="M41.0289 19.7162C40.0477 19.7036 39.0919 19.4026 38.2806 18.8506C37.4694 18.2986 36.8384 17.5201 36.4665 16.6121C36.0948 15.7047 35.9973 14.7083 36.1861 13.7461C36.3748 12.7839 36.8415 11.8981 37.5284 11.1984C38.4731 10.271 39.744 9.75146 41.0679 9.75146C42.3917 9.75146 43.6626 10.271 44.6074 11.1984C44.6976 11.2745 44.7489 11.3869 44.7489 11.5055C44.7487 11.5638 44.736 11.6214 44.7115 11.6744C44.6871 11.7274 44.6516 11.7745 44.6074 11.8125L40.7847 15.4228L43.6871 18.2783C43.7341 18.3232 43.7694 18.3789 43.7899 18.4406C43.8104 18.5023 43.8155 18.5681 43.8048 18.6322C43.7978 18.6941 43.7773 18.7537 43.7447 18.8067C43.7121 18.8598 43.6683 18.905 43.6163 18.9393C42.8366 19.4267 41.9402 19.6956 41.021 19.718L41.0289 19.7162ZM41.0289 10.5604C39.3477 10.5693 37.8434 11.5807 37.2125 13.1265C36.5815 14.6724 36.9249 16.4519 38.1035 17.6394C38.6898 18.2291 39.4404 18.6279 40.2572 18.7838C41.074 18.9396 41.9188 18.8452 42.681 18.5128L39.8963 15.7281C39.852 15.6927 39.8163 15.6478 39.7917 15.5967C39.7671 15.5456 39.7544 15.4897 39.7544 15.433C39.7544 15.3763 39.7671 15.3203 39.7917 15.2692C39.8163 15.2182 39.852 15.1733 39.8963 15.1379L43.5774 11.4329C42.8456 10.8721 41.9508 10.5663 41.0289 10.5604Z" fill="#FF6C37"/>
<path d="M44.2855 11.4816L40.2505 15.4927L43.4599 18.7021C43.7829 18.5167 44.0837 18.2949 44.3563 18.0411C45.1975 17.152 45.6603 15.9709 45.6471 14.747C45.6339 13.5232 45.1457 12.3523 44.2855 11.4816Z" fill="white"/>
<path d="M43.3879 19.0561C43.3349 19.0589 43.2819 19.0499 43.2329 19.0295C43.1839 19.0091 43.1401 18.978 43.1047 18.9384L39.8953 15.7289C39.851 15.6935 39.8153 15.6486 39.7907 15.5976C39.7662 15.5465 39.7534 15.4905 39.7534 15.4338C39.7534 15.3772 39.7662 15.3212 39.7907 15.2701C39.8153 15.219 39.851 15.1741 39.8953 15.1387L43.9064 11.1984C43.9452 11.14 43.9978 11.0921 44.0595 11.0589C44.1213 11.0258 44.1903 11.0084 44.2604 11.0084C44.3305 11.0084 44.3995 11.0258 44.4612 11.0589C44.523 11.0921 44.5756 11.14 44.6143 11.1984C45.0852 11.6598 45.4593 12.2105 45.7147 12.8182C45.9701 13.426 46.1016 14.0786 46.1016 14.7379C46.1016 15.3971 45.9701 16.0498 45.7147 16.6575C45.4593 17.2653 45.0852 17.816 44.6143 18.2774C44.3366 18.572 44.0187 18.8261 43.6702 19.0322C43.5824 19.0764 43.4818 19.085 43.3879 19.0561ZM40.7926 15.4228L43.4587 18.0889C43.6421 17.9604 43.8157 17.8184 43.9781 17.6642C44.7619 16.8825 45.2033 15.8218 45.2054 14.7149C45.2072 13.7243 44.8462 12.7674 44.1905 12.0249L40.7926 15.4228Z" fill="#FF6C37"/>
<path d="M38.3618 18.5375C38.0422 18.2374 37.6203 18.0703 37.1819 18.0703C36.7434 18.0703 36.3215 18.2374 36.0019 18.5375L25.3135 29.202L27.0832 30.9957L38.3857 21.0851C38.5581 20.9199 38.6948 20.7211 38.7875 20.5011C38.8802 20.2811 38.9268 20.0444 38.9246 19.8057C38.9223 19.5669 38.8713 19.3312 38.7745 19.1129C38.6777 18.8947 38.5373 18.6994 38.3618 18.5375Z" fill="white"/>
<path d="M26.9885 31.4213C26.8828 31.4187 26.7818 31.3767 26.7054 31.3036L24.9117 29.51C24.8352 29.4308 24.7925 29.325 24.7925 29.2149C24.7925 29.1048 24.8352 28.9989 24.9117 28.9198L35.601 18.2774C35.9089 17.9699 36.3021 17.7619 36.7296 17.6806C37.157 17.5992 37.5991 17.6482 37.9984 17.8211C38.3978 17.994 38.7359 18.2829 38.9691 18.6503C39.2022 19.0177 39.3196 19.4467 39.306 19.8816C39.2937 20.1769 39.2227 20.4667 39.0971 20.7341C38.9714 21.0015 38.7936 21.2412 38.5742 21.439L27.2717 31.3496C27.1895 31.4078 27.0885 31.434 26.9885 31.4213ZM25.7382 29.202L26.9178 30.4055L38.0079 20.7541C38.2822 20.5152 38.4459 20.1737 38.4565 19.81C38.4671 19.4463 38.3238 19.0906 38.0557 18.8428C37.8081 18.5962 37.4729 18.4578 37.1235 18.4578C36.774 18.4578 36.4388 18.5962 36.1912 18.8428L25.7382 29.202Z" fill="#FF6C37"/>
<path d="M17.0311 41.3549C17.0009 41.396 16.9846 41.4456 16.9846 41.4965C16.9846 41.5474 17.0009 41.5971 17.0311 41.6381L17.5027 43.691C17.5216 43.8118 17.5037 43.9355 17.4513 44.046C17.3989 44.1565 17.3145 44.2486 17.209 44.3104C17.1038 44.3719 16.9819 44.3984 16.8607 44.3862C16.7396 44.374 16.6254 44.3236 16.5347 44.2423L13.3022 41.1275L23.3783 30.9718H26.8709L29.2309 33.3318C25.5495 36.5504 21.4448 39.2499 17.0311 41.3549Z" fill="white"/>
<path d="M16.8186 44.8237C16.5513 44.8184 16.2877 44.7086 16.1107 44.5166L13.0198 41.4257C12.9755 41.3903 12.9398 41.3454 12.9152 41.2944C12.8907 41.2433 12.8779 41.1873 12.8779 41.1306C12.8779 41.074 12.8907 41.018 12.9152 40.9669C12.9398 40.9158 12.9755 40.8709 13.0198 40.8355L23.1658 30.6657C23.2226 30.6053 23.2968 30.5641 23.3782 30.548H26.8938C26.9854 30.5156 27.0853 30.5156 27.1769 30.548L29.5369 32.9079C29.5818 32.9493 29.6159 33.001 29.6364 33.0585C29.6569 33.1159 29.6631 33.1776 29.6546 33.238C29.6562 33.2966 29.6443 33.3548 29.6198 33.4081C29.5952 33.4614 29.5587 33.5082 29.513 33.545L29.3245 33.7105C25.6283 36.7919 21.5618 39.3998 17.2194 41.4735L17.6681 43.3849C17.7027 43.5323 17.7041 43.6856 17.6719 43.8336C17.6398 43.9817 17.5751 44.1207 17.4824 44.2405C17.3897 44.3603 17.2715 44.4579 17.1363 44.5262C17.0011 44.5945 16.8523 44.6317 16.7009 44.6352L16.8186 44.8237ZM13.9401 41.1187L16.7239 43.9264C16.7498 43.9495 16.7834 43.9623 16.8181 43.9623C16.8529 43.9623 16.8864 43.9495 16.9124 43.9264C16.9297 43.9023 16.9391 43.8734 16.9391 43.8437C16.9391 43.814 16.9297 43.785 16.9124 43.7609L16.4407 41.708C16.4036 41.5607 16.4185 41.405 16.483 41.2675C16.5475 41.1299 16.6576 41.0189 16.7947 40.9532C21.0203 38.9071 24.982 36.3557 28.5927 33.3548L26.6575 31.4196H23.4958L13.9401 41.1187Z" fill="#FF6C37"/>
<path d="M10.8722 43.5494L13.2322 41.1895L16.8664 44.8236L11.0855 44.4228C10.9862 44.415 10.892 44.3761 10.8162 44.3115C10.7404 44.247 10.6869 44.1602 10.6633 44.0635C10.6398 43.9667 10.6474 43.865 10.6851 43.7729C10.7227 43.6807 10.7886 43.6028 10.8731 43.5503L10.8722 43.5494Z" fill="white"/>
<path d="M16.9363 45.1775L11.1784 44.7767C10.8369 44.7448 10.5431 44.5112 10.4227 44.1989C10.3024 43.8865 10.3758 43.5157 10.6121 43.2662L12.9721 40.9063C13.0513 40.8297 13.1571 40.787 13.2672 40.787C13.3773 40.787 13.4831 40.8297 13.5623 40.9063L17.1726 44.5165C17.2225 44.585 17.2495 44.6676 17.2495 44.7524C17.2495 44.8371 17.2225 44.9197 17.1726 44.9882C17.118 45.0764 17.0345 45.1439 16.9363 45.1775ZM11.1784 43.8564L15.8975 44.1635L13.3021 41.7327L11.1784 43.8564Z" fill="#FF6C37"/>
<path d="M27.2009 31.2567L22.4341 31.9885L25.1949 29.2516L27.2009 31.2567Z" fill="white"/>
<path d="M22.4342 32.4354C22.355 32.4375 22.2769 32.4162 22.2097 32.3741C22.1425 32.3321 22.0892 32.2713 22.0563 32.1991C22.0061 32.1308 21.979 32.0481 21.979 31.9633C21.979 31.8785 22.0061 31.7958 22.0563 31.7275L24.7933 28.9667C24.8763 28.8887 24.9859 28.8452 25.0999 28.8452C25.2138 28.8452 25.3235 28.8887 25.4065 28.9667L27.4134 30.9718C27.4535 31.0354 27.4747 31.109 27.4747 31.1842C27.4747 31.2593 27.4535 31.333 27.4134 31.3965C27.3937 31.474 27.3521 31.5442 27.2936 31.5987C27.235 31.6531 27.162 31.6895 27.0833 31.7036L22.3643 32.4354H22.4342ZM25.195 29.863L23.6615 31.3965L26.3046 30.9957L25.195 29.863Z" fill="#FF6C37"/>
<path d="M27.2009 31.255L23.8737 31.6798C23.7847 31.7 23.6915 31.691 23.608 31.6541C23.5245 31.6171 23.4551 31.5543 23.4101 31.4749C23.3651 31.3954 23.3469 31.3036 23.3582 31.213C23.3696 31.1224 23.4098 31.0378 23.4729 30.9719L25.1957 29.249L27.2009 31.255Z" fill="white"/>
<path d="M23.7794 32.1292C23.6252 32.1278 23.4741 32.0855 23.3416 32.0067C23.209 31.9279 23.0996 31.8154 23.0246 31.6806C22.9345 31.5191 22.8996 31.3326 22.9251 31.1494C22.9507 30.9662 23.0353 30.7963 23.1662 30.6656L24.8891 28.9428C24.9721 28.8648 25.0817 28.8213 25.1957 28.8213C25.3096 28.8213 25.4193 28.8648 25.5023 28.9428L27.5083 30.9488C27.5679 31.0053 27.6099 31.0779 27.6291 31.1578C27.6483 31.2378 27.644 31.3215 27.6165 31.399C27.5891 31.4764 27.5397 31.5443 27.4745 31.5943C27.4093 31.6442 27.331 31.6742 27.249 31.6806L23.9458 32.1053L23.7794 32.1292ZM23.7794 31.2559L26.281 30.9488L25.1722 29.8401L23.7564 31.2559H23.7794ZM44.3085 14.1955C44.2641 14.121 44.1938 14.0655 44.1111 14.0394C44.0284 14.0133 43.939 14.0184 43.8599 14.0539C43.8208 14.0737 43.7862 14.1011 43.7579 14.1345C43.7296 14.168 43.7083 14.2068 43.6953 14.2486C43.669 14.3329 43.6773 14.4243 43.7183 14.5025C43.8838 14.8503 43.8378 15.2617 43.6006 15.5644C43.5712 15.5935 43.5481 15.6285 43.5329 15.667C43.5176 15.7055 43.5106 15.7468 43.5121 15.7882C43.513 15.8712 43.5445 15.951 43.6006 16.0121C43.6612 16.036 43.7286 16.036 43.7891 16.0121C43.8441 16.0259 43.9017 16.0244 43.9559 16.0077C44.01 15.991 44.0585 15.9598 44.0962 15.9174C44.2905 15.6795 44.4135 15.3915 44.4511 15.0867C44.4887 14.7818 44.4393 14.4734 44.3085 14.1955Z" fill="#FF6C37"/>
</svg>
