<?xml version="1.0" encoding="UTF-8" standalone="no"?>
<!-- Created with Inkscape (http://www.inkscape.org/) -->

<svg
   version="1.1"
   id="svg3033"
   xml:space="preserve"
   width="682.66669"
   height="682.66669"
   viewBox="0 0 682.66669 682.66669"
   xmlns="http://www.w3.org/2000/svg"
   xmlns:svg="http://www.w3.org/2000/svg"><defs
     id="defs3037"><clipPath
       clipPathUnits="userSpaceOnUse"
       id="clipPath3047"><path
         d="M 0,512 H 512 V 0 H 0 Z"
         id="path3045" /></clipPath></defs><g
     id="g3039"
     transform="matrix(1.3333333,0,0,-1.3333333,0,682.66667)"><g
       id="g3041"><g
         id="g3043"
         clip-path="url(#clipPath3047)"><g
           id="g3049"
           transform="translate(301.1273,385.9167)"><path
             d="m 0,0 h 152.873 c 26.509,0 48,-21.49 48,-48 v -259.917 c 0,-26.509 -21.491,-48 -48,-48 h -396 c -26.51,0 -48,21.491 -48,48 V -48 c 0,26.51 21.49,48 48,48 H -90"
             style="fill:none;stroke:#000000;stroke-width:20;stroke-linecap:round;stroke-linejoin:round;stroke-miterlimit:10;stroke-dasharray:none;stroke-opacity:1"
             id="path3051" /></g><g
           id="g3053"
           transform="translate(502,306.0278)"><path
             d="M 0,0 V 0 C 0,-52.866 -42.856,-95.722 -95.722,-95.722 H -396.278 C -449.144,-95.722 -492,-52.866 -492,0 v 0"
             style="fill:none;stroke:#000000;stroke-width:20;stroke-linecap:round;stroke-linejoin:round;stroke-miterlimit:10;stroke-dasharray:none;stroke-opacity:1"
             id="path3055" /></g><g
           id="g3057"
           transform="translate(256.127,148)"><path
             d="m 0,0 v 0 c -20.987,0 -38,17.013 -38,38 v 55.563 c 0,7.053 5.717,12.77 12.77,12.77 h 50.46 c 7.053,0 12.77,-5.717 12.77,-12.77 V 38 C 38,17.013 20.987,0 0,0 Z"
             style="fill:none;stroke:#000000;stroke-width:20;stroke-linecap:round;stroke-linejoin:round;stroke-miterlimit:10;stroke-dasharray:none;stroke-opacity:1"
             id="path3059" /></g><g
           id="g3061"
           transform="translate(132,385.9167)"><path
             d="m 0,0 v 48.083 c 0,26.51 21.49,48 48,48 h 152 c 26.51,0 48,-21.49 48,-48 V 0"
             style="fill:none;stroke:#000000;stroke-width:20;stroke-linecap:round;stroke-linejoin:round;stroke-miterlimit:10;stroke-dasharray:none;stroke-opacity:1"
             id="path3063" /></g><g
           id="g3065"
           transform="translate(132,434)"><path
             d="M 0,0 H 248"
             style="fill:none;stroke:#000000;stroke-width:20;stroke-linecap:round;stroke-linejoin:round;stroke-miterlimit:10;stroke-dasharray:none;stroke-opacity:1"
             id="path3067" /></g><g
           id="g3069"
           transform="translate(256.127,385.9167)"><path
             d="M 0,0 V 0"
             style="fill:none;stroke:#000000;stroke-width:20;stroke-linecap:round;stroke-linejoin:round;stroke-miterlimit:10;stroke-dasharray:none;stroke-opacity:1"
             id="path3071" /></g></g></g></g></svg>
