<svg width="50" height="50" viewBox="0 0 50 50" fill="none" xmlns="http://www.w3.org/2000/svg">
<g clip-path="url(#clip0_75_665)">
<path d="M29.3156 49.5759C29.3203 49.5783 29.3251 49.5803 29.33 49.5823C30.3006 49.9954 31.3786 50.1167 32.4058 49.8805C42.4783 47.5674 50 38.4727 50 27.6044V15.6488C49.1147 15.8432 48.1966 16.0623 47.3034 16.3104L47.2951 16.3104C42.9058 17.5262 39.0658 19.4119 41.8483 22.0216C47.2541 27.0876 37.258 29.0516 30.4385 30.5322C19.7828 32.8398 10.3156 41.4168 29.3156 49.5759" fill="#2855A3"/>
<path d="M0 22.8486V27.5862C0 29.5323 1.88653 30.9 3.71799 30.2901C5.89255 29.5657 8.40856 28.9308 11.3114 28.4107C35.873 24.0191 32.1106 22.2077 30.2295 21.0209C28.3483 19.8297 25.1025 17.0383 35.1721 14.9995C40.3443 13.9491 45.8605 13.3703 50 13.0558V6.42454e-06L22.6434 5.71847e-06C10.1378 5.39571e-06 0 10.2298 0 22.8486" fill="#6DD0F6"/>
<path d="M47.3032 16.3104C48.3903 15.9967 49.9999 15.6488 49.9999 15.6488C49.1145 15.8432 48.1965 16.0623 47.3032 16.3104Z" fill="#C4C2C1"/>
<path d="M29.3156 49.5759C21.3927 46.1738 18.4198 42.6986 18.4189 39.636C18.4177 35.3541 24.2261 31.8776 30.4385 30.5322C35.8963 29.3474 43.3881 27.8525 43.392 24.7064C43.3932 23.9212 42.9279 23.033 41.8483 22.0216C41.1934 21.4073 40.9054 20.8332 40.905 20.2985C40.9034 18.5614 43.9389 17.2399 47.2951 16.3103L47.3034 16.3103C48.1966 16.0623 49.1147 15.8432 50 15.6488V19.4906C46.6883 20.6897 44.4673 22.3524 46.7663 24.5029C52.1722 29.5689 42.1761 31.5329 35.3565 33.0135C25.7787 35.0897 17.1598 42.2274 29.3156 49.5759Z" fill="#22427A"/>
</g>
<defs>
<clipPath id="clip0_75_665">
<rect width="50" height="50" fill="white"/>
</clipPath>
</defs>
</svg>
