<svg width="50" height="50" viewBox="0 0 50 50" fill="none" xmlns="http://www.w3.org/2000/svg">
<rect width="50" height="50" rx="10" fill="white"/>
<g clip-path="url(#clip0_76_792)">
<path d="M14.1923 15.1742C13.6003 15.7733 13.5674 16.4534 14.11 17.085L14.5047 17.5384L21.7228 17.6193C29.8453 17.7165 29.5494 17.6679 30.9305 19.0281C32.509 20.5827 32.4925 23.4327 30.8648 24.9386C30.6181 25.1815 30.0426 25.5378 29.5823 25.7483C28.8095 26.0884 28.5135 26.1207 25.1099 26.1693L21.4598 26.2341L21.0487 26.6389C20.5225 27.1409 20.4897 27.9506 20.9336 28.485C21.246 28.8574 21.3282 28.8736 24.5674 28.9546L27.9051 29.0355L30.5852 33.2457C32.065 35.5614 33.4298 37.5855 33.6271 37.7475C33.8244 37.8932 34.2354 38.0227 34.5478 38.0227C35.2877 38.0227 36.077 37.294 36.077 36.6139C36.077 36.2901 35.3206 34.946 33.6106 32.258C32.2624 30.1367 31.1443 28.3554 31.1443 28.3068C31.1443 28.2582 31.4731 28.0477 31.8842 27.8372C34.8931 26.2665 36.0441 22.0239 34.367 18.6719C33.7093 17.3764 32.9529 16.583 31.5882 15.7733C29.8947 14.7693 29.2041 14.7046 21.5255 14.7046H14.6691L14.1923 15.1742Z" fill="black"/>
</g>
<defs>
<clipPath id="clip0_76_792">
<rect width="24" height="24" fill="white" transform="translate(13 14)"/>
</clipPath>
</defs>
</svg>
