<svg width="50" height="50" viewBox="0 0 50 50" fill="none" xmlns="http://www.w3.org/2000/svg">
<g clip-path="url(#clip0_76_793)">
<path d="M10.7936 31.496C10.7936 34.3701 8.4523 36.6929 5.55548 36.6929C2.65865 36.6929 0.317383 34.3701 0.317383 31.496C0.317383 28.622 2.65865 26.2992 5.55548 26.2992H10.7936V31.496ZM13.4126 31.496C13.4126 28.622 15.7539 26.2992 18.6507 26.2992C21.5475 26.2992 23.8888 28.622 23.8888 31.496V44.4882C23.8888 47.3622 21.5475 49.685 18.6507 49.685C15.7539 49.685 13.4126 47.3622 13.4126 44.4882V31.496Z" fill="#E01E5A"/>
<path d="M18.6508 10.6299C15.754 10.6299 13.4128 8.30707 13.4128 5.43306C13.4128 2.55904 15.754 0.236206 18.6508 0.236206C21.5477 0.236206 23.8889 2.55904 23.8889 5.43306V10.6299H18.6508ZM18.6508 13.2677C21.5477 13.2677 23.8889 15.5905 23.8889 18.4646C23.8889 21.3386 21.5477 23.6614 18.6508 23.6614H5.51593C2.6191 23.6614 0.277832 21.3386 0.277832 18.4646C0.277832 15.5905 2.6191 13.2677 5.51593 13.2677H18.6508Z" fill="#36C5F0"/>
<path d="M39.6431 18.4646C39.6431 15.5905 41.9844 13.2677 44.8812 13.2677C47.778 13.2677 50.1193 15.5905 50.1193 18.4646C50.1193 21.3386 47.778 23.6614 44.8812 23.6614H39.6431V18.4646ZM37.024 18.4646C37.024 21.3386 34.6828 23.6614 31.7859 23.6614C28.8891 23.6614 26.5479 21.3386 26.5479 18.4646V5.43306C26.5479 2.55904 28.8891 0.236206 31.7859 0.236206C34.6828 0.236206 37.024 2.55904 37.024 5.43306V18.4646Z" fill="#2EB67D"/>
<path d="M31.7859 39.2913C34.6828 39.2913 37.024 41.6142 37.024 44.4882C37.024 47.3622 34.6828 49.685 31.7859 49.685C28.8891 49.685 26.5479 47.3622 26.5479 44.4882V39.2913H31.7859ZM31.7859 36.6929C28.8891 36.6929 26.5479 34.3701 26.5479 31.496C26.5479 28.622 28.8891 26.2992 31.7859 26.2992H44.9209C47.8177 26.2992 50.159 28.622 50.159 31.496C50.159 34.3701 47.8177 36.6929 44.9209 36.6929H31.7859Z" fill="#ECB22E"/>
</g>
<defs>
<clipPath id="clip0_76_793">
<rect width="50" height="50" fill="white"/>
</clipPath>
</defs>
</svg>
