<svg width="50" height="50" viewBox="0 0 50 50" fill="none" xmlns="http://www.w3.org/2000/svg">
<g clip-path="url(#clip0_78_800)">
<path d="M24.7665 48.2667C11.8331 48.2667 1.2998 37.7333 1.2998 24.8C1.2998 11.8667 11.8331 1.33334 24.7665 1.33334C37.6998 1.33334 48.2331 11.8667 48.2331 24.8C48.2331 37.7333 37.6998 48.2667 24.7665 48.2667Z" fill="#85EA2D"/>
<path d="M24.7666 2.53333C37.0666 2.53333 47.0666 12.5 47.0666 24.8333C47.0666 37.1333 37.1 47.1333 24.7666 47.1333C12.4666 47.1333 2.46664 37.1667 2.46664 24.8333C2.46664 12.5 12.4666 2.53333 24.7666 2.53333ZM24.7666 0.166656C11.1666 0.166656 0.133301 11.2333 0.133301 24.8C0.133301 38.3667 11.2 49.4333 24.7666 49.4333C38.3333 49.4333 49.4 38.3667 49.4 24.8C49.4 11.2333 38.3333 0.166656 24.7666 0.166656Z" fill="#173647"/>
<path d="M15.6334 16.8667C15.5667 17.7 15.6667 18.5667 15.6001 19.4333C15.5334 20.3 15.4334 21.1333 15.2667 21.9667C15.0334 23.1667 14.2667 24.0667 13.2334 24.8333C15.2334 26.1333 15.4667 28.1667 15.6001 30.2333C15.6667 31.3333 15.6334 32.4667 15.7667 33.5667C15.8667 34.4333 16.1667 34.6333 17.0667 34.6667C17.4334 34.6667 17.8001 34.6667 18.2001 34.6667V37.3C15.6001 37.7333 13.4334 37 12.9001 34.8C12.7334 34 12.6001 33.1667 12.5667 32.3333C12.5001 31.4667 12.6001 30.5667 12.5334 29.7C12.3334 27.3 12.0334 26.4667 9.7334 26.3667V23.3667C9.90007 23.3333 10.0667 23.3 10.2334 23.2667C11.5001 23.2 12.0334 22.8 12.3334 21.5667C12.4667 20.8667 12.5334 20.1667 12.5667 19.4333C12.6667 18.0667 12.6334 16.6667 12.8667 15.3C13.2001 13.3333 14.4001 12.4 16.4334 12.2667C17.0001 12.2333 17.5667 12.2667 18.2334 12.2667V14.9667C17.9667 15 17.7334 15.0333 17.4667 15.0333C15.8334 14.9333 15.7667 15.5 15.6334 16.8667ZM18.8001 23.1H18.7667C17.8334 23.0667 17.0001 23.8 16.9667 24.7333C16.9334 25.7 17.6667 26.5 18.6001 26.5667H18.7001C19.6334 26.6333 20.4334 25.9 20.5001 24.9667V24.8667C20.5001 23.9 19.7334 23.1 18.8001 23.1ZM24.7334 23.1C23.8001 23.0667 23.0334 23.8 23.0334 24.7C23.0334 24.7667 23.0334 24.8 23.0334 24.8667C23.0334 25.9 23.7334 26.5667 24.8001 26.5667C25.8334 26.5667 26.5001 25.9 26.5001 24.8C26.4667 23.7667 25.7667 23.0667 24.7334 23.1ZM30.8001 23.1C29.8334 23.0667 29.0334 23.8333 29.0001 24.8C29.0001 25.7667 29.7667 26.5333 30.7334 26.5333H30.7667C31.6334 26.7 32.5334 25.8333 32.5667 24.8333C32.6334 23.9 31.7667 23.1 30.8001 23.1ZM39.1667 23.2333C38.0667 23.2 37.5334 22.8333 37.2334 21.7667C37.0667 21.1 36.9667 20.4 36.9334 19.7333C36.8667 18.4667 36.8667 17.2 36.7667 15.9C36.5667 12.9 34.4001 11.8333 31.2334 12.3667V14.9667C31.7334 14.9667 32.1334 14.9667 32.5001 14.9667C33.1667 14.9667 33.7001 15.2333 33.7667 15.9667C33.8334 16.6333 33.8334 17.3333 33.9001 18.0333C34.0334 19.4 34.1001 20.8 34.3334 22.1667C34.5334 23.3 35.3001 24.1333 36.2667 24.8C34.6001 25.9333 34.1001 27.5333 34.0001 29.3333C33.9667 30.5667 33.9334 31.8333 33.8667 33.0667C33.8001 34.2 33.4001 34.5667 32.2667 34.6C31.9334 34.6 31.6334 34.6333 31.2667 34.6667V37.3333C31.9334 37.3333 32.5667 37.3667 33.1667 37.3333C35.0667 37.2333 36.2334 36.3 36.6001 34.4333C36.7667 33.4 36.8667 32.3667 36.9001 31.3333C36.9667 30.4 36.9667 29.4333 37.0667 28.5C37.2001 27.0333 37.8667 26.4333 39.3334 26.3333C39.4667 26.3 39.6001 26.3 39.7334 26.2333V23.2333C39.5001 23.2667 39.3334 23.2333 39.1667 23.2333Z" fill="#173647"/>
</g>
<defs>
<clipPath id="clip0_78_800">
<rect width="50" height="50" fill="white"/>
</clipPath>
</defs>
</svg>
