<svg width="50" height="50" viewBox="0 0 50 50" fill="none" xmlns="http://www.w3.org/2000/svg">
<g clip-path="url(#clip0_76_766)">
<path d="M34.8754 18.75H47.7905C49.0107 18.75 49.9998 19.8133 49.9998 21.125V33.7712C49.9998 38.592 46.3644 42.5 41.88 42.5H41.8416C37.3572 42.5007 33.7214 38.5932 33.7207 33.7725C33.7207 33.7721 33.7207 33.7717 33.7207 33.7712V19.9913C33.7207 19.3057 34.2377 18.75 34.8754 18.75Z" fill="#5059C9"/>
<path d="M43.6046 16.25C46.4945 16.25 48.8372 13.7316 48.8372 10.625C48.8372 7.5184 46.4945 5 43.6046 5C40.7148 5 38.3721 7.5184 38.3721 10.625C38.3721 13.7316 40.7148 16.25 43.6046 16.25Z" fill="#5059C9"/>
<path d="M27.3257 16.25C31.5 16.25 34.8839 12.6123 34.8839 8.12501C34.8839 3.63769 31.5 0 27.3257 0C23.1515 0 19.7676 3.63769 19.7676 8.12501C19.7676 12.6123 23.1515 16.25 27.3257 16.25Z" fill="#7B83EB"/>
<path d="M37.4033 18.75H16.0847C14.8791 18.7821 13.9254 19.8577 13.9533 21.1538V35.5775C13.785 43.3553 19.5091 49.8097 26.744 50C33.979 49.8097 39.7031 43.3553 39.5347 35.5775V21.1538C39.5627 19.8577 38.609 18.7821 37.4033 18.75Z" fill="#7B83EB"/>
<path opacity="0.1" d="M27.9067 18.75V38.9625C27.901 39.8894 27.3785 40.7221 26.5812 41.075C26.3273 41.1904 26.0545 41.2499 25.7788 41.25H14.9765C14.8254 40.8375 14.6858 40.425 14.5695 40C14.1625 38.5657 13.9548 37.0746 13.9532 35.575V21.15C13.9253 19.856 14.8774 18.7821 16.0811 18.75H27.9067Z" fill="black"/>
<path opacity="0.2" d="M26.744 18.75V40.2125C26.7439 40.5088 26.6886 40.8021 26.5812 41.075C26.2529 41.9321 25.4783 42.4938 24.6161 42.5H15.523C15.3253 42.0875 15.1393 41.675 14.9765 41.25C14.8137 40.825 14.6858 40.425 14.5695 40C14.1625 38.5657 13.9548 37.0746 13.9532 35.575V21.15C13.9253 19.856 14.8774 18.7821 16.0811 18.75H26.744Z" fill="black"/>
<path opacity="0.2" d="M26.7444 18.75V37.7125C26.7356 38.9719 25.7881 39.9905 24.6165 40H14.57C14.163 38.5657 13.9553 37.0746 13.9537 35.575V21.15C13.9258 19.856 14.8779 18.7821 16.0816 18.75H26.7444Z" fill="black"/>
<path opacity="0.2" d="M25.5816 18.75V37.7125C25.5728 38.9719 24.6253 39.9905 23.4537 40H14.57C14.163 38.5657 13.9553 37.0746 13.9537 35.575V21.15C13.9258 19.856 14.8779 18.7821 16.0816 18.75H25.5816Z" fill="black"/>
<path opacity="0.1" d="M27.9068 12.2875V16.225C27.7091 16.2375 27.5231 16.25 27.3254 16.25C27.1277 16.25 26.9417 16.2375 26.744 16.225C26.3515 16.197 25.9623 16.1301 25.5812 16.025C23.2266 15.4256 21.2812 13.6504 20.3487 11.25C20.1882 10.8469 20.0636 10.4284 19.9766 10H25.7789C26.9523 10.0048 27.9023 11.0261 27.9068 12.2875Z" fill="black"/>
<path opacity="0.2" d="M26.744 13.5375V16.225C26.3515 16.197 25.9622 16.1301 25.5812 16.025C23.2265 15.4256 21.2812 13.6504 20.3486 11.25H24.6161C25.7894 11.2548 26.7395 12.2762 26.744 13.5375Z" fill="black"/>
<path opacity="0.2" d="M26.744 13.5375V16.225C26.3515 16.197 25.9622 16.1301 25.5812 16.025C23.2265 15.4256 21.2812 13.6504 20.3486 11.25H24.6161C25.7894 11.2548 26.7395 12.2762 26.744 13.5375Z" fill="black"/>
<path opacity="0.2" d="M25.5812 13.5375V16.025C23.2265 15.4255 21.2812 13.6503 20.3486 11.25H23.4533C24.6267 11.2548 25.5767 12.2761 25.5812 13.5375Z" fill="black"/>
<path d="M2.13138 11.25H23.45C24.6271 11.25 25.5814 12.2758 25.5814 13.5412V36.4587C25.5814 37.7242 24.6271 38.75 23.45 38.75H2.13138C0.954244 38.75 0 37.7241 0 36.4587V13.5412C0 12.2758 0.954266 11.25 2.13138 11.25Z" fill="url(#paint0_linear_76_766)"/>
<path d="M18.4002 19.9725H14.1386V32.4475H11.4235V19.9725H7.18164V17.5525H18.4002V19.9725Z" fill="white"/>
</g>
<defs>
<linearGradient id="paint0_linear_76_766" x1="4.44401" y1="9.45966" x2="23.0128" y2="39.3763" gradientUnits="userSpaceOnUse">
<stop stop-color="#5A62C3"/>
<stop offset="0.5" stop-color="#4D55BD"/>
<stop offset="1" stop-color="#3940AB"/>
</linearGradient>
<clipPath id="clip0_76_766">
<rect width="50" height="50" fill="white"/>
</clipPath>
</defs>
</svg>
