<svg width="50" height="50" viewBox="0 0 50 50" fill="none" xmlns="http://www.w3.org/2000/svg">
<g clip-path="url(#clip0_75_748)">
<path d="M22.9492 0.117188C16.7578 0.78125 11.6211 3.20312 7.40234 7.40234C2.59766 12.207 0.117188 18.2031 0.117188 25C0.117188 31.7969 2.59766 37.793 7.40234 42.5977C12.207 47.4023 18.2031 49.8828 25 49.8828C31.7969 49.8828 37.793 47.4023 42.5977 42.5977C47.4023 37.793 49.8828 31.7969 49.8828 25C49.8828 18.2031 47.4023 12.207 42.5977 7.40234C38.9453 3.76953 34.5117 1.42578 29.5312 0.507812C27.832 0.175781 24.2773 -0.0195312 22.9492 0.117188ZM30.0781 3.88672C36.6602 5.64453 41.6016 9.64844 44.5117 15.5859C46.1133 18.8281 46.582 20.9766 46.582 25C46.582 27.0117 46.4844 28.6328 46.3281 29.2969C44.6289 36.3086 40.5664 41.5039 34.4141 44.5117C31.1719 46.1133 29.0234 46.582 25 46.582C20.9766 46.582 18.8281 46.1133 15.5859 44.5117C9.43359 41.5039 5.37109 36.3086 3.67188 29.2969C3.51562 28.6328 3.41797 27.0117 3.41797 25C3.41797 21.7383 3.53516 20.918 4.33594 18.3594C6.66016 11.0547 13.2617 5.15625 20.7031 3.73047C21.2891 3.61328 21.9531 3.47656 22.168 3.4375C22.3828 3.37891 23.9258 3.37891 25.5859 3.41797C27.8125 3.45703 29.0039 3.59375 30.0781 3.88672Z" fill="#924E96"/>
<path d="M25.3319 6.87499C25.0585 7.1289 22.0506 11.4844 18.6522 16.582C11.7967 26.7969 11.9921 26.4062 13.2811 27.5781L13.8671 28.125H17.578H21.2889V28.6914C21.2889 29.0234 20.9764 32.1289 20.6053 35.625C20.1756 39.7266 19.9803 42.1484 20.0975 42.4219C20.5077 43.5156 22.1092 44.043 22.9296 43.3594C23.203 43.1445 33.0077 29.2578 36.5819 24.043C37.4803 22.7539 37.5585 21.7187 36.8163 20.9961L36.3475 20.5078H31.7577C29.2381 20.5078 27.1288 20.4492 27.0897 20.3516C27.0506 20.2734 27.3436 17.5391 27.7342 14.2578C28.203 10.3516 28.3788 8.10546 28.2811 7.71484C27.9491 6.48437 26.2889 6.01562 25.3319 6.87499Z" fill="#924E96"/>
</g>
<defs>
<clipPath id="clip0_75_748">
<rect width="50" height="50" fill="white"/>
</clipPath>
</defs>
</svg>
