<svg width="51" height="51" viewBox="0 0 51 51" fill="none" xmlns="http://www.w3.org/2000/svg">
<g clip-path="url(#clip0_76_756)">
<path fill-rule="evenodd" clip-rule="evenodd" d="M44.1869 0.926758H6.35898C3.10474 0.926758 0.465419 3.53063 0.460985 6.74551V44.0609C0.454692 45.6103 1.07328 47.0984 2.18005 48.1962C3.28682 49.294 4.79061 49.9111 6.35898 49.9111H44.1869C45.7539 49.909 47.2557 49.291 48.3607 48.1934C49.4658 47.0958 50.0833 45.6089 50.077 44.0609V6.74551C50.0725 3.53369 47.4381 0.931083 44.1869 0.926758ZM21.859 36.2083C21.8569 36.7262 21.6461 37.2219 21.2732 37.5859C20.9003 37.9498 20.396 38.1521 19.8718 38.148H11.6051C10.5239 38.1436 9.64975 37.2765 9.64975 36.2083V11.9046C9.64975 10.8365 10.5239 9.96938 11.6051 9.96506H19.8718C20.9543 9.96936 21.8308 10.8352 21.8351 11.9046L21.859 36.2083ZM40.9359 25.0498C40.9359 25.5684 40.7258 26.0653 40.3525 26.4297C39.9791 26.7941 39.4736 26.9957 38.9487 26.9896H30.6821C29.5995 26.9851 28.7231 26.1192 28.7187 25.0498V11.9046C28.7231 10.8352 29.5995 9.96936 30.6821 9.96506H38.9487C40.0299 9.96938 40.9041 10.8365 40.9041 11.9046L40.9359 25.0498Z" fill="url(#paint0_linear_76_756)"/>
</g>
<defs>
<linearGradient id="paint0_linear_76_756" x1="7748.01" y1="3135.92" x2="7748.01" y2="0.926758" gradientUnits="userSpaceOnUse">
<stop stop-color="#0052CC"/>
<stop offset="1" stop-color="#2684FF"/>
</linearGradient>
<clipPath id="clip0_76_756">
<rect width="51" height="51" fill="white"/>
</clipPath>
</defs>
</svg>
