<svg width="50" height="50" viewBox="0 0 50 50" fill="none" xmlns="http://www.w3.org/2000/svg">
<g clip-path="url(#clip0_75_635)">
<path d="M24.9986 7.14325H47.6163C48.2731 7.14325 48.8068 7.67694 48.8068 8.33379V41.6663C48.8068 42.3231 48.2731 42.8568 47.6163 42.8568H24.9986C24.3418 42.8568 23.8081 42.3231 23.8081 41.6663V8.33379C23.8081 7.67694 24.3418 7.14325 24.9986 7.14325Z" fill="white"/>
<path d="M47.619 8.33377V41.6663H24.9988V8.33377H47.619ZM47.619 5.9527H24.9988C23.6851 5.9527 22.6177 7.01751 22.6177 8.33377V41.6663C22.6177 42.9799 23.6825 44.0473 24.9988 44.0473H47.6164C48.9301 44.0473 49.9975 42.9825 49.9975 41.6663V8.33377C50 7.01751 48.9327 5.9527 47.619 5.9527Z" fill="#3955A3"/>
<path d="M46.2978 16.3571L40.7864 10.8457C40.6145 10.6764 40.34 10.6764 40.168 10.8457L35.5368 15.477H29.7637V17.8581H35.5368L39.288 21.4297V30.954H35.7164V27.3824C35.7164 26.7255 35.1827 26.1918 34.5258 26.1918H29.7637V28.5729H33.3353V35.7161H29.7637V38.0972H34.5258C35.1827 38.0972 35.7164 37.5635 35.7164 36.9067V33.335H40.4785C41.1354 33.335 41.669 32.8014 41.669 32.1445V21.4271L46.3003 16.9754C46.4671 16.8035 46.4671 16.529 46.2978 16.3571ZM41.8461 18.869L40.4759 20.2391L39.0955 18.8587L38.2745 18.0377L36.9043 16.6675L38.2847 15.2871L40.4759 13.0959L44.0476 16.6675L41.8461 18.869Z" fill="#3955A3"/>
<path fill-rule="evenodd" clip-rule="evenodd" d="M29.7609 0L0 5.21373V44.7837L29.7609 49.9974V0Z" fill="#3955A3"/>
<path d="M21.4272 15.654L15.785 35.7136L11.654 35.5827L6.20166 15.477H10.0837L13.4398 29.5017C13.6092 30.1611 13.7169 30.8334 13.7605 31.5133H13.8324C13.8914 30.8231 14.0069 30.138 14.1788 29.4658L17.5477 15.5719L21.4272 15.654Z" fill="white"/>
</g>
<defs>
<clipPath id="clip0_75_635">
<rect width="50" height="50" fill="white"/>
</clipPath>
</defs>
</svg>
