<svg width="50" height="50" viewBox="0 0 50 50" fill="none" xmlns="http://www.w3.org/2000/svg">
<path d="M7.22396 39.3457C6.93101 39.5973 6.57438 39.7623 6.19372 39.8224C5.81305 39.8825 5.42327 39.8353 5.06771 39.686L1.28125 38.0892C0.903557 37.9308 0.580629 37.6641 0.352772 37.3224C0.124914 36.9807 0.00221917 36.5791 0 36.1678L0 13.8333C0.00221917 13.422 0.124914 13.0204 0.352772 12.6787C0.580629 12.3369 0.903557 12.0703 1.28125 11.9119L5.06771 10.3413C5.42327 10.192 5.81305 10.1448 6.19372 10.2048C6.57438 10.2649 6.93101 10.4299 7.22396 10.6816L8.07292 11.3884C7.90075 11.2639 7.69775 11.1898 7.4863 11.174C7.27485 11.1582 7.06317 11.2014 6.87461 11.2989C6.68605 11.3964 6.52794 11.5443 6.41773 11.7264C6.30751 11.9085 6.24947 12.1176 6.25 12.3307V37.6703C6.24947 37.8835 6.30751 38.0926 6.41773 38.2747C6.52794 38.4568 6.68605 38.6047 6.87461 38.7022C7.06317 38.7997 7.27485 38.8429 7.4863 38.8271C7.69775 38.8113 7.90075 38.7371 8.07292 38.6127L7.22396 39.3457Z" fill="#52218A"/>
<path d="M1.28125 38.0891C0.903557 37.9308 0.580629 37.6641 0.352772 37.3224C0.124914 36.9807 0.00221917 36.5791 0 36.1677L0 35.995C0.00256729 36.2367 0.0771402 36.4721 0.214096 36.6708C0.351051 36.8695 0.544104 37.0224 0.768342 37.1097C0.99258 37.1971 1.23771 37.2149 1.47211 37.1608C1.7065 37.1068 1.9194 36.9833 2.08333 36.8065L34.375 0.917407C34.8323 0.460008 35.4192 0.156083 36.0552 0.047347C36.6912 -0.0613893 37.3451 0.030392 37.9271 0.310094L48.2292 5.29425C48.7598 5.55072 49.2076 5.95266 49.5209 6.45377C49.8342 6.95489 50.0003 7.53477 50 8.12663V8.24705C49.9997 7.87157 49.8934 7.5039 49.6935 7.18673C49.4935 6.86957 49.2082 6.61593 48.8706 6.45529C48.533 6.29465 48.1569 6.2336 47.7862 6.27923C47.4154 6.32485 47.0651 6.47529 46.776 6.71306L8.07292 38.6127L7.22396 39.3457C6.93101 39.5973 6.57438 39.7623 6.19372 39.8224C5.81305 39.8825 5.42327 39.8352 5.06771 39.686L1.28125 38.0891Z" fill="#6C33AF"/>
<path d="M1.28125 11.9119C0.903557 12.0702 0.580629 12.3369 0.352772 12.6786C0.124914 13.0203 0.00221917 13.4219 0 13.8333L0 14.006C0.00256729 13.7643 0.0771402 13.5289 0.214096 13.3302C0.351051 13.1315 0.544104 12.9786 0.768342 12.8913C0.99258 12.8039 1.23771 12.7861 1.47211 12.8402C1.7065 12.8943 1.9194 13.0177 2.08333 13.1946L34.375 49.0836C34.8323 49.541 35.4192 49.8449 36.0552 49.9537C36.6912 50.0624 37.3451 49.9706 37.9271 49.6909L48.2292 44.7068C48.7598 44.4503 49.2076 44.0483 49.5209 43.5472C49.8342 43.0461 50.0003 42.4662 50 41.8744V41.754C49.9997 42.1294 49.8934 42.4971 49.6935 42.8143C49.4935 43.1314 49.2082 43.3851 48.8706 43.5457C48.533 43.7064 48.1569 43.7674 47.7862 43.7218C47.4154 43.6762 47.0651 43.5257 46.776 43.288L8.07292 11.3883L7.22396 10.6554C6.9284 10.4081 6.57052 10.2478 6.18994 10.1924C5.80936 10.1369 5.42095 10.1884 5.06771 10.3412L1.28125 11.9119Z" fill="#854CC7"/>
<path d="M37.9271 49.6909C37.3451 49.9706 36.6912 50.0624 36.0552 49.9537C35.4192 49.8449 34.8323 49.541 34.375 49.0836C34.6317 49.3398 34.958 49.5139 35.3129 49.584C35.6677 49.6542 36.0353 49.6173 36.3694 49.4779C36.7035 49.3386 36.989 49.103 37.1902 48.8009C37.3914 48.4987 37.4992 48.1435 37.5 47.78V2.23151C37.5012 1.86705 37.3949 1.51041 37.1946 1.20668C36.9942 0.902942 36.7087 0.665753 36.3742 0.5251C36.0397 0.384447 35.6713 0.346645 35.3154 0.416475C34.9596 0.486304 34.6323 0.660628 34.375 0.917407C34.8323 0.460008 35.4192 0.156083 36.0552 0.047347C36.6912 -0.0613893 37.3451 0.030392 37.9271 0.310094L48.2292 5.28901C48.7598 5.54548 49.2076 5.94743 49.5209 6.44854C49.8342 6.94965 50.0003 7.52954 50 8.1214V41.8796C50.0003 42.4715 49.8342 43.0514 49.5209 43.5525C49.2076 44.0536 48.7598 44.4555 48.2292 44.712L37.9271 49.6909Z" fill="#B179F1"/>
<g opacity="0.25">
<path fill-rule="evenodd" clip-rule="evenodd" d="M35.8802 49.9213C36.5688 50.0792 37.2903 49.998 37.9271 49.6909L48.2292 44.712C48.7598 44.4555 49.2076 44.0536 49.5209 43.5525C49.8342 43.0514 50.0003 42.4715 50 41.8796V8.12141C50.0003 7.52956 49.8342 6.94967 49.5209 6.44856C49.2076 5.94745 48.7598 5.5455 48.2292 5.28903L37.9271 0.310112C37.1982 -0.042104 36.3618 -0.096527 35.5937 0.158284C35.1345 0.312965 34.7172 0.572851 34.375 0.917425L17.7708 19.3776L8.07292 11.3883L7.22396 10.6554C6.96863 10.4359 6.6643 10.2818 6.33691 10.2061C6.00952 10.1305 5.66878 10.1355 5.34375 10.2208C5.24857 10.242 5.156 10.2736 5.06771 10.3151L1.28125 11.9119C0.926851 12.059 0.619709 12.3015 0.393645 12.6128C0.167582 12.9241 0.0313668 13.2921 0 13.6762C0 13.7286 0 13.7809 0 13.8333V36.1678C0 36.2201 0 36.2725 0 36.3248C0.0313668 36.7089 0.167582 37.0769 0.393645 37.3882C0.619709 37.6995 0.926851 37.9421 1.28125 38.0892L5.06771 39.6598C5.156 39.7013 5.24857 39.7329 5.34375 39.754C5.66878 39.8394 6.00952 39.8444 6.33691 39.7687C6.6643 39.6931 6.96863 39.5389 7.22396 39.3195L8.07292 38.6127L17.7708 30.6234L34.375 49.0836C34.7889 49.4989 35.3104 49.7891 35.8802 49.9213ZM37.5 14.3621L24.5885 25.0005L37.5 35.639V14.3621ZM6.25 17.8122L12.7135 25.0005L6.25 32.1888V17.8122Z" fill="url(#paint0_linear_75_643)"/>
</g>
<defs>
<linearGradient id="paint0_linear_75_643" x1="25" y1="0.00122027" x2="25" y2="49.9998" gradientUnits="userSpaceOnUse">
<stop stop-color="white"/>
<stop offset="1" stop-color="white" stop-opacity="0"/>
</linearGradient>
</defs>
</svg>
