<svg width="50" height="50" viewBox="0 0 50 50" fill="none" xmlns="http://www.w3.org/2000/svg">
<mask id="mask0_75_661" style="mask-type:alpha" maskUnits="userSpaceOnUse" x="0" y="0" width="50" height="50">
<path fill-rule="evenodd" clip-rule="evenodd" d="M35.456 49.7863C36.2435 50.0947 37.1414 50.0749 37.9362 49.6904L48.2304 44.7114C49.3121 44.1882 50 43.0878 50 41.8806V8.11957C50 6.91235 49.3121 5.81193 48.2304 5.28873L37.9362 0.309537C36.8931 -0.195007 35.6723 -0.0714253 34.7567 0.597619C34.626 0.693192 34.5014 0.799902 34.3845 0.917498L14.6776 18.9897L6.0936 12.44C5.2945 11.8303 4.17682 11.8803 3.43467 12.5589L0.681515 15.0762C-0.226276 15.9063 -0.227316 17.3418 0.679265 18.1733L8.12355 25L0.679265 31.8267C-0.227316 32.6581 -0.226276 34.0937 0.681515 34.9238L3.43467 37.4411C4.17682 38.1197 5.2945 38.1697 6.0936 37.56L14.6776 31.0103L34.3845 49.0825C34.6962 49.396 35.0623 49.6321 35.456 49.7863ZM37.5076 13.5906L22.5546 25L37.5076 36.4094V13.5906Z" fill="white"/>
</mask>
<g mask="url(#mask0_75_661)">
<path d="M48.2303 5.29648L37.9281 0.310448C36.7356 -0.266685 35.3105 -0.0232379 34.3746 0.917471L0.648919 31.8268C-0.258218 32.6581 -0.257175 34.0937 0.651169 34.9237L3.40599 37.4411C4.14859 38.1197 5.26698 38.1697 6.06653 37.56L46.6801 6.59C48.0426 5.55099 49.9996 6.52783 49.9996 8.24694V8.12672C49.9996 6.92 49.3119 5.81998 48.2303 5.29648Z" fill="#0065A9"/>
<g filter="url(#filter0_d_75_661)">
<path d="M48.2303 44.7034L37.9281 49.6895C36.7356 50.2667 35.3105 50.0232 34.3746 49.0825L0.648919 18.1732C-0.258218 17.3418 -0.257175 15.9062 0.651169 15.0762L3.40599 12.5588C4.14859 11.8802 5.26698 11.8303 6.06653 12.44L46.6801 43.4099C48.0426 44.4489 49.9996 43.4721 49.9996 41.753V41.8733C49.9996 43.0799 49.3119 44.1799 48.2303 44.7034Z" fill="#007ACC"/>
</g>
<g filter="url(#filter1_d_75_661)">
<path d="M37.9289 49.6904C36.7361 50.2672 35.3109 50.0232 34.375 49.0824C35.5282 50.2416 37.5 49.4206 37.5 47.7813V2.21857C37.5 0.579245 35.5282 -0.241735 34.375 0.917439C35.3109 -0.0233557 36.7361 -0.267147 37.9289 0.309476L48.2294 5.28868C49.3117 5.81188 50 6.9123 50 8.11952V41.8805C50 43.0877 49.3117 44.1882 48.2293 44.7114L37.9289 49.6904Z" fill="#1F9CF0"/>
</g>
<g style="mix-blend-mode:overlay" opacity="0.25">
<path fill-rule="evenodd" clip-rule="evenodd" d="M35.4252 49.7863C36.2127 50.0947 37.1107 50.0749 37.9055 49.6905L48.1996 44.7115C49.2813 44.1883 49.9692 43.0878 49.9692 41.8806V8.1196C49.9692 6.91233 49.2814 5.81191 48.1997 5.28871L37.9055 0.309537C36.8624 -0.195007 35.6415 -0.071425 34.726 0.597615C34.5952 0.693192 34.4706 0.799903 34.3537 0.917499L14.6468 18.9897L6.06283 12.44C5.26378 11.8303 4.14605 11.8803 3.4039 12.5588L0.650754 15.0762C-0.257038 15.9063 -0.258078 17.3418 0.648504 18.1732L8.09278 25L0.648504 31.8268C-0.258078 32.6582 -0.257038 34.0937 0.650754 34.9237L3.4039 37.4411C4.14605 38.1197 5.26378 38.1697 6.06283 37.56L14.6468 31.0103L34.3537 49.0825C34.6655 49.396 35.0315 49.6322 35.4252 49.7863ZM37.4768 13.5906L22.5238 25L37.4768 36.4094V13.5906Z" fill="url(#paint0_linear_75_661)"/>
</g>
</g>
<defs>
<filter id="filter0_d_75_661" x="-8.3641" y="3.68088" width="66.697" height="54.652" filterUnits="userSpaceOnUse" color-interpolation-filters="sRGB">
<feFlood flood-opacity="0" result="BackgroundImageFix"/>
<feColorMatrix in="SourceAlpha" type="matrix" values="0 0 0 0 0 0 0 0 0 0 0 0 0 0 0 0 0 0 127 0" result="hardAlpha"/>
<feOffset/>
<feGaussianBlur stdDeviation="4.16667"/>
<feColorMatrix type="matrix" values="0 0 0 0 0 0 0 0 0 0 0 0 0 0 0 0 0 0 0.25 0"/>
<feBlend mode="overlay" in2="BackgroundImageFix" result="effect1_dropShadow_75_661"/>
<feBlend mode="normal" in="SourceGraphic" in2="effect1_dropShadow_75_661" result="shape"/>
</filter>
<filter id="filter1_d_75_661" x="26.0417" y="-8.3334" width="32.2917" height="66.6667" filterUnits="userSpaceOnUse" color-interpolation-filters="sRGB">
<feFlood flood-opacity="0" result="BackgroundImageFix"/>
<feColorMatrix in="SourceAlpha" type="matrix" values="0 0 0 0 0 0 0 0 0 0 0 0 0 0 0 0 0 0 127 0" result="hardAlpha"/>
<feOffset/>
<feGaussianBlur stdDeviation="4.16667"/>
<feColorMatrix type="matrix" values="0 0 0 0 0 0 0 0 0 0 0 0 0 0 0 0 0 0 0.25 0"/>
<feBlend mode="overlay" in2="BackgroundImageFix" result="effect1_dropShadow_75_661"/>
<feBlend mode="normal" in="SourceGraphic" in2="effect1_dropShadow_75_661" result="shape"/>
</filter>
<linearGradient id="paint0_linear_75_661" x1="24.9692" y1="-2.84983e-07" x2="24.9692" y2="50" gradientUnits="userSpaceOnUse">
<stop stop-color="white"/>
<stop offset="1" stop-color="white" stop-opacity="0"/>
</linearGradient>
</defs>
</svg>
