<svg width="60" height="46" viewBox="0 0 60 46" fill="none" xmlns="http://www.w3.org/2000/svg">
<path d="M30 0L32.55 28.8L44 32L55.446 28.802L58 0H30Z" fill="#2196F3"/>
<path d="M52.5482 9.418L52.2262 13.036L51.2542 23.882L44.0002 25.888L43.9942 25.89L36.7442 23.882L36.2382 18.21H39.7902L40.0542 21.152L43.9962 22.216L43.9982 22.214L47.9462 21.15L48.4842 16.248L36.0682 16.282L35.7162 12.93L48.7822 12.776L49.0462 9.188L35.3662 9.226L35.1362 5.888H44.0002H52.8642L52.5482 9.418Z" fill="#FAFAFA"/>
<rect x="23" y="29" width="13" height="14" fill="#FAFAFA"/>
<rect x="23" y="29" width="13" height="14" fill="#FAFAFA"/>
<g clip-path="url(#clip0_79_942)">
<path d="M2.01476 1.05933L4.09162 27.6291C4.1228 28.028 4.39287 28.3683 4.77438 28.4892L15.7029 31.9541C15.8961 32.0153 16.1036 32.0153 16.2969 31.9541L27.2254 28.4892C27.6069 28.3683 27.877 28.028 27.9081 27.6291L29.985 1.05933C30.0297 0.488093 29.5782 0 29.0053 0H2.99456C2.42163 0 1.97017 0.488093 2.01476 1.05933ZM24.659 9.30302H11.1237L11.5322 13.0699H24.3646L23.5252 23.8086L15.9999 26.1944L8.47465 23.8086L8.03609 18.1982H11.9859V20.9502L16.1055 22.0558L20.2004 20.9502L20.5181 16.5643H7.90836L7.07119 5.8538H24.9286L24.659 9.30302Z" fill="#FC490B"/>
</g>
<g clip-path="url(#clip1_79_942)">
<path d="M19 26L20.6667 44.3333L29 46L37.3333 44.3333L39 26H19ZM28.1667 42.433L23.7607 41.5533L23.4833 38.5H25.1572L25.308 40.1632L26.5 40.401V29.3333H28.1667V42.433H28.1667ZM35.198 31H31.5V35.1667H34.8195L34.2393 41.5535L29.8333 42.4333V40.734L32.6915 40.1635L32.9942 36.8335H29.8333V29.3335H35.3493L35.198 31Z" fill="#D5B932"/>
</g>
<defs>
<clipPath id="clip0_79_942">
<rect width="32" height="32" fill="white"/>
</clipPath>
<clipPath id="clip1_79_942">
<rect width="20" height="20" fill="white" transform="translate(19 26)"/>
</clipPath>
</defs>
</svg>
