<svg width="50" height="50" viewBox="0 0 50 50" fill="none" xmlns="http://www.w3.org/2000/svg">
<g clip-path="url(#clip0_75_340)">
<path d="M8.85417 0H41.1458C46.0417 0 50 4.05983 50 9.0812V40.9188C50 45.9402 46.0417 50 41.1458 50H8.85417C3.95833 50 0 45.9402 0 40.9188V9.0812C0 4.05983 3.95833 0 8.85417 0Z" fill="#470137"/>
<path d="M26.2919 13.141L20.0419 23.7179L26.7085 34.9359C26.7502 35.0214 26.771 35.1068 26.7502 35.1923C26.7294 35.2778 26.646 35.2137 26.521 35.235H21.7502C21.4169 35.235 21.1877 35.2137 21.0419 35C20.6044 34.1025 20.146 33.2265 19.7085 32.329C19.271 31.453 18.7919 30.5555 18.2919 29.6367C17.7919 28.7179 17.2919 27.7991 16.7919 26.859H16.7502C16.3127 27.7778 15.8335 28.6966 15.3544 29.6154C14.8752 30.5342 14.396 31.453 13.9377 32.3504C13.4585 33.2478 12.9794 34.1666 12.5002 35.0427C12.4169 35.2564 12.2502 35.2778 12.021 35.2778H7.4377C7.35436 35.2778 7.29186 35.3205 7.29186 35.2137C7.27103 35.1282 7.29186 35.0427 7.33353 34.9786L13.8127 24.0812L7.5002 13.1196C7.4377 13.0342 7.41686 12.9487 7.45853 12.906C7.5002 12.8419 7.58353 12.8205 7.66686 12.8205H12.396C12.5002 12.8205 12.6044 12.8419 12.6877 12.8632C12.771 12.906 12.8335 12.9701 12.896 13.0555C13.2919 13.9743 13.7502 14.8931 14.2294 15.8119C14.7294 16.7308 15.2085 17.6282 15.7294 18.5256C16.2294 19.4231 16.6877 20.3205 17.1252 21.2393H17.1669C17.6044 20.2991 18.0627 19.3803 18.521 18.4829C18.9794 17.5855 19.4585 16.688 19.9377 15.7906C20.4169 14.8931 20.8752 13.9743 21.3335 13.0983C21.3544 13.0128 21.396 12.9273 21.4585 12.8846C21.5419 12.8419 21.6252 12.8205 21.7294 12.8419H26.1252C26.2294 12.8205 26.3335 12.8846 26.3544 12.9914C26.3752 13.0128 26.3335 13.0983 26.2919 13.141Z" fill="#FF61F6"/>
<path d="M35.9166 35.6837C34.375 35.7051 32.8333 35.3846 31.4375 34.7222C30.125 34.1025 29.0416 33.0769 28.2916 31.8162C27.5208 30.5128 27.1458 28.8889 27.1458 26.9444C27.125 25.3632 27.5208 23.8034 28.2916 22.4359C29.0833 21.047 30.2291 19.8931 31.6041 19.1239C33.0625 18.2906 34.8125 17.8846 36.875 17.8846C36.9791 17.8846 37.125 17.8846 37.3125 17.906C37.5 17.9273 37.7083 17.9273 37.9583 17.9487V11.1966C37.9583 11.047 38.0208 10.9615 38.1666 10.9615H42.3958C42.5 10.9401 42.5833 11.0256 42.6041 11.1111C42.6041 11.1325 42.6041 11.1538 42.6041 11.1538V31.4957C42.6041 31.8803 42.625 32.3077 42.6458 32.7778C42.6875 33.2265 42.7083 33.6538 42.7291 34.0171C42.7291 34.1666 42.6666 34.2948 42.5208 34.3589C41.4375 34.829 40.2916 35.1709 39.125 35.3846C38.0625 35.5769 37 35.6837 35.9166 35.6837ZM37.9583 31.4102V22.0085C37.7708 21.9658 37.5833 21.9231 37.3958 21.9017C37.1666 21.8803 36.9375 21.8589 36.7083 21.8589C35.8958 21.8589 35.0833 22.0299 34.3541 22.4145C33.6458 22.7778 33.0416 23.3119 32.5833 23.9957C32.125 24.6795 31.8958 25.5983 31.8958 26.7094C31.875 27.4572 32 28.2051 32.25 28.9102C32.4583 29.4872 32.7708 30 33.1875 30.4273C33.5833 30.8119 34.0625 31.1111 34.6041 31.282C35.1666 31.4743 35.75 31.5598 36.3333 31.5598C36.6458 31.5598 36.9375 31.5384 37.2083 31.5171C37.4791 31.5384 37.7083 31.4957 37.9583 31.4102Z" fill="#FF61F6"/>
</g>
<defs>
<clipPath id="clip0_75_340">
<rect width="50" height="50" fill="white"/>
</clipPath>
</defs>
</svg>
